<?xml version="1.0" standalone="no"?>
<!DOCTYPE svg PUBLIC "-//W3C//DTD SVG 1.1//EN" "http://www.w3.org/Graphics/SVG/1.1/DTD/svg11.dtd" >
<svg>
<metadata>
Created by FontForge 20090914 at Tue Feb 22 07:52:45 2022
 By www-data
Copyright &#194;&#169; 2019 by Lisa Fischbach, Jakob Runge and Nils Thomsen. All rights reserved.
</metadata>
<defs>
<font id="HalvarBreit-Bd" horiz-adv-x="554" >
  <font-face 
    font-family="Halvar Breit Rg"
    font-weight="700"
    font-stretch="expanded"
    units-per-em="1000"
    panose-1="0 0 8 5 0 0 0 0 0 0"
    ascent="800"
    descent="-200"
    x-height="501"
    cap-height="656"
    bbox="-246 -238.001 1395 967.999"
    underline-thickness="50"
    underline-position="-50"
    unicode-range="U+0020-U+FB02"
  />
<missing-glyph horiz-adv-x="436" 
d="M38 656h140l-178 -178v140zM257 656h140l-397 -397v139zM436 618v-140l-436 -439v140zM436 259l-257 -259h-139l396 398v-139zM436 39l-38 -39h-139l177 179v-140z" />
    <glyph glyph-name=".notdef" horiz-adv-x="436" 
d="M38 656h140l-178 -178v140zM257 656h140l-397 -397v139zM436 618v-140l-436 -439v140zM436 259l-257 -259h-139l396 398v-139zM436 39l-38 -39h-139l177 179v-140z" />
    <glyph glyph-name="space" unicode=" " horiz-adv-x="400" 
 />
    <glyph glyph-name="exclam" unicode="!" horiz-adv-x="352" 
d="M252 656l-8 -444h-135l-9 444h152zM113.5 11.5c-16.333 15.667 -24.5 35.834 -24.5 60.501s8.16699 44.834 24.5 60.501s37.166 23.5 62.499 23.5s46.166 -7.83301 62.499 -23.5s24.5 -35.834 24.5 -60.501s-8.16699 -44.834 -24.5 -60.501s-37.166 -23.5 -62.499 -23.5
s-46.166 7.83301 -62.499 23.5z" />
    <glyph glyph-name="quotedbl" unicode="&#x22;" horiz-adv-x="573" 
d="M238 696l-4 -291h-137l-4 291h145zM480 696l-4 -291h-137l-4 291h145z" />
    <glyph glyph-name="numbersign" unicode="#" horiz-adv-x="844" 
d="M650 411l-10 -166h134v-134h-143l-7 -111h-142l7 111h-162l-6 -111h-143l7 111h-137v134h146l10 166h-134v134h143l7 111h142l-7 -111h161l7 111h143l-7 -111h137v-134h-146zM499 244l11 168h-165l-11 -168h165z" />
    <glyph glyph-name="dollar" unicode="$" horiz-adv-x="816" 
d="M745 226l0.00195312 -10.001c0 -54.667 -22.667 -98.5 -68 -131.5s-110 -53.5 -194 -61.5v-83h-152v83c-86 7.33301 -151 28 -195 62s-66 80.667 -66 140v7h147v-7c0 -28 16.5 -48.833 49.5 -62.5s83.833 -20.5 152.5 -20.5c59.333 0 103.5 4.83301 132.5 14.5
s43.5 24.5 43.5 44.5v9c0 10.667 -3 19.334 -9 26.001s-16.667 11.834 -32 15.501s-37.333 7.16699 -66 10.5l-183 20c-76.667 8.66699 -133 26 -169 52s-54 62.333 -54 109v10c0 50.667 21.667 91.5 65 122.5s104.666 50.167 183.999 57.5v84h152v-85
c80.667 -8 142.167 -28.167 184.5 -60.5s63.5 -75.833 63.5 -130.5v-7h-147v7c0 24 -15.833 42.167 -47.5 54.5s-78.834 18.5 -141.501 18.5c-54 0 -94.833 -4.33301 -122.5 -13s-41.5 -21.334 -41.5 -38.001v-9c0 -10 3 -17.833 9 -23.5s16.667 -10.5 32 -14.5
s38 -7.66699 68 -11l180 -20c150 -17.333 225 -70.333 225 -159z" />
    <glyph glyph-name="percent" unicode="%" horiz-adv-x="970" 
d="M76 381.5c-36.667 28.333 -55 66.166 -55 113.499v11c0 48 18.167 86.167 54.5 114.5s85.5 42.5 147.5 42.5s110.833 -14 146.5 -42s53.5 -66.333 53.5 -115v-11c0 -47.333 -18.167 -85.166 -54.5 -113.499s-84.833 -42.5 -145.5 -42.5
c-61.333 0 -110.333 14.167 -147 42.5zM277.5 452.5c13.667 10.333 20.498 24.5 20.498 42.5v11c0 18 -6.83301 32.167 -20.5 42.5s-32.167 15.5 -55.5 15.5s-41.666 -5.16699 -54.999 -15.5s-20 -24.5 -20 -42.5v-11c0 -17.333 6.83301 -31.333 20.5 -42
s31.834 -16 54.501 -16c23.333 0 41.833 5.16699 55.5 15.5zM601.998 36.5c-36.667 28.333 -55 66.166 -55 113.499v11c0 48 18.167 86.167 54.5 114.5s85.5 42.5 147.5 42.5s110.833 -14 146.5 -42s53.5 -66.333 53.5 -115v-11c0 -47.333 -18.167 -85.166 -54.5 -113.499
s-84.833 -42.5 -145.5 -42.5c-61.333 0 -110.333 14.167 -147 42.5zM803.498 107.5c13.667 10.333 20.498 24.5 20.498 42.5v11c0 18 -6.83301 32.167 -20.5 42.5s-32.167 15.5 -55.5 15.5s-41.666 -5.16699 -54.999 -15.5s-20 -24.5 -20 -42.5v-11
c0 -17.333 6.83301 -31.333 20.5 -42s31.834 -16 54.501 -16c23.333 0 41.833 5.16699 55.5 15.5zM701.996 656h142v-23l-577 -633h-142v20z" />
    <glyph glyph-name="ampersand" unicode="&#x26;" horiz-adv-x="915" 
d="M901 352l-208.002 -197.001l197 -135v-20h-207l-93 65c-36.667 -26 -75.667 -45.333 -117 -58s-89.666 -19 -144.999 -19c-56.667 0 -106.667 7.66699 -150 23s-76.833 36.833 -100.5 64.5s-35.5 59.834 -35.5 96.501v11c0 78 46.333 134.333 139 169
c-30 23.333 -50.667 44.666 -62 63.999s-17 42.333 -17 69v9c0 34 11.5 64.167 34.5 90.5s55 46.833 96 61.5s88.167 22 141.5 22c52.667 0 98.834 -7 138.501 -21s70.5 -34 92.5 -60s33 -56 33 -90v-9c0 -39.333 -11.333 -72.166 -34 -98.499s-57.667 -47.833 -105 -64.5
l-36 -13l116 -79l144 139h178v-20zM249.998 482.999c0 -9.33301 3.66699 -18.167 11 -26.5s21 -19.5 41 -33.5l41 -28l58 20c35.333 12.667 59 23.5 71 32.5s18 20.167 18 33.5v7c0 37.333 -40 56 -120 56s-120 -18 -120 -54v-7zM472.998 146.998l-173.999 122l-30 -11
c-30 -10.667 -50.5 -20.5 -61.5 -29.5s-16.5 -20.833 -16.5 -35.5v-12c0 -22 11.667 -39 35 -51s56.666 -18 99.999 -18c56 0 105 11.667 147 35z" />
    <glyph glyph-name="quotesingle" unicode="'" horiz-adv-x="334" 
d="M241 696l-4 -291h-140l-4 291h148z" />
    <glyph glyph-name="parenleft" unicode="(" horiz-adv-x="466" 
d="M232 -31.5c-54 27 -95.667 64.8301 -125 113.497s-44 105.334 -44 170.001v152c0 66 14.5 123.333 43.5 172s70.5 86.167 124.5 112.5s117.667 39.833 191 40.5v-129c-68.667 -0.666992 -121.5 -18.167 -158.5 -52.5s-55.5 -83.166 -55.5 -146.499v-145
c0 -63.333 18.5 -112.166 55.5 -146.499s89.833 -51.833 158.5 -52.5v-130c-72.667 0.666992 -136 14.5 -190 41.5z" />
    <glyph glyph-name="parenright" unicode=")" horiz-adv-x="466" 
d="M234 687.5c54 -27 95.667 -64.8301 125 -113.497s44 -105.334 44 -170.001v-152c0 -66 -14.5 -123.333 -43.5 -172s-70.5 -86.167 -124.5 -112.5s-117.667 -39.833 -191 -40.5v129c68.667 0.666992 121.5 18.167 158.5 52.5s55.5 83.166 55.5 146.499v145
c0 63.333 -18.5 112.166 -55.5 146.499s-89.833 51.833 -158.5 52.5v130c72.667 -0.666992 136 -14.5 190 -41.5z" />
    <glyph glyph-name="asterisk" unicode="*" horiz-adv-x="640" 
d="M469 500l148 -41l-44 -121l-190 82l5 -105h-136l6 106l-192 -83l-43 121l148 41l-148 40l43 121l192 -83l-6 106h136l-5 -106l190 83l44 -121z" />
    <glyph glyph-name="plus" unicode="+" horiz-adv-x="816" 
d="M715 261h-240v-220h-134v220h-240v134h240v220h134v-220h240v-134z" />
    <glyph glyph-name="comma" unicode="," horiz-adv-x="334" 
d="M276 148v-21l-98 -270h-134l71 291h161z" />
    <glyph glyph-name="hyphen" unicode="-" horiz-adv-x="442" 
d="M392 342v-129h-342v129h342z" />
    <glyph glyph-name="period" unicode="." horiz-adv-x="334" 
d="M104.5 11.5c-16.333 15.667 -24.5 35.832 -24.5 60.499s8.16699 44.834 24.5 60.501s37.166 23.5 62.499 23.5c26 0 47 -7.83301 63 -23.5s24 -35.834 24 -60.501c0 -25.333 -8 -45.666 -24 -60.999s-37 -23 -63 -23c-25.333 0 -46.166 7.83301 -62.499 23.5z" />
    <glyph glyph-name="slash" unicode="/" horiz-adv-x="703" 
d="M496 724h151v-23l-440 -769h-151v23z" />
    <glyph glyph-name="zero" unicode="0" horiz-adv-x="817" 
d="M223 26c-54 25.333 -96 60.833 -126 106.5s-45 98.167 -45 157.5v75c0 60 15 112.833 45 158.5s72 81.167 126 106.5s116.333 38 187 38c70 0 131.833 -12.667 185.5 -38s95.334 -60.833 125.001 -106.5s44.5 -98.5 44.5 -158.5v-75c0 -60 -14.667 -112.833 -44 -158.5
s-70.833 -81 -124.5 -106s-115.834 -37.5 -186.501 -37.5s-133 12.667 -187 38zM563 168c35.333 27.333 53 67 53 119v80c0 51.333 -18 91.166 -54 119.499s-87 42.5 -153 42.5s-117.167 -14.167 -153.5 -42.5s-54.5 -68.166 -54.5 -119.499v-80
c0 -51.333 18 -90.833 54 -118.5s87.667 -41.5 155 -41.5c66.667 0 117.667 13.667 153 41z" />
    <glyph glyph-name="one" unicode="1" horiz-adv-x="519" 
d="M403 0h-150v465c-28 -12 -61.333 -18 -100 -18h-106v140h99c37.333 0 64.5 5.5 81.5 16.5s25.5 28.5 25.5 52.5h150v-656z" />
    <glyph glyph-name="two" unicode="2" horiz-adv-x="755" 
d="M699 127l0.000976562 -127h-629v118l315 177c42.667 24 74.167 43.333 94.5 58s34.166 28.334 41.499 41.001s11 27.667 11 45v9c0 28.667 -13.167 50.5 -39.5 65.5s-64.166 22.5 -113.499 22.5c-52 0 -91.5 -8.83301 -118.5 -26.5s-40.5 -43.5 -40.5 -77.5v-20h-148v21
c0 76.667 26 135 78 175s127.333 60 226 60c96.667 0 172 -18.833 226 -56.5s81 -89.834 81 -156.501v-10c0 -32.667 -6.66699 -62 -20 -88s-35.833 -51.833 -67.5 -77.5s-75.834 -54.5 -132.501 -86.5l-118 -66h354z" />
    <glyph glyph-name="three" unicode="3" horiz-adv-x="790" 
d="M668.5 335.5c39.667 -31.667 59.499 -73.833 59.499 -126.5v-12c0 -68.667 -28.333 -120.667 -85 -156s-140 -53 -250 -53c-109.333 0.666992 -192.166 19.334 -248.499 56.001s-84.5 90.667 -84.5 162v6h149v-6c0 -27.333 15.833 -48.333 47.5 -63s77.5 -22 137.5 -22
c122 0 183 26 183 78v11c0 24 -15 41.833 -45 53.5s-76 17.5 -138 17.5h-122v117l205 127h-404v131h637v-131l-215 -129c76 -8.66699 133.833 -28.834 173.5 -60.501z" />
    <glyph glyph-name="four" unicode="4" horiz-adv-x="898" 
d="M836 133l-148.999 0.00195312v-133h-149v133h-472v134c44.667 71.333 81.167 137.666 109.5 198.999s51.166 124.666 68.499 189.999h159v-23c-36 -121.333 -90 -243.333 -162 -366h297v275h149v-275h149v-134z" />
    <glyph glyph-name="five" unicode="5" horiz-adv-x="801" 
d="M653.5 376c57 -37.333 85.502 -89.334 85.502 -156.001v-12c0 -72 -28.5 -126.667 -85.5 -164s-140.167 -56 -249.5 -56c-110 0 -193 16.667 -249 50s-84 83 -84 149v7h149v-7c0 -21.333 15.667 -37.666 47 -48.999s76.666 -17 135.999 -17c60 0 105.833 7.5 137.5 22.5
s47.5 36.5 47.5 64.5v11c0 26 -16.5 46.167 -49.5 60.5s-79.5 21.5 -139.5 21.5c-54 0 -96.833 -4.66699 -128.5 -14s-49.167 -22.333 -52.5 -39h-147l21 408h604v-135h-476l-6 -129c49.333 26.667 115.666 40 198.999 40c103.333 0 183.5 -18.667 240.5 -56z" />
    <glyph glyph-name="six" unicode="6" horiz-adv-x="786" 
d="M660.5 365.5c55.667 -35 83.499 -84.832 83.499 -149.499v-10c0 -69.333 -29.5 -123 -88.5 -161s-141.5 -57 -247.5 -57c-74 0 -137.667 10.333 -191 31s-94.166 50.5 -122.499 89.5s-42.5 85.5 -42.5 139.5v144c0 87.333 31 155.166 93 203.499s149.333 72.5 262 72.5
c102.667 0 182.667 -19 240 -57s86 -91.333 86 -160v-5h-148v5c0 26.667 -15.667 47.334 -47 62.001s-75 22 -131 22c-67.333 0 -118.5 -11.833 -153.5 -35.5s-52.5 -58.834 -52.5 -105.501v-30c52.667 36 127 54 223 54c102 0 180.833 -17.5 236.5 -52.5zM592.999 212.001
c0 26.667 -14.5 46.333 -43.5 59s-73.5 19 -133.5 19c-51.333 0 -95.5 -4.83301 -132.5 -14.5s-64.5 -23.5 -82.5 -41.5c3.33301 -36.667 22.833 -64.667 58.5 -84s86.5 -29 152.5 -29c58.667 0 103.5 6.83301 134.5 20.5s46.5 34.167 46.5 61.5v9z" />
    <glyph glyph-name="seven" unicode="7" horiz-adv-x="757" 
d="M693 656v-134.998c-90.667 -92.667 -161.167 -182.334 -211.5 -269.001s-75.5 -162.334 -75.5 -227.001v-25h-167v25c0 68 23.833 145.167 71.5 231.5s115.167 174.5 202.5 264.5h-461v135h641z" />
    <glyph glyph-name="eight" unicode="8" horiz-adv-x="853" 
d="M787 204l-0.00195312 -11c0 -136.667 -120 -205 -360 -205s-360 68.333 -360 205v11c0 63.333 34.333 110 103 140c-48.667 29.333 -73 69.666 -73 120.999v11c0 38.667 13.5 72.5 40.5 101.5s65.333 51.333 115 67s107.834 23.5 174.501 23.5
s124.834 -7.83301 174.501 -23.5s88 -38 115 -67s40.5 -62.833 40.5 -101.5v-11c0 -51.333 -24.333 -91.666 -73 -120.999c68.667 -30 103 -76.667 103 -140zM242.998 464c0 -26.667 13.667 -45.334 41 -56.001s75 -16 143 -16c67.333 0 114.833 5.33301 142.5 16
s41.5 29.334 41.5 56.001v6c0 24.667 -14.333 42.5 -43 53.5s-75.667 16.5 -141 16.5s-112.333 -5.5 -141 -16.5s-43 -28.833 -43 -53.5v-6zM636.998 194c0 17.333 -6.66699 31.166 -20 41.499s-35 17.666 -65 21.999s-71.667 6.5 -125 6.5s-95 -2.16699 -125 -6.5
s-51.667 -11.666 -65 -21.999s-20 -24.166 -20 -41.499v-6c0 -26 16 -44.5 48 -55.5s86 -16.5 162 -16.5s130 5.5 162 16.5s48 29.5 48 55.5v6z" />
    <glyph glyph-name="nine" unicode="9" horiz-adv-x="786" 
d="M569 637.5c53.333 -21 94.167 -50.999 122.5 -89.999s42.5 -85.167 42.5 -138.5v-145c0 -87.333 -31 -155.166 -93 -203.499s-149.333 -72.5 -262 -72.5c-102.667 0 -182.667 19 -240 57s-86 91.333 -86 160v6h148v-6c0 -26.667 15.667 -47.334 47 -62.001
s75 -22 131 -22c67.333 0 118.5 12 153.5 36s52.5 59 52.5 105v30c-52.667 -36 -127 -54 -223 -54c-102 0 -180.833 17.5 -236.5 52.5s-83.5 84.833 -83.5 149.5v10c0 69.333 29.5 123.166 88.5 161.499s141.5 57.5 247.5 57.5c74 0 137.667 -10.5 191 -31.5z
M502.501 380.501c37 9.66699 64.5 23.499 82.5 41.499c-3.33301 36.667 -23 64.834 -59 84.501s-86.667 29.5 -152 29.5c-58.667 0 -103.5 -7 -134.5 -21s-46.5 -34.667 -46.5 -62v-8c0 -26.667 14.5 -46.5 43.5 -59.5s73.5 -19.5 133.5 -19.5
c51.333 0 95.5 4.83301 132.5 14.5z" />
    <glyph glyph-name="colon" unicode=":" horiz-adv-x="374" 
d="M124.5 11.5c-16.333 15.667 -24.5 35.832 -24.5 60.499s8.16699 44.834 24.5 60.501s37.166 23.5 62.499 23.5c26 0 47 -7.83301 63 -23.5s24 -35.834 24 -60.501c0 -25.333 -8 -45.666 -24 -60.999s-37 -23 -63 -23c-25.333 0 -46.166 7.83301 -62.499 23.5z
M124.5 341.498c-16.333 15.667 -24.5 35.832 -24.5 60.499s8.16699 44.834 24.5 60.501s37.166 23.5 62.499 23.5c26 0 47 -7.83301 63 -23.5s24 -35.834 24 -60.501c0 -25.333 -8 -45.666 -24 -60.999s-37 -23 -63 -23c-25.333 0 -46.166 7.83301 -62.499 23.5z" />
    <glyph glyph-name="semicolon" unicode=";" horiz-adv-x="374" 
d="M286 148v-21l-98 -270h-134l71 291h161zM124.5 341.5c-16.333 15.667 -24.5 35.832 -24.5 60.499s8.16699 44.834 24.5 60.501s37.166 23.5 62.499 23.5c26 0 47 -7.83301 63 -23.5s24 -35.834 24 -60.501c0 -25.333 -8 -45.666 -24 -60.999s-37 -23 -63 -23
c-25.333 0 -46.166 7.83301 -62.499 23.5z" />
    <glyph glyph-name="less" unicode="&#x3c;" horiz-adv-x="816" 
d="M705 471l-433 -143l433 -144v-134h-20l-581 191v174l581 190h20v-134z" />
    <glyph glyph-name="equal" unicode="=" horiz-adv-x="816" 
d="M705 510v-135h-594v135h594zM705 281v-135h-594v135h594z" />
    <glyph glyph-name="greater" unicode="&#x3e;" horiz-adv-x="816" 
d="M712 415v-174l-581 -191h-20v134l433 144l-433 143v134h20z" />
    <glyph glyph-name="question" unicode="?" horiz-adv-x="632" 
d="M267.5 315c15 20.667 43.167 41.3291 84.5 61.9961c37.333 18.667 61.833 33.334 73.5 44.001s17.5 23.334 17.5 38.001v9c0 22.667 -11 40.334 -33 53.001s-53.333 19 -94 19c-43.333 0 -77.333 -8.33301 -102 -25s-37 -39.667 -37 -69v-20h-141v20
c0 68.667 24.833 122.834 74.5 162.501s117.834 59.5 204.501 59.5c52 0 99 -8.33301 141 -25s74.833 -39.667 98.5 -69s35.5 -62.333 35.5 -99v-14c0 -30.667 -9.33301 -57.834 -28 -81.501s-48 -45.834 -88 -66.501c-28 -14 -48.333 -25.167 -61 -33.5
s-21.334 -16.166 -26.001 -23.499s-7 -16.333 -7 -27v-17h-135v17c0 36.667 7.5 65.334 22.5 86.001zM250 11.4951c-16 15.667 -24 35.834 -24 60.501s8 44.834 24 60.501s36.667 23.5 62 23.5s46.166 -7.83301 62.499 -23.5s24.5 -35.834 24.5 -60.501
s-8.16699 -44.834 -24.5 -60.501s-37.166 -23.5 -62.499 -23.5s-46 7.83301 -62 23.5z" />
    <glyph glyph-name="at" unicode="@" horiz-adv-x="1030" 
d="M769 621.5c70 -31 123.831 -75.3311 161.498 -132.998s56.5 -125.167 56.5 -202.5v-53c0 -62.667 -16.167 -111.667 -48.5 -147s-77.166 -53 -134.499 -53c-30 0 -57.167 5.16699 -81.5 15.5s-44.166 24.833 -59.499 43.5c-42 -42 -101 -63 -177 -63
c-46 0 -86.833 9.33301 -122.5 28s-63.334 44.667 -83.001 78s-29.5 71.333 -29.5 114v17c0 43.333 9.83301 81.666 29.5 114.999s47.5 59.166 83.5 77.499s77.333 27.5 124 27.5c60 0 110.333 -14.333 151 -43l3 32h119v-273c0 -17.333 4.33301 -31 13 -41
s20.667 -15 36 -15c34 0 51 27 51 81v71c0 52 -13.5 97.167 -40.5 135.5s-65.667 67.833 -116 88.5s-109.833 31 -178.5 31c-72 0 -134.333 -11.167 -187 -33.5s-93.167 -54.333 -121.5 -96s-42.5 -90.834 -42.5 -147.501v-37c0 -83.333 27.833 -148.666 83.5 -195.999
s132.5 -71 230.5 -71h184v-113h-184c-84.667 0 -160.5 16.167 -227.5 48.5s-119.333 77 -157 134s-56.5 121.833 -56.5 194.5v44c0 77.333 19.667 145.333 59 204s94.833 104 166.5 136s154.834 48 249.501 48c94 0 176 -15.5 246 -46.5zM580.498 161.502
c22.333 8.33301 39.833 19.833 52.5 34.5v123c-12.667 14.667 -30 26 -52 34s-47 12 -75 12c-40.667 0 -71.667 -8.5 -93 -25.5s-32 -41.5 -32 -73.5v-17c0 -31.333 10.833 -55.833 32.5 -73.5s52.167 -26.5 91.5 -26.5c28 0 53.167 4.16699 75.5 12.5z" />
    <glyph glyph-name="A" unicode="A" horiz-adv-x="770" 
d="M759 23v-23h-150l-60 136h-328l-60 -136h-150v23l291 633h166zM492 266l-107 244l-107 -244h214z" />
    <glyph glyph-name="B" unicode="B" horiz-adv-x="785" 
d="M709 279c16 -24 24.001 -52 24.001 -84v-11c0 -56.667 -22 -101.5 -66 -134.5s-103.667 -49.5 -179 -49.5h-410v656h391c77.333 0 137.166 -15.167 179.499 -45.5s63.5 -72.833 63.5 -127.5v-11c0 -58.667 -24.333 -104 -73 -136c30.667 -14 54 -33 70 -57zM228.001 525
v-132h240c62 0 93 20.333 93 61v10c0 20 -7.83301 35.167 -23.5 45.5s-38.5 15.5 -68.5 15.5h-241zM580.001 206c0 41.333 -31.333 62 -94 62h-258v-137h258c30 0 53.167 5.66699 69.5 17s24.5 27.333 24.5 48v10z" />
    <glyph glyph-name="C" unicode="C" horiz-adv-x="874" 
d="M235 29c-60 27.333 -106.168 66.1689 -138.501 116.502s-48.5 109.166 -48.5 176.499v11c0 67.333 16.167 126.166 48.5 176.499s78.5 89.333 138.5 117s129.667 41.5 209 41.5c73.333 0 139.166 -12 197.499 -36s104 -57.333 137 -100s49.5 -90.667 49.5 -144v-8h-153v8
c0 27.333 -9.83301 51.666 -29.5 72.999s-47 38 -82 50s-75.167 18 -120.5 18c-79.333 0 -139.5 -16.667 -180.5 -50s-61.5 -81.333 -61.5 -144v-15c0 -63.333 20.333 -111.333 61 -144s101.334 -49 182.001 -49c70 0 126 12.833 168 38.5s63 59.5 63 101.5v7h153v-7
c0 -53.333 -16.5 -101.166 -49.5 -143.499s-78.667 -75.5 -137 -99.5s-124.166 -36 -197.499 -36c-79.333 0 -149 13.667 -209 41z" />
    <glyph glyph-name="D" unicode="D" horiz-adv-x="826" 
d="M405 656c122.667 0 215.5 -27.167 278.5 -81.5s94.5 -134.833 94.5 -241.5v-11c0 -106.667 -31.333 -187 -94 -241s-155.667 -81 -279 -81h-327v656h327zM571.5 180c35.667 30 53.5 76.667 53.5 140v14c0 62.667 -18.333 109.5 -55 140.5s-92 46.5 -166 46.5h-176v-386
h177c75.333 0 130.833 15 166.5 45z" />
    <glyph glyph-name="E" unicode="E" horiz-adv-x="723" 
d="M661 656v-132h-433v-130h413v-131h-413v-131h433v-132h-583v656h583z" />
    <glyph glyph-name="F" unicode="F" horiz-adv-x="704" 
d="M664 656v-135h-436v-139h416v-135h-416v-247h-150v656h586z" />
    <glyph glyph-name="G" unicode="G" horiz-adv-x="879" 
d="M830 360l0.000976562 -359.998h-135l-5 58c-61.333 -46.667 -141.333 -70 -240 -70c-81.333 0 -152.333 13.5 -213 40.5s-107.334 65.667 -140.001 116s-49 109.5 -49 177.5v11c0 67.333 16.5 126.166 49.5 176.499s79.667 89.333 140 117s130.5 41.5 210.5 41.5
c76.667 0 143.667 -9.83301 201 -29.5s101.666 -47.5 132.999 -83.5s47 -78 47 -126v-4h-153v4c0 18 -10.167 34.833 -30.5 50.5s-47.666 28.167 -81.999 37.5s-71.5 14 -111.5 14c-80.667 0 -142.667 -16.833 -186 -50.5s-65 -82.167 -65 -145.5v-15
c0 -64.667 21.167 -113.334 63.5 -146.001s104.833 -49 187.5 -49c50 0 94.5 6.16699 133.5 18.5s71.5 29.5 97.5 51.5v41h-327v124h474z" />
    <glyph glyph-name="H" unicode="H" horiz-adv-x="819" 
d="M228 656v-261h363v261h150v-656h-150v261h-363v-261h-150v656h150z" />
    <glyph glyph-name="I" unicode="I" horiz-adv-x="299" 
d="M225 656v-656h-151v656h151z" />
    <glyph glyph-name="J" unicode="J" horiz-adv-x="749" 
d="M192 24c-48 24 -84.999 58.499 -110.999 103.499s-39 98.167 -39 159.5v36h150v-36c0 -50.667 14.833 -90 44.5 -118s71.5 -42 125.5 -42c112.667 0 169 53 169 159v235h-301v135h451v-368c0 -61.333 -12.833 -114.666 -38.5 -159.999s-62.334 -80 -110.001 -104
s-104.5 -36 -170.5 -36c-65.333 0 -122 12 -170 36z" />
    <glyph glyph-name="K" unicode="K" horiz-adv-x="813" 
d="M767 633l-303 -267l289 -343v-23h-176l-230 274l-119 -104v-170h-150v656h150v-306l349 306h190v-23z" />
    <glyph glyph-name="L" unicode="L" horiz-adv-x="687" 
d="M228 656v-521h445v-135h-595v656h150z" />
    <glyph glyph-name="M" unicode="M" horiz-adv-x="1029" 
d="M951 0h-149v452l-212 -452h-151l-212 454v-454h-149v656h207l230 -487l229 487h207v-656z" />
    <glyph glyph-name="N" unicode="N" horiz-adv-x="819" 
d="M741 656v-656h-144l-375 445v-445h-144v656h144l375 -444v444h144z" />
    <glyph glyph-name="O" unicode="O" horiz-adv-x="877" 
d="M233 29c-58.667 27.333 -104.166 66.333 -136.499 117s-48.5 109.667 -48.5 177v9c0 67.333 16.167 126.333 48.5 177s78 89.834 137 117.501s127.5 41.5 205.5 41.5c78.667 0 147.334 -13.833 206.001 -41.5s104 -66.834 136 -117.501s48 -109.667 48 -177v-9
c0 -67.333 -16 -126.333 -48 -177s-77.333 -89.667 -136 -117s-127.334 -41 -206.001 -41s-147.334 13.667 -206.001 41zM615.501 177c40.333 33.333 60.501 81.333 60.501 144v12c0 62.667 -20.5 111 -61.5 145s-99.5 51 -175.5 51c-76.667 0 -135.5 -17 -176.5 -51
s-61.5 -82.333 -61.5 -145v-12c0 -62.667 20.5 -110.667 61.5 -144s99.833 -50 176.5 -50c77.333 0 136.166 16.667 176.499 50z" />
    <glyph glyph-name="P" unicode="P" horiz-adv-x="787" 
d="M494 656c77.333 0 138.333 -18.668 183 -56.001s67 -88.333 67 -153v-11c0 -65.333 -22.333 -116.666 -67 -153.999s-105.667 -56 -183 -56h-266v-226h-150v656h416zM565 378.499c17.333 13 26 32.167 26 57.5v11c0 24.667 -8.66699 43.5 -26 56.5s-42.333 19.5 -75 19.5
h-262v-164h262c32.667 0 57.667 6.5 75 19.5z" />
    <glyph glyph-name="Q" unicode="Q" horiz-adv-x="877" 
d="M645 626.5c58.667 -27.667 103.998 -66.835 135.998 -117.502s48 -109.667 48 -177v-9c0 -82.667 -23.667 -152.167 -71 -208.5s-112.666 -94.166 -195.999 -113.499l54 -121v-23h-152l-58 132c-72 3.33301 -135 19.333 -189 48s-95.667 67.5 -125 116.5
s-44 105.5 -44 169.5v9c0 67.333 16.167 126.333 48.5 177s78 89.834 137 117.501s127.5 41.5 205.5 41.5c78.667 0 147.334 -13.833 206.001 -41.5zM675.998 332.999c0 62.667 -20.499 111 -61.499 145s-99.5 51 -175.5 51c-76.667 0 -135.5 -17 -176.5 -51
s-61.5 -82.333 -61.5 -145v-12c0 -62.667 20.5 -110.667 61.5 -144s99.833 -50 176.5 -50c77.333 0 136.166 16.667 176.499 50s60.5 81.333 60.5 144v12z" />
    <glyph glyph-name="R" unicode="R" horiz-adv-x="806" 
d="M693.5 302c-33.667 -34 -81.5 -55.333 -143.5 -64l191 -215v-23h-172l-204 235h-137v-235h-150v656h416c78 0 139.167 -18.833 183.5 -56.5s66.5 -89.5 66.5 -155.5v-11c0 -53.333 -16.833 -97 -50.5 -131zM591 447c0 24.667 -8.5 43.5 -25.5 56.5
s-42.167 19.5 -75.5 19.5h-262v-164h262c32.667 0 57.667 6.5 75 19.5s26 32.167 26 57.5v11z" />
    <glyph glyph-name="S" unicode="S" horiz-adv-x="771" 
d="M142 46c-56 38.667 -84 95.335 -84 170.002v10h148v-10c0 -32 16 -56.333 48 -73s78.667 -25 140 -25c54.667 0 96.167 5.83301 124.5 17.5s42.5 28.834 42.5 51.501v7c0 18 -8 31.833 -24 41.5s-44.333 17.5 -85 23.5l-167 24c-144 21.333 -216 80.666 -216 177.999v10
c0 62 27.167 110.333 81.5 145s130.5 52 228.5 52c104 0 183.333 -18.667 238 -56s82 -91.333 82 -162v-9h-148v9c0 58.667 -57.333 88 -172 88c-51.333 0 -90.5 -5.33301 -117.5 -16s-40.5 -26.334 -40.5 -47.001v-8c0 -15.333 7.5 -27.333 22.5 -36
s40.833 -15.667 77.5 -21l168 -24c76.667 -11.333 133.167 -31.833 169.5 -61.5s54.5 -70.834 54.5 -123.501v-10c0 -64 -28.333 -113.833 -85 -149.5s-136.667 -53.5 -240 -53.5c-108 0 -190 19.333 -246 58z" />
    <glyph glyph-name="T" unicode="T" horiz-adv-x="691" 
d="M14 521v135h663v-135h-256v-521h-151v521h-256z" />
    <glyph glyph-name="U" unicode="U" horiz-adv-x="793" 
d="M223.5 26.5c-49.667 25.667 -88 61.834 -115 108.501s-40.5 101 -40.5 163v358h150v-360c0 -54 15.5 -95.667 46.5 -125s74.833 -44 131.5 -44c57.333 0 101.5 14.667 132.5 44s46.5 71 46.5 125v360h150v-358c0 -62 -13.5 -116.333 -40.5 -163
s-65.333 -82.834 -115 -108.501s-107.5 -38.5 -173.5 -38.5c-65.333 0 -122.833 12.833 -172.5 38.5z" />
    <glyph glyph-name="V" unicode="V" horiz-adv-x="770" 
d="M759 656v-23l-287 -633h-174l-287 633v23h154l220 -509l220 509h154z" />
    <glyph glyph-name="W" unicode="W" horiz-adv-x="1175" 
d="M1164 656v-23l-227 -633h-183l-166 466l-165 -466h-183l-229 633v23h153l168 -489l174 489h164l174 -488l167 488h153z" />
    <glyph glyph-name="X" unicode="X" horiz-adv-x="819" 
d="M773 633l-258 -305l258 -305v-23h-176l-187 226l-188 -226h-176v23l258 305l-258 305v23h176l188 -226l188 226h175v-23z" />
    <glyph glyph-name="Y" unicode="Y" horiz-adv-x="726" 
d="M727 656v-23l-288 -378v-255h-151v255l-289 378v23h163l201 -265l201 265h163z" />
    <glyph glyph-name="Z" unicode="Z" horiz-adv-x="696" 
d="M654 522l-412 -388h412v-134h-612v134l412 388h-412v134h612v-134z" />
    <glyph glyph-name="bracketleft" unicode="[" horiz-adv-x="457" 
d="M413 724v-129h-208v-534h208v-129h-335v792h335z" />
    <glyph glyph-name="backslash" unicode="\" horiz-adv-x="703" 
d="M56 724h151l440 -769v-23h-151l-440 769v23z" />
    <glyph glyph-name="bracketright" unicode="]" horiz-adv-x="457" 
d="M44 61h208v534h-208v129h335v-792h-335v129z" />
    <glyph glyph-name="asciicircum" unicode="^" horiz-adv-x="557" 
d="M533 392v-20h-149l-106 153l-105 -153h-149v20l189 264h130z" />
    <glyph glyph-name="underscore" unicode="_" horiz-adv-x="564" 
d="M519 -42v-118h-474v118h474z" />
    <glyph glyph-name="grave" unicode="`" horiz-adv-x="600" 
d="M79 740l441 -67v-120l-441 68v119z" />
    <glyph glyph-name="a" unicode="a" horiz-adv-x="716" 
d="M709 127l-0.000976562 -126.998h-85c-30.667 0 -57.167 5.16699 -79.5 15.5s-39.166 25.166 -50.499 44.499c-50.667 -48 -122.667 -72 -216 -72c-70.667 0 -125.667 13.333 -165 40s-59 64 -59 112c0 40.667 14.667 73.167 44 97.5s72 39.5 128 45.5l247 27
c-8 49.333 -52.667 74 -134 74c-42.667 0 -75.834 -5.83301 -99.501 -17.5s-35.5 -27.834 -35.5 -48.501v-3h-146v3c0 39.333 11.5 73.666 34.5 102.999s55.833 52 98.5 68s92.334 24 149.001 24c88 0 156.5 -19.667 205.5 -59s73.5 -93.666 73.5 -162.999v-124
c0 -26.667 15.333 -40 46 -40h44zM401.499 123.502c33 13 57.167 30.501 72.5 52.501v34l-210 -24c-22 -2.66699 -38.333 -7.33398 -49 -14.001s-16 -16 -16 -28c0 -26.667 29.667 -40 89 -40c42.667 0 80.5 6.5 113.5 19.5z" />
    <glyph glyph-name="b" unicode="b" horiz-adv-x="710" 
d="M538.5 481.5c43 -21 76 -50.833 99 -89.5s34.5 -84 34.5 -136v-10c0 -52 -11.667 -97.5 -35 -136.5s-56.333 -69 -99 -90s-93 -31.5 -151 -31.5c-70.667 0 -129 18.333 -175 55l-4 -43h-135v696h145v-234c46.667 34 103 51 169 51c58 0 108.5 -10.5 151.5 -31.5zM522 256
c0 39.333 -13.668 69.999 -41.001 91.999s-65.666 33 -114.999 33c-31.333 0 -60.166 -5 -86.499 -15s-46.833 -23.667 -61.5 -41v-148c15.333 -17.333 36 -31.166 62 -41.499s54.667 -15.5 86 -15.5c49.333 0 87.666 11 114.999 33s41 53 41 93v10z" />
    <glyph glyph-name="c" unicode="c" horiz-adv-x="670" 
d="M179.5 19c-45.667 20.667 -80.6689 50 -105.002 88s-36.5 83 -36.5 135v13c0 52.667 12.167 98.334 36.5 137.001s59.333 68.5 105 89.5s99.167 31.5 160.5 31.5c56.667 0 107.5 -9.5 152.5 -28.5s80 -45.333 105 -79s37.5 -72.167 37.5 -115.5v-4h-149v4
c0 26.667 -13.5 48.5 -40.5 65.5s-62.167 25.5 -105.5 25.5c-49.333 0 -87 -10.833 -113 -32.5s-39 -53.167 -39 -94.5v-11c0 -40 13 -70.5 39 -91.5s63.667 -31.5 113 -31.5c44 0 79.333 8.16699 106 24.5s40 38.166 40 65.499v4h149v-4
c0 -44 -12.167 -82.833 -36.5 -116.5s-58.666 -59.667 -102.999 -78s-96.166 -27.5 -155.499 -27.5c-61.333 0 -114.833 10.333 -160.5 31z" />
    <glyph glyph-name="d" unicode="d" horiz-adv-x="710" 
d="M637 696v-696h-135l-4 43c-46 -36.667 -104.333 -55 -175 -55c-58 0 -108.333 10.5 -151 31.5s-75.667 51 -99 90s-35 84.5 -35 136.5v10c0 52 11.5 97.333 34.5 136s56 68.5 99 89.5s93.5 31.5 151.5 31.5c66 0 122.333 -17 169 -51v234h145zM430 135.5
c26 10.333 46.666 24.167 61.999 41.5v148c-14.667 17.333 -35.167 31 -61.5 41s-55.166 15 -86.499 15c-49.333 0 -87.666 -11 -114.999 -33s-41 -52.667 -41 -92v-10c0 -40 13.667 -71 41 -93s65.666 -33 114.999 -33c31.333 0 60 5.16699 86 15.5z" />
    <glyph glyph-name="e" unicode="e" horiz-adv-x="671" 
d="M633 208l-446.001 0.000976562c4.66699 -31.333 20 -55.333 46 -72s61 -25 105 -25c40 0 72.667 5.33301 98 16s40 25.334 44 44.001h152c-7.33301 -58.667 -36.5 -103.834 -87.5 -135.501s-119.833 -47.5 -206.5 -47.5c-61.333 0 -114.666 10.167 -159.999 30.5
s-80 49.5 -104 87.5s-36 82.667 -36 134v19c0 52 12.167 97.167 36.5 135.5s59 67.666 104 87.999s98.167 30.5 159.5 30.5c93.333 0 165.833 -22.167 217.5 -66.5s77.5 -106.5 77.5 -186.5v-52zM240.999 371.001c-25.333 -14 -42 -33.667 -50 -59h289
c-8 25.333 -24.333 45 -49 59s-56 21 -94 21c-38.667 0 -70.667 -7 -96 -21z" />
    <glyph glyph-name="f" unicode="f" horiz-adv-x="500" 
d="M501 373h-209.001v-373h-145v373h-155v128h155v28c0 51.333 15.833 92 47.5 122s74.834 45 129.501 45h137v-125h-117c-34.667 0 -52 -16.333 -52 -49v-21h209v-128z" />
    <glyph glyph-name="g" unicode="g" horiz-adv-x="709" 
d="M636 501v-445c0 -160 -99 -239.333 -297 -238c-94 0 -167.333 17 -220 51s-79 81.333 -79 142v6h148v-6c0 -19.333 14 -35.333 42 -48s63.333 -19 106 -19c50.667 0 89.167 9.16699 115.5 27.5s39.5 44.833 39.5 79.5v26c-46.667 -31.333 -101.667 -47 -165 -47
c-92.667 0 -164 20 -214 60s-75 97.333 -75 172v10c0 76 25.333 135.167 76 177.5s121.667 63.5 213 63.5c68 0 125.333 -17 172 -51l3 39h135zM429 169c26.667 10 47.333 23.668 62 41.001v117c-14.667 17.333 -35.5 31.333 -62.5 42s-56.167 16 -87.5 16
c-102.667 0 -154 -37.667 -154 -113v-10c0 -36.667 12.5 -63.834 37.5 -81.501s63.833 -26.5 116.5 -26.5c32 0 61.333 5 88 15z" />
    <glyph glyph-name="h" unicode="h" horiz-adv-x="711" 
d="M578 445.5c44.667 -45 66.9971 -111.166 66.9971 -198.499v-247h-145v247c0 43.333 -11.833 76.5 -35.5 99.5s-58.167 34.5 -103.5 34.5c-31.333 0 -59.666 -7.33301 -84.999 -22s-44.666 -34.334 -57.999 -59.001v-300h-145v696h145v-238c44.667 36.667 99 55 163 55
c86.667 0 152.334 -22.5 197.001 -67.5z" />
    <glyph glyph-name="i" unicode="i" horiz-adv-x="286" 
d="M215 501v-501h-144v501h144zM78 582.5c-16.667 15.667 -24.998 36.167 -24.998 61.5s8.33301 45.833 25 61.5s38.334 23.5 65.001 23.5c27.333 0 49.166 -7.83301 65.499 -23.5s24.5 -36.167 24.5 -61.5s-8.33301 -45.833 -25 -61.5s-38.334 -23.5 -65.001 -23.5
s-48.334 7.83301 -65.001 23.5z" />
    <glyph glyph-name="j" unicode="j" horiz-adv-x="286" 
d="M8 -43c20.667 0 36.333 4.99902 47 14.999s16 24.667 16 44v485h144v-494c0 -53.333 -17.5 -96.166 -52.5 -128.499s-81.5 -48.5 -139.5 -48.5h-91v127h76zM77.999 582.499c-16.667 15.667 -24.998 36.167 -24.998 61.5s8.33301 45.833 25 61.5s38.334 23.5 65.001 23.5
c27.333 0 49.166 -7.83301 65.499 -23.5s24.5 -36.167 24.5 -61.5s-8.33301 -45.833 -25 -61.5s-38.334 -23.5 -65.001 -23.5s-48.334 7.83301 -65.001 23.5z" />
    <glyph glyph-name="k" unicode="k" horiz-adv-x="681" 
d="M669 20v-20h-171l-170 196l-110 -97v-99h-145v696h145v-424l264 229h176v-21l-221 -195z" />
    <glyph glyph-name="l" unicode="l" horiz-adv-x="319" 
d="M115 38.5c-29.333 25.667 -44.001 61.499 -44.001 107.499v550h144v-524c0 -15.333 4 -26.666 12 -33.999s21 -11 39 -11h43v-127h-70c-53.333 -0 -94.666 12.833 -123.999 38.5z" />
    <glyph glyph-name="m" unicode="m" horiz-adv-x="1108" 
d="M980 445.5c44 -45 66 -110.833 66 -197.5v-248h-145v248c0 42.667 -11 75.5 -33 98.5s-53.333 34.5 -94 34.5c-32 0 -61 -7.66699 -87 -23s-45.667 -36 -59 -62c1.33301 -20 2 -36 2 -48v-248h-145v248c0 42.667 -10.833 75.5 -32.5 98.5s-52.834 34.5 -93.501 34.5
c-31.333 0 -59.666 -7.33301 -84.999 -22s-45 -34.667 -59 -60v-299h-145v501h135l4 -48c46 40 102.667 60 170 60c94.667 0 162.667 -29.333 204 -88c51.333 58.667 119.333 88 204 88s149 -22.5 193 -67.5z" />
    <glyph glyph-name="n" unicode="n" horiz-adv-x="711" 
d="M578 446c44.667 -44.667 66.9971 -111 66.9971 -199v-247h-145v247c0 43.333 -11.833 76.5 -35.5 99.5s-58.167 34.5 -103.5 34.5c-31.333 0 -59.666 -7.16699 -84.999 -21.5s-44.666 -33.833 -57.999 -58.5v-301h-145v501h135l4 -48c44 38.667 100.333 58.667 169 60
c86.667 0 152.334 -22.333 197.001 -67z" />
    <glyph glyph-name="o" unicode="o" horiz-adv-x="685" 
d="M181 18.5c-46 20.333 -81.333 49.666 -106 87.999s-37 83.5 -37 135.5v13c0 53.333 12.167 99.333 36.5 138s59.5 68.334 105.5 89.001s100.667 31 164 31c62.667 0 116.667 -10.333 162 -31s80.166 -50.334 104.499 -89.001s36.5 -84.667 36.5 -138v-13
c0 -52 -12.167 -97.167 -36.5 -135.5s-59.166 -67.666 -104.499 -87.999s-99.333 -30.5 -162 -30.5s-117 10.167 -163 30.5zM456.5 152c27 21.333 40.5 51.666 40.5 90.999v11c0 40.667 -13.333 72 -40 94s-64.667 33 -114 33c-50 0 -88.333 -10.833 -115 -32.5
s-40 -53.167 -40 -94.5v-11c0 -39.333 13.5 -69.666 40.5 -90.999s65.167 -32 114.5 -32c48.667 0 86.5 10.667 113.5 32z" />
    <glyph glyph-name="p" unicode="p" horiz-adv-x="710" 
d="M535 481.5c44 -21 77.835 -51 101.502 -90s35.5 -84.167 35.5 -135.5v-10c0 -51.333 -12 -96.5 -36 -135.5s-57.833 -69.167 -101.5 -90.5s-94.834 -32 -153.501 -32c-64 0 -118.333 16.333 -163 49v-207h-145v671h135l4 -43c47.333 36.667 103.666 55 168.999 55
c58.667 0 110 -10.5 154 -31.5zM522.002 256c0 39.333 -13.665 70 -40.998 92s-65.333 33 -114 33c-32 0 -61.167 -4.83301 -87.5 -14.5s-46.833 -23.167 -61.5 -40.5v-150c15.333 -17.333 36.166 -31 62.499 -41s55.166 -15 86.499 -15c48.667 0 86.667 11 114 33
s41 53 41 93v10z" />
    <glyph glyph-name="q" unicode="q" horiz-adv-x="710" 
d="M637 501l0.00195312 -671h-145v207c-44.667 -32.667 -99 -49 -163 -49c-58.667 0 -109.834 10.667 -153.501 32s-77.5 51.5 -101.5 90.5s-36 84.167 -36 135.5v10c0 51.333 11.833 96.5 35.5 135.5s57.5 69 101.5 90s95.333 31.5 154 31.5
c65.333 0 121.666 -18.333 168.999 -55l4 43h135zM429.502 135c26.333 10 47.168 23.667 62.501 41v150c-14.667 17.333 -35.167 30.833 -61.5 40.5s-55.5 14.5 -87.5 14.5c-48.667 0 -86.667 -11 -114 -33s-41 -52.667 -41 -92v-10c0 -40 13.667 -71 41 -93
s65.333 -33 114 -33c31.333 0 60.166 5 86.499 15z" />
    <glyph glyph-name="r" unicode="r" horiz-adv-x="473" 
d="M459 501v-128h-112c-62.667 0 -106.667 -15.667 -132 -47v-326h-144v501h135l4 -46c42 30.667 94 46 156 46h93z" />
    <glyph glyph-name="s" unicode="s" horiz-adv-x="688" 
d="M129.5 32.5c-52.333 29.667 -78.5029 71.833 -78.5029 126.5v5h139v-5c0 -18.667 12.667 -32.167 38 -40.5s66.333 -12.5 123 -12.5c93.333 0 140 13.333 140 40v5c0 10 -6 17.667 -18 23s-33.667 9.33301 -65 12l-129 13c-74 7.33301 -128 22.666 -162 45.999
s-51 56.333 -51 99v10c0 50 24.833 89 74.5 117s118.834 42 207.501 42c92 0 162.667 -14.667 212 -44s74 -71.666 74 -126.999v-6h-139v6c0 18.667 -11.833 32.167 -35.5 40.5s-62.167 12.5 -115.5 12.5c-43.333 0 -76.666 -3 -99.999 -9s-35 -14.667 -35 -26v-6
c0 -10 5.5 -17.667 16.5 -23s29.167 -9.33301 54.5 -12l131 -13c78.667 -8 135.834 -23.667 171.501 -47s53.5 -57 53.5 -101v-10c0 -50.667 -25.333 -90 -76 -118s-121 -42 -211 -42c-94 0 -167.167 14.833 -219.5 44.5z" />
    <glyph glyph-name="t" unicode="t" horiz-adv-x="520" 
d="M304 373v-190c0 -18 5.16699 -31.833 15.5 -41.5s25.166 -14.5 44.499 -14.5h118v-127h-137c-57.333 0 -102.666 15.5 -135.999 46.5s-50 73.167 -50 126.5v200h-167v128h134c14 0 23.667 2.66699 29 8s8 15 8 29v96h141v-133h208v-128h-208z" />
    <glyph glyph-name="u" unicode="u" horiz-adv-x="711" 
d="M638 501l0.00195312 -501h-135l-4 48c-44 -38.667 -100.333 -58.667 -169 -60c-86 -0.666992 -151.5 21.5 -196.5 66.5s-67.5 111.5 -67.5 199.5v247h145v-247c0 -43.333 11.833 -76.5 35.5 -99.5s58.167 -34.5 103.5 -34.5c31.333 0 59.666 7.16699 84.999 21.5
s44.666 33.833 57.999 58.5v301h145z" />
    <glyph glyph-name="v" unicode="v" horiz-adv-x="697" 
d="M678 501v-21l-235 -480h-188l-236 480v21h152l178 -370l177 370h152z" />
    <glyph glyph-name="w" unicode="w" horiz-adv-x="1067" 
d="M1048 501v-21l-195 -480h-190l-130 318l-129 -318h-189l-196 480v21h155l136 -364l148 364h149l151 -370l142 370h148z" />
    <glyph glyph-name="x" unicode="x" horiz-adv-x="656" 
d="M637 20v-20h-169l-140 161l-140 -161h-169v20l211 232l-207 228v21h168l137 -158l139 158h164v-21l-206 -228z" />
    <glyph glyph-name="y" unicode="y" horiz-adv-x="697" 
d="M678 501v-21l-265 -530c-21.333 -42 -47.666 -72.5 -78.999 -91.5s-73.333 -28.5 -126 -28.5h-131v127h124c18 0 32.167 2.16699 42.5 6.5s19.166 12.5 26.499 24.5l-251 492v21h154l177 -361l174 361h154z" />
    <glyph glyph-name="z" unicode="z" horiz-adv-x="642" 
d="M582 378l-326 -255h326v-123h-522v123l325 254h-325v124h522v-123z" />
    <glyph glyph-name="braceleft" unicode="{" horiz-adv-x="544" 
d="M219 328c60.667 -12 91 -52.665 91 -121.998v-96c0 -15.333 5.33301 -27.333 16 -36s25.667 -13 45 -13h129v-129h-156c-34.667 0 -65.5 6.83301 -92.5 20.5s-48.167 32.667 -63.5 57s-23 52.166 -23 83.499v121c0 15.333 -5.33301 27.333 -16 36s-25.334 13 -44.001 13
h-72v130h72c18.667 0 33.334 4.33301 44.001 13s16 20.667 16 36v121c0 31.333 7.66699 59.166 23 83.499s36.5 43.333 63.5 57s57.833 20.5 92.5 20.5h156v-129h-129c-19.333 0 -34.333 -4.16699 -45 -12.5s-16 -20.5 -16 -36.5v-96c0 -69.333 -30.333 -110 -91 -122z" />
    <glyph glyph-name="bar" unicode="|" horiz-adv-x="308" 
d="M218 724v-792h-128v792h128z" />
    <glyph glyph-name="braceright" unicode="}" horiz-adv-x="544" 
d="M511 393v-130.002h-72c-18.667 0 -33.334 -4.33301 -44.001 -13s-16 -20.667 -16 -36v-121c0 -31.333 -7.66699 -59.166 -23 -83.499s-36.5 -43.333 -63.5 -57s-57.833 -20.5 -92.5 -20.5h-156v129h129c19.333 0 34.333 4.16699 45 12.5s16 20.5 16 36.5v96
c0 69.333 30.333 110 91 122c-60.667 12 -91 52.667 -91 122v96c0 15.333 -5.33301 27.333 -16 36s-25.667 13 -45 13h-129v129h156c34.667 0 65.5 -6.83301 92.5 -20.5s48.167 -32.667 63.5 -57s23 -52.166 23 -83.499v-121c0 -15.333 5.33301 -27.333 16 -36
s25.334 -13 44.001 -13h72z" />
    <glyph glyph-name="asciitilde" unicode="~" horiz-adv-x="816" 
d="M486 238.5c-23.333 4.33301 -51.9971 10.832 -85.9971 19.499c-30.667 8 -57.334 14.167 -80.001 18.5s-46 6.5 -70 6.5c-48 0 -97.667 -12.333 -149 -37v134c51.333 26 101.333 39 150 39c23.333 0 45.666 -2.16699 66.999 -6.5s48.666 -10.833 81.999 -19.5
c36 -9.33301 65.5 -16.166 88.5 -20.499s47.167 -6.5 72.5 -6.5c51.333 0 102.666 11.333 153.999 34v-134c-50 -22.667 -102 -34 -156 -34c-25.333 0 -49.666 2.16699 -72.999 6.5z" />
    <glyph glyph-name="uni00A0" unicode="&#xa0;" horiz-adv-x="400" 
 />
    <glyph glyph-name="exclamdown" unicode="&#xa1;" horiz-adv-x="352" 
d="M113.5 368.5c-16.333 15.667 -24.5 35.834 -24.5 60.501s8.16699 44.834 24.5 60.501s37.166 23.5 62.499 23.5s46.166 -7.83301 62.499 -23.5s24.5 -35.834 24.5 -60.501s-8.16699 -44.834 -24.5 -60.501s-37.166 -23.5 -62.499 -23.5s-46.166 7.83301 -62.499 23.5z
M243 288l9 -458h-152l8 458h135z" />
    <glyph glyph-name="cent" unicode="&#xa2;" horiz-adv-x="816" 
d="M588 364l0.000976562 4.99902c0 27.333 -15.833 48.833 -47.5 64.5s-75.167 23.5 -130.5 23.5c-120.667 0 -181 -39.667 -181 -119v-20c0 -79.333 61 -119 183 -119c55.333 0 98.5 7.66699 129.5 23s46.5 37 46.5 65v5h149v-5c0 -60 -23 -109.167 -69 -147.5
s-109 -61.833 -189 -70.5v-79h-140v79c-81.333 10.667 -144.833 37.834 -190.5 81.501s-68.5 99.5 -68.5 167.5v20c0 68.667 23.167 125 69.5 169s110.5 70.667 192.5 80v79h134v-79c79.333 -9.33301 142.666 -33.5 189.999 -72.5s71 -87.5 71 -145.5v-5h-149z" />
    <glyph glyph-name="sterling" unicode="&#xa3;" horiz-adv-x="816" 
d="M627 413l-0.000976562 7c0 39.333 -12.5 68.666 -37.5 87.999s-63.167 29 -114.5 29c-104 0 -156 -34.667 -156 -104v-74h266v-123h-266v-31c0 -32 -8.33301 -59 -25 -81h480v-124h-715v124h39c24.667 0 42.5 5.33301 53.5 16s16.5 27.334 16.5 50.001v46h-109v123h109
v77c0 73.333 27 130.333 81 171s129.667 61 227 61c98.667 0 173.334 -21 224.001 -63s76 -103.667 76 -185v-7h-149z" />
    <glyph glyph-name="currency" unicode="&#xa4;" horiz-adv-x="816" 
d="M647 215l101 -102.001l-101 -91l-101 108c-38.667 -16 -84.667 -24 -138 -24c-54 0 -100 8 -138 24l-102 -107l-101 90l101 102c-16.667 30 -25 63.667 -25 101v10c0 38.667 8.33301 73 25 103l-100 103l100 91l102 -107c38 16 84 24 138 24
c52.667 0 98.667 -8.33301 138 -25l101 108l101 -91l-101 -103c16.667 -31.333 25 -65.666 25 -102.999v-10c0 -37.333 -8.33301 -71 -25 -101zM495 253.999c20.667 14.667 31 35.667 31 63v9c0 28.667 -10.167 50.5 -30.5 65.5s-49.5 22.5 -87.5 22.5
s-67.333 -7.66699 -88 -23s-31 -37 -31 -65v-9c0 -26.667 10.5 -47.5 31.5 -62.5s50.167 -22.5 87.5 -22.5s66.333 7.33301 87 22z" />
    <glyph glyph-name="yen" unicode="&#xa5;" horiz-adv-x="816" 
d="M772 633l-212 -271h163v-117h-239v-62h239v-117h-239v-66h-151v66h-239v117h239v62h-239v117h162l-212 271v23h162l202 -261l202 261h162v-23z" />
    <glyph glyph-name="brokenbar" unicode="&#xa6;" horiz-adv-x="308" 
d="M218 724v-265h-128v265h128zM218 198v-266h-128v266h128z" />
    <glyph glyph-name="section" unicode="&#xa7;" horiz-adv-x="690" 
d="M607 415.5c26.667 -21.667 39.998 -49.499 39.998 -83.499v-14c0 -20 -5.33301 -38.333 -16 -55s-26 -31 -46 -43c17.333 -19.333 26 -41.333 26 -66v-15c0 -46.667 -24 -83.5 -72 -110.5s-113.667 -40.5 -197 -40.5c-85.333 0 -152.833 14.167 -202.5 42.5
s-74.5 66.833 -74.5 115.5v7h139v-7c0 -33.333 47.333 -50 142 -50c82.667 0 124 12.333 124 37v7c0 8.66699 -3.66699 15 -11 19s-21.666 7.33301 -42.999 10l-217 29c-50.667 6.66699 -89.334 21 -116.001 43s-40 50 -40 84v13c0 40 20.333 72.667 61 98
c-16.667 20 -25 42 -25 66v15c0 46.667 24 83.5 72 110.5s113.667 40.5 197 40.5c85.333 0 152.833 -14.167 202.5 -42.5s74.5 -66.833 74.5 -115.5v-7h-139v7c0 33.333 -47.333 50 -142 50c-82.667 0 -124 -12.333 -124 -37v-6c0 -8.66699 3.83301 -15.167 11.5 -19.5
s21.834 -7.83301 42.501 -10.5l217 -29c50.667 -6.66699 89.334 -20.834 116.001 -42.501zM469.998 277.001c9.33301 -1.33301 16.665 -2.66602 21.998 -3.99902c10.667 8 16 18.333 16 31v7c0 11.333 -4.66699 19.833 -14 25.5s-25.666 10.167 -48.999 13.5l-225 29
c-10.667 1.33301 -18 2.66602 -22 3.99902c-10.667 -8.66699 -16 -19 -16 -31v-7c0 -10.667 4.83301 -19 14.5 -25s25.834 -10.667 48.501 -14z" />
    <glyph glyph-name="dieresis" unicode="&#xa8;" horiz-adv-x="600" 
d="M109 585.5c-16 15 -24 34.167 -24 57.5c0 24 8 43.333 24 58s36.667 22 62 22c24 0 43.833 -7.33301 59.5 -22s23.5 -34 23.5 -58c0 -23.333 -7.83301 -42.5 -23.5 -57.5s-35.5 -22.5 -59.5 -22.5c-25.333 0 -46 7.5 -62 22.5zM369 585.5
c-16 15 -23.998 34.167 -23.998 57.5c0 24 7.83301 43.333 23.5 58s36.167 22 61.5 22s45.666 -7.33301 60.999 -22s23 -34 23 -58c0 -23.333 -7.83301 -42.5 -23.5 -57.5s-35.834 -22.5 -60.501 -22.5s-45 7.5 -61 22.5z" />
    <glyph glyph-name="copyright" unicode="&#xa9;" horiz-adv-x="897" 
d="M235.5 29c-61 27.333 -107.999 66 -140.999 116s-49.5 108.333 -49.5 175v15c0 67.333 16.5 126.166 49.5 176.499s80 89 141 116s132.167 40.5 213.5 40.5s152.5 -13.5 213.5 -40.5s107.833 -65.667 140.5 -116s49 -109.166 49 -176.499v-15
c0 -67.333 -16.333 -126 -49 -176s-79.334 -88.5 -140.001 -115.5s-132 -40.5 -214 -40.5c-81.333 0 -152.5 13.667 -213.5 41zM605.501 108c44.333 20 78.666 48.167 102.999 84.5s36.5 78.833 36.5 127.5v15c0 48.667 -12.167 91.334 -36.5 128.001
s-58.666 65 -102.999 85s-96.166 30 -155.499 30s-111.5 -10 -156.5 -30s-79.833 -48.333 -104.5 -85s-37 -79 -37 -127v-14c0 -48.667 12.333 -91.334 37 -128.001s59.667 -65.167 105 -85.5s97.666 -30.5 156.999 -30.5c58.667 0 110.167 10 154.5 30zM332.501 162.5
c-34.333 15 -60.834 36.165 -79.501 63.498s-28 59 -28 95v15c0 35.333 9.33301 66.833 28 94.5s45 49 79 64s73 22.5 117 22.5c42.667 0 81 -6.83301 115 -20.5s60.5 -32.667 79.5 -57s28.5 -51.833 28.5 -82.5v-4h-115v4c0 17.333 -9.66699 31.5 -29 42.5
s-45 16.5 -77 16.5c-36 0 -63.333 -6.83301 -82 -20.5s-28 -33.5 -28 -59.5v-15c0 -24.667 10 -44.167 30 -58.5s47.333 -21.5 82 -21.5c32.667 0 58.167 5.16699 76.5 15.5s27.5 24.833 27.5 43.5v4h115v-4c0 -31.333 -9.33301 -59.166 -28 -83.499
s-44.667 -43.166 -78 -56.499s-71.333 -20 -114 -20c-45.333 0 -85.166 7.5 -119.499 22.5z" />
    <glyph glyph-name="ordfeminine" unicode="&#xaa;" horiz-adv-x="606" 
d="M601 356l0.00195312 -111h-74c-48.667 0 -84.667 14.667 -108 44c-42.667 -36.667 -103.334 -55 -182.001 -55c-62.667 0 -111.5 11.167 -146.5 33.5s-52.5 53.166 -52.5 92.499c0 33.333 12.667 60 38 80s61.666 32.667 108.999 38l211 23
c-3.33301 19.333 -14.333 33.5 -33 42.5s-46 13.5 -82 13.5c-35.333 0 -62.833 -4.66699 -82.5 -14s-29.5 -22 -29.5 -38v-3h-128v3c0 48.667 21.833 87.167 65.5 115.5s102.5 42.5 176.5 42.5c76.667 0 136.167 -16.167 178.5 -48.5s63.5 -77.166 63.5 -134.499v-95
c0 -19.333 12.667 -29 38 -29h38zM334.502 343c28.333 10 49.501 23.667 63.501 41v31l-178 -19c-37.333 -4 -56 -15.667 -56 -35c0 -22 25 -33 75 -33c35.333 0 67.166 5 95.499 15z" />
    <glyph glyph-name="guillemotleft" unicode="&#xab;" horiz-adv-x="809" 
d="M237 277l205 -202v-21h-164l-219 213v21l219 213h164v-21zM534 277l206 -202v-21h-165l-218 213v21l218 213h165v-21z" />
    <glyph glyph-name="logicalnot" unicode="&#xac;" horiz-adv-x="816" 
d="M101 261v134h614v-329h-127v195h-487z" />
    <glyph glyph-name="uni00AD" unicode="&#xad;" horiz-adv-x="442" 
d="M392 342v-129h-342v129h342z" />
    <glyph glyph-name="registered" unicode="&#xae;" horiz-adv-x="581" 
d="M423.5 681.5c37.667 -17.667 66.668 -42.668 87.001 -75.001s30.5 -70.5 30.5 -114.5v-8c0 -43.333 -10.167 -81.333 -30.5 -114s-49.5 -57.667 -87.5 -75s-82 -26 -132 -26c-50.667 0 -94.834 8.66699 -132.501 26s-66.834 42.333 -87.501 75s-31 70.667 -31 114v8
c0 43.333 10.333 81.333 31 114s50 57.834 88 75.501s82 26.5 132 26.5c50.667 0 94.834 -8.83301 132.501 -26.5zM457.001 494.999c0 46 -14.167 80.999 -42.5 104.999s-69.5 36 -123.5 36s-95.5 -12.167 -124.5 -36.5s-43.5 -59.166 -43.5 -104.499v-13
c0 -45.333 14.5 -80.166 43.5 -104.499s70.5 -36.5 124.5 -36.5c53.333 0 94.333 12.167 123 36.5s43 59.166 43 104.499v13zM390.001 570.998c14.667 -12.667 22.001 -30.333 22.001 -53v-5c0 -15.333 -3.33301 -28.5 -10 -39.5s-16.334 -19.167 -29.001 -24.5l38 -54v-7
h-88l-35 53h-29v-53h-83v202h154c25.333 0 45.333 -6.33301 60 -19zM259.002 493.999h47c6.66699 0 12 1.5 16 4.5s6 7.5 6 13.5v4c0 5.33301 -2 9.5 -6 12.5s-9.33301 4.5 -16 4.5h-47v-39z" />
    <glyph glyph-name="macron" unicode="&#xaf;" horiz-adv-x="600" 
d="M520 704v-120h-441v120h441z" />
    <glyph glyph-name="degree" unicode="&#xb0;" horiz-adv-x="446" 
d="M126.5 348c-29 14 -51.667 33.334 -68 58.001s-24.5 53 -24.5 85v13c0 31.333 8.16699 59.5 24.5 84.5s39 44.333 68 58s61.833 20.5 98.5 20.5c55.333 0 100.333 -15.333 135 -46s52 -70.334 52 -119.001v-11c0 -49.333 -17.167 -89 -51.5 -119s-79.5 -45 -135.5 -45
c-36.667 0 -69.5 7 -98.5 21zM278.5 448.001c13.667 11.333 20.5 26.333 20.5 45v10c0 18.667 -6.83301 33.667 -20.5 45s-31.834 17 -54.501 17c-23.333 0 -41.833 -5.66699 -55.5 -17s-20.5 -26.333 -20.5 -45v-11c0 -18.667 7 -33.5 21 -44.5s32.333 -16.5 55 -16.5
s40.834 5.66699 54.501 17z" />
    <glyph glyph-name="plusminus" unicode="&#xb1;" horiz-adv-x="816" 
d="M705 471v-128h-230v-147h-134v147h-230v128h230v149h134v-149h230zM111 136h594v-132h-594v132z" />
    <glyph glyph-name="uni00B2" unicode="&#xb2;" 
d="M297 548c28.667 12.667 48.501 23.5 59.501 32.5s16.5 18.833 16.5 29.5v5c0 14 -8 24.667 -24 32s-39 11 -69 11c-32 0 -56.667 -4.66699 -74 -14s-26 -22.666 -26 -39.999v-12h-128v12c0 52 19.5 91.833 58.5 119.5s94.833 41.5 167.5 41.5
c70.667 0 126.167 -12.5 166.5 -37.5s60.5 -59.167 60.5 -102.5v-8c0 -30 -10.833 -56.333 -32.5 -79s-56.834 -44.334 -105.501 -65.001l-71 -30h217v-100h-461v97z" />
    <glyph glyph-name="uni00B3" unicode="&#xb3;" 
d="M38 480l-0.000976562 3h129v-3c0 -26.667 37 -40 111 -40c73.333 0 110 12 110 36v5c0 10.667 -8.66699 18.5 -26 23.5s-45.666 7.5 -84.999 7.5h-91v77l122 63h-261v105h460v-105l-127 -63l14 -2c84 -12.667 126 -49.667 126 -111v-7c0 -44 -20.5 -77.333 -61.5 -100
s-101.167 -34 -180.5 -34c-160 0 -240 48.333 -240 145z" />
    <glyph glyph-name="acute" unicode="&#xb4;" horiz-adv-x="600" 
d="M520 739v-119l-441 -67v119z" />
    <glyph glyph-name="uni00B5" unicode="&#xb5;" horiz-adv-x="740" 
d="M736 127l-0.00195312 -127h-86c-31.333 0 -58.333 5.16699 -81 15.5s-40 25.166 -52 44.499c-17.333 -23.333 -39.666 -41.166 -66.999 -53.499s-58.333 -18.5 -93 -18.5c-56 0 -102.333 14.667 -139 44v-202h-145v671h145v-247c0 -42.667 11.667 -75.667 35 -99
s56.666 -35 99.999 -35c32.667 0 61.334 6.83301 86.001 20.5s44.334 33.167 59.001 58.5v302h144v-332c0 -28 16.333 -42 49 -42h45z" />
    <glyph glyph-name="paragraph" unicode="&#xb6;" horiz-adv-x="967" 
d="M658 0h-143v232h-222c-78 0 -139.167 18.167 -183.5 54.5s-66.5 86.833 -66.5 151.5v12c0 64 22.167 114.333 66.5 151s105.5 55 183.5 55h365v-656zM889 656v-656h-143v656h143z" />
    <glyph glyph-name="periodcentered" unicode="&#xb7;" horiz-adv-x="334" 
d="M104.5 215.5c-16.333 15.667 -24.5 35.832 -24.5 60.499s8.16699 44.834 24.5 60.501s37.166 23.5 62.499 23.5c26 0 47 -7.83301 63 -23.5s24 -35.834 24 -60.501c0 -25.333 -8 -45.666 -24 -60.999s-37 -23 -63 -23c-25.333 0 -46.166 7.83301 -62.499 23.5z" />
    <glyph glyph-name="cedilla" unicode="&#xb8;" horiz-adv-x="600" 
d="M402 0l-48 -170h-157l63 220z" />
    <glyph glyph-name="uni00B9" unicode="&#xb9;" 
d="M253 450v170.001c-17.333 -5.33301 -36 -8 -56 -8h-120v109h118c20.667 0 35.5 2.66699 44.5 8s13.5 14.666 13.5 27.999h132v-307h153v-106h-461v106h176z" />
    <glyph glyph-name="ordmasculine" unicode="&#xba;" horiz-adv-x="575" 
d="M148 259.5c-39.333 17 -69.667 41.167 -91 72.5s-32 68 -32 110v11c0 65.333 23.333 116.666 70 153.999s111 56 193 56c81.333 0 145.166 -18.667 191.499 -56s69.5 -88.666 69.5 -153.999v-10c0 -64.667 -23.167 -115.667 -69.5 -153s-110.166 -56 -191.499 -56
c-54 0 -100.667 8.5 -140 25.5zM384.499 374c23 16.667 34.5 40 34.5 70v7c0 31.333 -11.333 55.333 -34 72s-55 25 -97 25c-42.667 0 -75.5 -8.33301 -98.5 -25s-34.5 -41 -34.5 -73v-7c0 -30 11.667 -53.167 35 -69.5s56 -24.5 98 -24.5c41.333 0 73.5 8.33301 96.5 25z
" />
    <glyph glyph-name="guillemotright" unicode="&#xbb;" horiz-adv-x="809" 
d="M275 277l-206 203v21h165l218 -213v-21l-218 -213h-165v20zM572 277l-205 203v21h164l219 -213v-21l-219 -213h-164v20z" />
    <glyph glyph-name="onequarter" unicode="&#xbc;" horiz-adv-x="1408" 
d="M253 350v170.001c-17.333 -5.33301 -36 -8 -56 -8h-120v109h118c20.667 0 35.5 2.66699 44.5 8s13.5 14.666 13.5 27.999h132v-307h153v-106h-461v106h176zM956 656.001h142v-23l-577 -633h-142v20zM878 72.001v105.998c46.667 74.667 79 153.334 97 236.001h138v-19
c-21.333 -83.333 -49 -155.666 -83 -216.999h144v166h133v-166h88v-106h-88v-72h-133v72h-296z" />
    <glyph glyph-name="onehalf" unicode="&#xbd;" horiz-adv-x="1418" 
d="M253 350v170.001c-17.333 -5.33301 -36 -8 -56 -8h-120v109h118c20.667 0 35.5 2.66699 44.5 8s13.5 14.666 13.5 27.999h132v-307h153v-106h-461v106h176zM956 656.001h142v-23l-577 -633h-142v20zM1161 205.001c28.667 12.667 48.501 23.5 59.501 32.5
s16.5 18.833 16.5 29.5v5c0 14 -8 24.667 -24 32s-39 11 -69 11c-32 0 -56.667 -4.66699 -74 -14s-26 -22.666 -26 -39.999v-12h-128v12c0 52 19.5 91.833 58.5 119.5s94.833 41.5 167.5 41.5c70.667 0 126.167 -12.5 166.5 -37.5s60.5 -59.167 60.5 -102.5v-8
c0 -30 -10.833 -56.333 -32.5 -79s-56.834 -44.334 -105.501 -65.001l-71 -30h217v-100h-461v97z" />
    <glyph glyph-name="threequarters" unicode="&#xbe;" horiz-adv-x="1359" 
d="M38 380l-0.000976562 3h129v-3c0 -26.667 37 -40 111 -40c73.333 0 110 12 110 36v5c0 10.667 -8.66699 18.5 -26 23.5s-45.666 7.5 -84.999 7.5h-91v77l122 63h-261v105h460v-105l-127 -63l14 -2c84 -12.667 126 -49.667 126 -111v-7c0 -44 -20.5 -77.333 -61.5 -100
s-101.167 -34 -180.5 -34c-160 0 -240 48.333 -240 145zM906.999 656h142v-23l-577 -633h-142v20zM828.999 72v105.998c46.667 74.667 79 153.334 97 236.001h138v-19c-21.333 -83.333 -49 -155.666 -83 -216.999h144v166h133v-166h88v-106h-88v-72h-133v72h-296z" />
    <glyph glyph-name="questiondown" unicode="&#xbf;" horiz-adv-x="632" 
d="M257 368c-16 15.333 -24 35.6699 -24 61.0029s8 45.666 24 60.999s37 23 63 23c25.333 0 46 -7.83301 62 -23.5s24 -35.834 24 -60.501s-8 -44.834 -24 -60.501s-36.667 -23.5 -62 -23.5c-26 0 -47 7.66699 -63 23zM176 -156.496c-42 17 -74.833 40.335 -98.5 70.002
s-35.5 63.167 -35.5 100.5v15c0 32.667 9.16699 61.5 27.5 86.5s47.833 48.5 88.5 70.5c28.667 14.667 49.334 26.167 62.001 34.5s21.167 16 25.5 23s6.5 15.833 6.5 26.5v18h135v-18c0 -36.667 -7.5 -65.334 -22.5 -86.001s-43.167 -41.334 -84.5 -62.001
c-36.667 -20.667 -61 -37 -73 -49s-18 -26.333 -18 -43v-9c0 -23.333 11.167 -41.666 33.5 -54.999s53.5 -20 93.5 -20c43.333 0 77.333 8.33301 102 25s37 39.667 37 69v20h141v-20c0 -68.667 -24.833 -122.834 -74.5 -162.501s-117.834 -59.5 -204.501 -59.5
c-52 0 -99 8.5 -141 25.5z" />
    <glyph glyph-name="Agrave" unicode="&#xc0;" horiz-adv-x="770" 
d="M759 23v-23h-150l-60 136h-328l-60 -136h-150v23l291 633h166zM492 266l-107 244l-107 -244h214zM165 895l441 -67v-120l-441 68v119z" />
    <glyph glyph-name="Aacute" unicode="&#xc1;" horiz-adv-x="770" 
d="M759 23v-23h-150l-60 136h-328l-60 -136h-150v23l291 633h166zM492 266l-107 244l-107 -244h214zM606 894v-119l-441 -67v119z" />
    <glyph glyph-name="Acircumflex" unicode="&#xc2;" horiz-adv-x="770" 
d="M759 23v-23h-150l-60 136h-328l-60 -136h-150v23l291 633h166zM492 266l-107 244l-107 -244h214zM385 894l221 -64v-122l-221 63l-220 -63v122z" />
    <glyph glyph-name="Atilde" unicode="&#xc3;" horiz-adv-x="770" 
d="M759 23v-23h-150l-60 136h-328l-60 -136h-150v23l291 633h166zM492 266l-107 244l-107 -244h214zM421 732c-23.333 4.66699 -37.0029 7.33496 -41.0029 8.00195c-42.667 10 -77 15 -103 15c-38 0 -75.333 -9 -112 -27v118c38.667 18.667 76.667 28 114 28
c16 0 31.333 -1.33301 46 -4s33.667 -6.66699 57 -12c4 -0.666992 13.667 -2.83398 29 -6.50098s29.833 -6.33398 43.5 -8.00098s26.5 -2.5 38.5 -2.5c38.667 0 76.334 8.33301 113.001 25v-118c-35.333 -15.333 -73.666 -23 -114.999 -23
c-23.333 0 -46.666 2.33301 -69.999 7z" />
    <glyph glyph-name="Adieresis" unicode="&#xc4;" horiz-adv-x="770" 
d="M759 23v-23h-150l-60 136h-328l-60 -136h-150v23l291 633h166zM492 266l-107 244l-107 -244h214zM194 740.5c-16 15 -24 34.167 -24 57.5c0 24 8 43.333 24 58s36.667 22 62 22c24 0 43.833 -7.33301 59.5 -22s23.5 -34 23.5 -58c0 -23.333 -7.83301 -42.5 -23.5 -57.5
s-35.5 -22.5 -59.5 -22.5c-25.333 0 -46 7.5 -62 22.5zM454 740.5c-16 15 -23.998 34.167 -23.998 57.5c0 24 7.83301 43.333 23.5 58s36.167 22 61.5 22s45.666 -7.33301 60.999 -22s23 -34 23 -58c0 -23.333 -7.83301 -42.5 -23.5 -57.5s-35.834 -22.5 -60.501 -22.5
s-45 7.5 -61 22.5z" />
    <glyph glyph-name="Aring" unicode="&#xc5;" horiz-adv-x="770" 
d="M759 23v-23h-150l-60 136h-328l-60 -136h-150v23l291 633h166zM492 266l-107 244l-107 -244h214zM258 653c-30 23.333 -45 56.666 -45 99.999c0 42.667 15.5 76 46.5 100s72.833 36 125.5 36s94.5 -12 125.5 -36s46.5 -57.333 46.5 -100
c0 -43.333 -15 -76.666 -45 -99.999s-72.333 -35 -127 -35s-97 11.667 -127 35zM429 717.5c10 8.33301 15 20.166 15 35.499c0 16 -5.16699 28.167 -15.5 36.5s-24.833 12.5 -43.5 12.5s-33.167 -4.33301 -43.5 -13s-15.5 -20.667 -15.5 -36s5.16699 -27.166 15.5 -35.499
s24.833 -12.5 43.5 -12.5c19.333 0 34 4.16699 44 12.5z" />
    <glyph glyph-name="AE" unicode="&#xc6;" horiz-adv-x="1072" 
d="M573 524l29 -130h388v-131h-359l29 -131h350v-132h-475l-30 136h-283l-61 -136h-150v23l291 633h708v-132h-437zM421 524h-26l-115 -258h197z" />
    <glyph glyph-name="Ccedilla" unicode="&#xc7;" horiz-adv-x="874" 
d="M235 29c-60 27.333 -106.168 66.1689 -138.501 116.502s-48.5 109.166 -48.5 176.499v11c0 67.333 16.167 126.166 48.5 176.499s78.5 89.333 138.5 117s129.667 41.5 209 41.5c73.333 0 139.166 -12 197.499 -36s104 -57.333 137 -100s49.5 -90.667 49.5 -144v-8h-153v8
c0 27.333 -9.83301 51.666 -29.5 72.999s-47 38 -82 50s-75.167 18 -120.5 18c-79.333 0 -139.5 -16.667 -180.5 -50s-61.5 -81.333 -61.5 -144v-15c0 -63.333 20.333 -111.333 61 -144s101.334 -49 182.001 -49c70 0 126 12.833 168 38.5s63 59.5 63 101.5v7h153v-7
c0 -53.333 -16.5 -101.166 -49.5 -143.499s-78.667 -75.5 -137 -99.5s-124.166 -36 -197.499 -36c-79.333 0 -149 13.667 -209 41zM522.999 0.00292969l-48 -170h-157l63 220z" />
    <glyph glyph-name="Egrave" unicode="&#xc8;" horiz-adv-x="723" 
d="M661 656v-132h-433v-130h413v-131h-413v-131h433v-132h-583v656h583zM149 895l441 -67v-120l-441 68v119z" />
    <glyph glyph-name="Eacute" unicode="&#xc9;" horiz-adv-x="723" 
d="M661 656v-132h-433v-130h413v-131h-413v-131h433v-132h-583v656h583zM590 894v-119l-441 -67v119z" />
    <glyph glyph-name="Ecircumflex" unicode="&#xca;" horiz-adv-x="723" 
d="M661 656v-132h-433v-130h413v-131h-413v-131h433v-132h-583v656h583zM369 894l221 -64v-122l-221 63l-220 -63v122z" />
    <glyph glyph-name="Edieresis" unicode="&#xcb;" horiz-adv-x="723" 
d="M661 656v-132h-433v-130h413v-131h-413v-131h433v-132h-583v656h583zM178 740.5c-16 15 -24 34.167 -24 57.5c0 24 8 43.333 24 58s36.667 22 62 22c24 0 43.833 -7.33301 59.5 -22s23.5 -34 23.5 -58c0 -23.333 -7.83301 -42.5 -23.5 -57.5s-35.5 -22.5 -59.5 -22.5
c-25.333 0 -46 7.5 -62 22.5zM438 740.5c-16 15 -23.998 34.167 -23.998 57.5c0 24 7.83301 43.333 23.5 58s36.167 22 61.5 22s45.666 -7.33301 60.999 -22s23 -34 23 -58c0 -23.333 -7.83301 -42.5 -23.5 -57.5s-35.834 -22.5 -60.501 -22.5s-45 7.5 -61 22.5z" />
    <glyph glyph-name="Igrave" unicode="&#xcc;" horiz-adv-x="299" 
d="M225 656v-656h-151v656h151zM3 885l294 -47v-119l-294 46v120z" />
    <glyph glyph-name="Iacute" unicode="&#xcd;" horiz-adv-x="299" 
d="M225 656v-656h-151v656h151zM297 884v-119l-294 -46v118z" />
    <glyph glyph-name="Icircumflex" unicode="&#xce;" horiz-adv-x="299" 
d="M225 656v-656h-151v656h151zM150 885l147 -35v-124l-147 36l-147 -36v124z" />
    <glyph glyph-name="Idieresis" unicode="&#xcf;" horiz-adv-x="299" 
d="M225 656v-656h-151v656h151zM-41 740.5c-16 15 -24 34.167 -24 57.5c0 24 8 43.333 24 58s36.667 22 62 22c24 0 43.833 -7.33301 59.5 -22s23.5 -34 23.5 -58c0 -23.333 -7.83301 -42.5 -23.5 -57.5s-35.5 -22.5 -59.5 -22.5c-25.333 0 -46 7.5 -62 22.5zM219 740.5
c-16 15 -23.998 34.167 -23.998 57.5c0 24 7.83301 43.333 23.5 58s36.167 22 61.5 22s45.666 -7.33301 60.999 -22s23 -34 23 -58c0 -23.333 -7.83301 -42.5 -23.5 -57.5s-35.834 -22.5 -60.501 -22.5s-45 7.5 -61 22.5z" />
    <glyph glyph-name="Eth" unicode="&#xd0;" horiz-adv-x="859" 
d="M716.5 574.5c63 -54.333 94.5 -134.833 94.5 -241.5v-11c0 -106.667 -31.333 -187 -94 -241s-155.667 -81 -279 -81h-327v263h-114v130h114v263h327c122.667 0 215.5 -27.167 278.5 -81.5zM658 334c0 62.667 -18.333 109.5 -55 140.5s-92 46.5 -166 46.5h-176v-128h171
v-130h-171v-128h177c75.333 0 130.833 15 166.5 45s53.5 76.667 53.5 140v14z" />
    <glyph glyph-name="Ntilde" unicode="&#xd1;" horiz-adv-x="819" 
d="M741 656v-656h-144l-375 445v-445h-144v656h144l375 -444v444h144zM446 732c-23.333 4.66699 -37.0029 7.33496 -41.0029 8.00195c-42.667 10 -77 15 -103 15c-38 0 -75.333 -9 -112 -27v118c38.667 18.667 76.667 28 114 28c16 0 31.333 -1.33301 46 -4
s33.667 -6.66699 57 -12c4 -0.666992 13.667 -2.83398 29 -6.50098s29.833 -6.33398 43.5 -8.00098s26.5 -2.5 38.5 -2.5c38.667 0 76.334 8.33301 113.001 25v-118c-35.333 -15.333 -73.666 -23 -114.999 -23c-23.333 0 -46.666 2.33301 -69.999 7z" />
    <glyph glyph-name="Ograve" unicode="&#xd2;" horiz-adv-x="877" 
d="M233 29c-58.667 27.333 -104.166 66.333 -136.499 117s-48.5 109.667 -48.5 177v9c0 67.333 16.167 126.333 48.5 177s78 89.834 137 117.501s127.5 41.5 205.5 41.5c78.667 0 147.334 -13.833 206.001 -41.5s104 -66.834 136 -117.501s48 -109.667 48 -177v-9
c0 -67.333 -16 -126.333 -48 -177s-77.333 -89.667 -136 -117s-127.334 -41 -206.001 -41s-147.334 13.667 -206.001 41zM615.501 177c40.333 33.333 60.501 81.333 60.501 144v12c0 62.667 -20.5 111 -61.5 145s-99.5 51 -175.5 51c-76.667 0 -135.5 -17 -176.5 -51
s-61.5 -82.333 -61.5 -145v-12c0 -62.667 20.5 -110.667 61.5 -144s99.833 -50 176.5 -50c77.333 0 136.166 16.667 176.499 50zM220.002 895l441 -67v-120l-441 68v119z" />
    <glyph glyph-name="Oacute" unicode="&#xd3;" horiz-adv-x="877" 
d="M233 29c-58.667 27.333 -104.166 66.333 -136.499 117s-48.5 109.667 -48.5 177v9c0 67.333 16.167 126.333 48.5 177s78 89.834 137 117.501s127.5 41.5 205.5 41.5c78.667 0 147.334 -13.833 206.001 -41.5s104 -66.834 136 -117.501s48 -109.667 48 -177v-9
c0 -67.333 -16 -126.333 -48 -177s-77.333 -89.667 -136 -117s-127.334 -41 -206.001 -41s-147.334 13.667 -206.001 41zM615.501 177c40.333 33.333 60.501 81.333 60.501 144v12c0 62.667 -20.5 111 -61.5 145s-99.5 51 -175.5 51c-76.667 0 -135.5 -17 -176.5 -51
s-61.5 -82.333 -61.5 -145v-12c0 -62.667 20.5 -110.667 61.5 -144s99.833 -50 176.5 -50c77.333 0 136.166 16.667 176.499 50zM661.002 894v-119l-441 -67v119z" />
    <glyph glyph-name="Ocircumflex" unicode="&#xd4;" horiz-adv-x="877" 
d="M233 29c-58.667 27.333 -104.166 66.333 -136.499 117s-48.5 109.667 -48.5 177v9c0 67.333 16.167 126.333 48.5 177s78 89.834 137 117.501s127.5 41.5 205.5 41.5c78.667 0 147.334 -13.833 206.001 -41.5s104 -66.834 136 -117.501s48 -109.667 48 -177v-9
c0 -67.333 -16 -126.333 -48 -177s-77.333 -89.667 -136 -117s-127.334 -41 -206.001 -41s-147.334 13.667 -206.001 41zM615.501 177c40.333 33.333 60.501 81.333 60.501 144v12c0 62.667 -20.5 111 -61.5 145s-99.5 51 -175.5 51c-76.667 0 -135.5 -17 -176.5 -51
s-61.5 -82.333 -61.5 -145v-12c0 -62.667 20.5 -110.667 61.5 -144s99.833 -50 176.5 -50c77.333 0 136.166 16.667 176.499 50zM440.002 894l221 -64v-122l-221 63l-220 -63v122z" />
    <glyph glyph-name="Otilde" unicode="&#xd5;" horiz-adv-x="877" 
d="M233 29c-58.667 27.333 -104.166 66.333 -136.499 117s-48.5 109.667 -48.5 177v9c0 67.333 16.167 126.333 48.5 177s78 89.834 137 117.501s127.5 41.5 205.5 41.5c78.667 0 147.334 -13.833 206.001 -41.5s104 -66.834 136 -117.501s48 -109.667 48 -177v-9
c0 -67.333 -16 -126.333 -48 -177s-77.333 -89.667 -136 -117s-127.334 -41 -206.001 -41s-147.334 13.667 -206.001 41zM615.501 177c40.333 33.333 60.501 81.333 60.501 144v12c0 62.667 -20.5 111 -61.5 145s-99.5 51 -175.5 51c-76.667 0 -135.5 -17 -176.5 -51
s-61.5 -82.333 -61.5 -145v-12c0 -62.667 20.5 -110.667 61.5 -144s99.833 -50 176.5 -50c77.333 0 136.166 16.667 176.499 50zM476.002 732c-23.333 4.66699 -37.0029 7.33496 -41.0029 8.00195c-42.667 10 -77 15 -103 15c-38 0 -75.333 -9 -112 -27v118
c38.667 18.667 76.667 28 114 28c16 0 31.333 -1.33301 46 -4s33.667 -6.66699 57 -12c4 -0.666992 13.667 -2.83398 29 -6.50098s29.833 -6.33398 43.5 -8.00098s26.5 -2.5 38.5 -2.5c38.667 0 76.334 8.33301 113.001 25v-118c-35.333 -15.333 -73.666 -23 -114.999 -23
c-23.333 0 -46.666 2.33301 -69.999 7z" />
    <glyph glyph-name="Odieresis" unicode="&#xd6;" horiz-adv-x="877" 
d="M233 29c-58.667 27.333 -104.166 66.333 -136.499 117s-48.5 109.667 -48.5 177v9c0 67.333 16.167 126.333 48.5 177s78 89.834 137 117.501s127.5 41.5 205.5 41.5c78.667 0 147.334 -13.833 206.001 -41.5s104 -66.834 136 -117.501s48 -109.667 48 -177v-9
c0 -67.333 -16 -126.333 -48 -177s-77.333 -89.667 -136 -117s-127.334 -41 -206.001 -41s-147.334 13.667 -206.001 41zM615.501 177c40.333 33.333 60.501 81.333 60.501 144v12c0 62.667 -20.5 111 -61.5 145s-99.5 51 -175.5 51c-76.667 0 -135.5 -17 -176.5 -51
s-61.5 -82.333 -61.5 -145v-12c0 -62.667 20.5 -110.667 61.5 -144s99.833 -50 176.5 -50c77.333 0 136.166 16.667 176.499 50zM249.002 740.5c-16 15 -24 34.167 -24 57.5c0 24 8 43.333 24 58s36.667 22 62 22c24 0 43.833 -7.33301 59.5 -22s23.5 -34 23.5 -58
c0 -23.333 -7.83301 -42.5 -23.5 -57.5s-35.5 -22.5 -59.5 -22.5c-25.333 0 -46 7.5 -62 22.5zM509.002 740.5c-16 15 -23.998 34.167 -23.998 57.5c0 24 7.83301 43.333 23.5 58s36.167 22 61.5 22s45.666 -7.33301 60.999 -22s23 -34 23 -58
c0 -23.333 -7.83301 -42.5 -23.5 -57.5s-35.834 -22.5 -60.501 -22.5s-45 7.5 -61 22.5z" />
    <glyph glyph-name="multiply" unicode="&#xd7;" horiz-adv-x="816" 
d="M504 328l186 -186l-96 -96l-186 186l-186 -186l-96 96l186 186l-186 186l96 96l186 -186l186 186l96 -96z" />
    <glyph glyph-name="Oslash" unicode="&#xd8;" horiz-adv-x="877" 
d="M794 486.5c23.333 -45.667 35 -97.168 35 -154.501v-9c0 -68 -16 -127.167 -48 -177.5s-77.333 -89.166 -136 -116.499s-127.334 -41 -206.001 -41c-46 0 -86.667 4.33301 -122 13l-43 -69h-155v23l63 103c-42.667 29.333 -75.667 66.666 -99 111.999s-35 96.333 -35 153
v9c0 67.333 16.167 126.333 48.5 177s78 89.834 137 117.501s127.5 41.5 205.5 41.5c44.667 0 85.334 -4.33301 122.001 -13l42 69h156v-23l-64 -102c42.667 -29.333 75.667 -66.833 99 -112.5zM201 319.999c0 -64.667 19.999 -113.668 59.999 -147.001l227 359
c-15.333 2 -31.666 3 -48.999 3c-77.333 0 -136.333 -17.167 -177 -51.5s-61 -84.166 -61 -149.499v-14zM675.999 333.998c0 65.333 -19.999 115 -59.999 149l-226 -359c16 -2 32.333 -3 49 -3c77.333 0 136.166 16.833 176.499 50.5s60.5 83.167 60.5 148.5v14z" />
    <glyph glyph-name="Ugrave" unicode="&#xd9;" horiz-adv-x="793" 
d="M223.5 26.5c-49.667 25.667 -88 61.834 -115 108.501s-40.5 101 -40.5 163v358h150v-360c0 -54 15.5 -95.667 46.5 -125s74.833 -44 131.5 -44c57.333 0 101.5 14.667 132.5 44s46.5 71 46.5 125v360h150v-358c0 -62 -13.5 -116.333 -40.5 -163
s-65.333 -82.834 -115 -108.501s-107.5 -38.5 -173.5 -38.5c-65.333 0 -122.833 12.833 -172.5 38.5zM177 895l441 -67v-120l-441 68v119z" />
    <glyph glyph-name="Uacute" unicode="&#xda;" horiz-adv-x="793" 
d="M223.5 26.5c-49.667 25.667 -88 61.834 -115 108.501s-40.5 101 -40.5 163v358h150v-360c0 -54 15.5 -95.667 46.5 -125s74.833 -44 131.5 -44c57.333 0 101.5 14.667 132.5 44s46.5 71 46.5 125v360h150v-358c0 -62 -13.5 -116.333 -40.5 -163
s-65.333 -82.834 -115 -108.501s-107.5 -38.5 -173.5 -38.5c-65.333 0 -122.833 12.833 -172.5 38.5zM618 894v-119l-441 -67v119z" />
    <glyph glyph-name="Ucircumflex" unicode="&#xdb;" horiz-adv-x="793" 
d="M223.5 26.5c-49.667 25.667 -88 61.834 -115 108.501s-40.5 101 -40.5 163v358h150v-360c0 -54 15.5 -95.667 46.5 -125s74.833 -44 131.5 -44c57.333 0 101.5 14.667 132.5 44s46.5 71 46.5 125v360h150v-358c0 -62 -13.5 -116.333 -40.5 -163
s-65.333 -82.834 -115 -108.501s-107.5 -38.5 -173.5 -38.5c-65.333 0 -122.833 12.833 -172.5 38.5zM397 894l221 -64v-122l-221 63l-220 -63v122z" />
    <glyph glyph-name="Udieresis" unicode="&#xdc;" horiz-adv-x="793" 
d="M223.5 26.5c-49.667 25.667 -88 61.834 -115 108.501s-40.5 101 -40.5 163v358h150v-360c0 -54 15.5 -95.667 46.5 -125s74.833 -44 131.5 -44c57.333 0 101.5 14.667 132.5 44s46.5 71 46.5 125v360h150v-358c0 -62 -13.5 -116.333 -40.5 -163
s-65.333 -82.834 -115 -108.501s-107.5 -38.5 -173.5 -38.5c-65.333 0 -122.833 12.833 -172.5 38.5zM206 740.5c-16 15 -24 34.167 -24 57.5c0 24 8 43.333 24 58s36.667 22 62 22c24 0 43.833 -7.33301 59.5 -22s23.5 -34 23.5 -58c0 -23.333 -7.83301 -42.5 -23.5 -57.5
s-35.5 -22.5 -59.5 -22.5c-25.333 0 -46 7.5 -62 22.5zM466 740.5c-16 15 -23.998 34.167 -23.998 57.5c0 24 7.83301 43.333 23.5 58s36.167 22 61.5 22s45.666 -7.33301 60.999 -22s23 -34 23 -58c0 -23.333 -7.83301 -42.5 -23.5 -57.5s-35.834 -22.5 -60.501 -22.5
s-45 7.5 -61 22.5z" />
    <glyph glyph-name="Yacute" unicode="&#xdd;" horiz-adv-x="726" 
d="M727 656v-23l-288 -378v-255h-151v255l-289 378v23h163l201 -265l201 265h163zM584 894v-119l-441 -67v119z" />
    <glyph glyph-name="Thorn" unicode="&#xde;" horiz-adv-x="787" 
d="M677.5 486.5c44.333 -37 66.5 -87.833 66.5 -152.5v-11c0 -64.667 -22.167 -115.5 -66.5 -152.5s-105.5 -55.5 -183.5 -55.5h-266v-115h-150v656h150v-114h266c78 0 139.167 -18.5 183.5 -55.5zM591 334c0 24.667 -8.66699 43.332 -26 55.999s-42.333 19 -75 19h-262
v-161h262c32.667 0 57.667 6.33301 75 19s26 31.334 26 56.001v11z" />
    <glyph glyph-name="germandbls" unicode="&#xdf;" horiz-adv-x="723" 
d="M661 287.5c16 -25.667 24 -55.833 24 -90.5v-9c0 -36 -9.16699 -68.333 -27.5 -97s-44.5 -51 -78.5 -67s-73.667 -24 -119 -24h-119v127h95c33.333 0 58.833 6.33301 76.5 19s26.5 31 26.5 55v6c0 44.667 -35.667 67 -107 67h-89v122h64c31.333 0 55.833 7 73.5 21
s26.5 33.667 26.5 59v11c0 28.667 -12 50.667 -36 66s-57.667 23 -101 23c-100.667 0 -151 -36.333 -151 -109v-467h-146l1 469c0 48.667 12 91 36 127s58.333 63.667 103 83s97.667 29 159 29c56.667 0 106 -8.66699 148 -26s74.5 -42 97.5 -74s34.5 -69.333 34.5 -112v-18
c0 -54 -20.333 -97 -61 -129c30.667 -15.333 54 -35.833 70 -61.5z" />
    <glyph glyph-name="agrave" unicode="&#xe0;" horiz-adv-x="716" 
d="M709 127l-0.000976562 -126.998h-85c-30.667 0 -57.167 5.16699 -79.5 15.5s-39.166 25.166 -50.499 44.499c-50.667 -48 -122.667 -72 -216 -72c-70.667 0 -125.667 13.333 -165 40s-59 64 -59 112c0 40.667 14.667 73.167 44 97.5s72 39.5 128 45.5l247 27
c-8 49.333 -52.667 74 -134 74c-42.667 0 -75.834 -5.83301 -99.501 -17.5s-35.5 -27.834 -35.5 -48.501v-3h-146v3c0 39.333 11.5 73.666 34.5 102.999s55.833 52 98.5 68s92.334 24 149.001 24c88 0 156.5 -19.667 205.5 -59s73.5 -93.666 73.5 -162.999v-124
c0 -26.667 15.333 -40 46 -40h44zM401.499 123.502c33 13 57.167 30.501 72.5 52.501v34l-210 -24c-22 -2.66699 -38.333 -7.33398 -49 -14.001s-16 -16 -16 -28c0 -26.667 29.667 -40 89 -40c42.667 0 80.5 6.5 113.5 19.5zM120.999 740.003l441 -67v-120l-441 68v119z" />
    <glyph glyph-name="aacute" unicode="&#xe1;" horiz-adv-x="716" 
d="M709 127l-0.000976562 -126.998h-85c-30.667 0 -57.167 5.16699 -79.5 15.5s-39.166 25.166 -50.499 44.499c-50.667 -48 -122.667 -72 -216 -72c-70.667 0 -125.667 13.333 -165 40s-59 64 -59 112c0 40.667 14.667 73.167 44 97.5s72 39.5 128 45.5l247 27
c-8 49.333 -52.667 74 -134 74c-42.667 0 -75.834 -5.83301 -99.501 -17.5s-35.5 -27.834 -35.5 -48.501v-3h-146v3c0 39.333 11.5 73.666 34.5 102.999s55.833 52 98.5 68s92.334 24 149.001 24c88 0 156.5 -19.667 205.5 -59s73.5 -93.666 73.5 -162.999v-124
c0 -26.667 15.333 -40 46 -40h44zM401.499 123.502c33 13 57.167 30.501 72.5 52.501v34l-210 -24c-22 -2.66699 -38.333 -7.33398 -49 -14.001s-16 -16 -16 -28c0 -26.667 29.667 -40 89 -40c42.667 0 80.5 6.5 113.5 19.5zM561.999 739.003v-119l-441 -67v119z" />
    <glyph glyph-name="acircumflex" unicode="&#xe2;" horiz-adv-x="716" 
d="M709 127l-0.000976562 -126.998h-85c-30.667 0 -57.167 5.16699 -79.5 15.5s-39.166 25.166 -50.499 44.499c-50.667 -48 -122.667 -72 -216 -72c-70.667 0 -125.667 13.333 -165 40s-59 64 -59 112c0 40.667 14.667 73.167 44 97.5s72 39.5 128 45.5l247 27
c-8 49.333 -52.667 74 -134 74c-42.667 0 -75.834 -5.83301 -99.501 -17.5s-35.5 -27.834 -35.5 -48.501v-3h-146v3c0 39.333 11.5 73.666 34.5 102.999s55.833 52 98.5 68s92.334 24 149.001 24c88 0 156.5 -19.667 205.5 -59s73.5 -93.666 73.5 -162.999v-124
c0 -26.667 15.333 -40 46 -40h44zM401.499 123.502c33 13 57.167 30.501 72.5 52.501v34l-210 -24c-22 -2.66699 -38.333 -7.33398 -49 -14.001s-16 -16 -16 -28c0 -26.667 29.667 -40 89 -40c42.667 0 80.5 6.5 113.5 19.5zM340.999 739.003l221 -64v-122l-221 63l-220 -63
v122z" />
    <glyph glyph-name="atilde" unicode="&#xe3;" horiz-adv-x="716" 
d="M709 127l-0.000976562 -126.998h-85c-30.667 0 -57.167 5.16699 -79.5 15.5s-39.166 25.166 -50.499 44.499c-50.667 -48 -122.667 -72 -216 -72c-70.667 0 -125.667 13.333 -165 40s-59 64 -59 112c0 40.667 14.667 73.167 44 97.5s72 39.5 128 45.5l247 27
c-8 49.333 -52.667 74 -134 74c-42.667 0 -75.834 -5.83301 -99.501 -17.5s-35.5 -27.834 -35.5 -48.501v-3h-146v3c0 39.333 11.5 73.666 34.5 102.999s55.833 52 98.5 68s92.334 24 149.001 24c88 0 156.5 -19.667 205.5 -59s73.5 -93.666 73.5 -162.999v-124
c0 -26.667 15.333 -40 46 -40h44zM401.499 123.502c33 13 57.167 30.501 72.5 52.501v34l-210 -24c-22 -2.66699 -38.333 -7.33398 -49 -14.001s-16 -16 -16 -28c0 -26.667 29.667 -40 89 -40c42.667 0 80.5 6.5 113.5 19.5zM376.999 577.003
c-23.333 4.66699 -37.0029 7.33496 -41.0029 8.00195c-42.667 10 -77 15 -103 15c-38 0 -75.333 -9 -112 -27v118c38.667 18.667 76.667 28 114 28c16 0 31.333 -1.33301 46 -4s33.667 -6.66699 57 -12c4 -0.666992 13.667 -2.83398 29 -6.50098
s29.833 -6.33398 43.5 -8.00098s26.5 -2.5 38.5 -2.5c38.667 0 76.334 8.33301 113.001 25v-118c-35.333 -15.333 -73.666 -23 -114.999 -23c-23.333 0 -46.666 2.33301 -69.999 7z" />
    <glyph glyph-name="adieresis" unicode="&#xe4;" horiz-adv-x="716" 
d="M709 127l-0.000976562 -126.998h-85c-30.667 0 -57.167 5.16699 -79.5 15.5s-39.166 25.166 -50.499 44.499c-50.667 -48 -122.667 -72 -216 -72c-70.667 0 -125.667 13.333 -165 40s-59 64 -59 112c0 40.667 14.667 73.167 44 97.5s72 39.5 128 45.5l247 27
c-8 49.333 -52.667 74 -134 74c-42.667 0 -75.834 -5.83301 -99.501 -17.5s-35.5 -27.834 -35.5 -48.501v-3h-146v3c0 39.333 11.5 73.666 34.5 102.999s55.833 52 98.5 68s92.334 24 149.001 24c88 0 156.5 -19.667 205.5 -59s73.5 -93.666 73.5 -162.999v-124
c0 -26.667 15.333 -40 46 -40h44zM401.499 123.502c33 13 57.167 30.501 72.5 52.501v34l-210 -24c-22 -2.66699 -38.333 -7.33398 -49 -14.001s-16 -16 -16 -28c0 -26.667 29.667 -40 89 -40c42.667 0 80.5 6.5 113.5 19.5zM149.999 585.503c-16 15 -24 34.167 -24 57.5
c0 24 8 43.333 24 58s36.667 22 62 22c24 0 43.833 -7.33301 59.5 -22s23.5 -34 23.5 -58c0 -23.333 -7.83301 -42.5 -23.5 -57.5s-35.5 -22.5 -59.5 -22.5c-25.333 0 -46 7.5 -62 22.5zM409.999 585.503c-16 15 -23.998 34.167 -23.998 57.5c0 24 7.83301 43.333 23.5 58
s36.167 22 61.5 22s45.666 -7.33301 60.999 -22s23 -34 23 -58c0 -23.333 -7.83301 -42.5 -23.5 -57.5s-35.834 -22.5 -60.501 -22.5s-45 7.5 -61 22.5z" />
    <glyph glyph-name="aring" unicode="&#xe5;" horiz-adv-x="716" 
d="M709 127l-0.000976562 -126.998h-85c-30.667 0 -57.167 5.16699 -79.5 15.5s-39.166 25.166 -50.499 44.499c-50.667 -48 -122.667 -72 -216 -72c-70.667 0 -125.667 13.333 -165 40s-59 64 -59 112c0 40.667 14.667 73.167 44 97.5s72 39.5 128 45.5l247 27
c-8 49.333 -52.667 74 -134 74c-42.667 0 -75.834 -5.83301 -99.501 -17.5s-35.5 -27.834 -35.5 -48.501v-3h-146v3c0 39.333 11.5 73.666 34.5 102.999s55.833 52 98.5 68s92.334 24 149.001 24c88 0 156.5 -19.667 205.5 -59s73.5 -93.666 73.5 -162.999v-124
c0 -26.667 15.333 -40 46 -40h44zM401.499 123.502c33 13 57.167 30.501 72.5 52.501v34l-210 -24c-22 -2.66699 -38.333 -7.33398 -49 -14.001s-16 -16 -16 -28c0 -26.667 29.667 -40 89 -40c42.667 0 80.5 6.5 113.5 19.5zM213.999 577.003
c-30 23.333 -45 56.666 -45 99.999c0 42.667 15.5 76 46.5 100s72.833 36 125.5 36s94.5 -12 125.5 -36s46.5 -57.333 46.5 -100c0 -43.333 -15 -76.666 -45 -99.999s-72.333 -35 -127 -35s-97 11.667 -127 35zM384.999 641.503c10 8.33301 15 20.166 15 35.499
c0 16 -5.16699 28.167 -15.5 36.5s-24.833 12.5 -43.5 12.5s-33.167 -4.33301 -43.5 -13s-15.5 -20.667 -15.5 -36s5.16699 -27.166 15.5 -35.499s24.833 -12.5 43.5 -12.5c19.333 0 34 4.16699 44 12.5z" />
    <glyph glyph-name="ae" unicode="&#xe6;" horiz-adv-x="1098" 
d="M1060 207l-442.002 0.00195312c4.66699 -32 19.834 -56.333 45.501 -73s61.167 -25 106.5 -25c38.667 0 70.5 5.66699 95.5 17s39.167 26.333 42.5 45h151c-6.66699 -57.333 -35 -102.166 -85 -134.499s-115.667 -48.5 -197 -48.5c-54 0 -101.667 7.16699 -143 21.5
s-75 35.5 -101 63.5c-26 -27.333 -60 -48.333 -102 -63s-90.333 -22 -145 -22c-73.333 0 -130.333 13.167 -171 39.5s-61 63.166 -61 110.499c0 40.667 14.833 73.5 44.5 98.5s72.167 40.5 127.5 46.5l246 27c-4.66699 24 -19 42.333 -43 55s-56.667 19 -98 19
c-39.333 0 -70.166 -5.83301 -92.499 -17.5s-33.5 -27.834 -33.5 -48.501v-3h-147v3c0 39.333 11.5 73.666 34.5 102.999s55.833 52 98.5 68s92.334 24 149.001 24c99.333 0 170.666 -25.667 213.999 -77c49.333 51.333 122 77 218 77c90 0 160.5 -22.167 211.5 -66.5
s76.5 -105.5 76.5 -183.5v-56zM671.998 371.002c-25.333 -14 -42 -34 -50 -60h286c-7.33301 26 -23 46 -47 60s-55 21 -93 21c-38.667 0 -70.667 -7 -96 -21zM401.998 123.502c35.333 13 61.335 30.499 78.002 52.499c-2.66699 12.667 -4.33398 23.334 -5.00098 32.001
l-205 -23c-47.333 -5.33301 -71 -20 -71 -44c0 -24.667 27.333 -37 82 -37c45.333 0 85.666 6.5 120.999 19.5z" />
    <glyph glyph-name="ccedilla" unicode="&#xe7;" horiz-adv-x="670" 
d="M179.5 19c-45.667 20.667 -80.6689 50 -105.002 88s-36.5 83 -36.5 135v13c0 52.667 12.167 98.334 36.5 137.001s59.333 68.5 105 89.5s99.167 31.5 160.5 31.5c56.667 0 107.5 -9.5 152.5 -28.5s80 -45.333 105 -79s37.5 -72.167 37.5 -115.5v-4h-149v4
c0 26.667 -13.5 48.5 -40.5 65.5s-62.167 25.5 -105.5 25.5c-49.333 0 -87 -10.833 -113 -32.5s-39 -53.167 -39 -94.5v-11c0 -40 13 -70.5 39 -91.5s63.667 -31.5 113 -31.5c44 0 79.333 8.16699 106 24.5s40 38.166 40 65.499v4h149v-4
c0 -44 -12.167 -82.833 -36.5 -116.5s-58.666 -59.667 -102.999 -78s-96.166 -27.5 -155.499 -27.5c-61.333 0 -114.833 10.333 -160.5 31zM407.998 0l-48 -170h-157l63 220z" />
    <glyph glyph-name="egrave" unicode="&#xe8;" horiz-adv-x="671" 
d="M633 208l-446.001 0.000976562c4.66699 -31.333 20 -55.333 46 -72s61 -25 105 -25c40 0 72.667 5.33301 98 16s40 25.334 44 44.001h152c-7.33301 -58.667 -36.5 -103.834 -87.5 -135.501s-119.833 -47.5 -206.5 -47.5c-61.333 0 -114.666 10.167 -159.999 30.5
s-80 49.5 -104 87.5s-36 82.667 -36 134v19c0 52 12.167 97.167 36.5 135.5s59 67.666 104 87.999s98.167 30.5 159.5 30.5c93.333 0 165.833 -22.167 217.5 -66.5s77.5 -106.5 77.5 -186.5v-52zM240.999 371.001c-25.333 -14 -42 -33.667 -50 -59h289
c-8 25.333 -24.333 45 -49 59s-56 21 -94 21c-38.667 0 -70.667 -7 -96 -21zM115.999 740.001l441 -67v-120l-441 68v119z" />
    <glyph glyph-name="eacute" unicode="&#xe9;" horiz-adv-x="671" 
d="M633 208l-446.001 0.000976562c4.66699 -31.333 20 -55.333 46 -72s61 -25 105 -25c40 0 72.667 5.33301 98 16s40 25.334 44 44.001h152c-7.33301 -58.667 -36.5 -103.834 -87.5 -135.501s-119.833 -47.5 -206.5 -47.5c-61.333 0 -114.666 10.167 -159.999 30.5
s-80 49.5 -104 87.5s-36 82.667 -36 134v19c0 52 12.167 97.167 36.5 135.5s59 67.666 104 87.999s98.167 30.5 159.5 30.5c93.333 0 165.833 -22.167 217.5 -66.5s77.5 -106.5 77.5 -186.5v-52zM240.999 371.001c-25.333 -14 -42 -33.667 -50 -59h289
c-8 25.333 -24.333 45 -49 59s-56 21 -94 21c-38.667 0 -70.667 -7 -96 -21zM556.999 739.001v-119l-441 -67v119z" />
    <glyph glyph-name="ecircumflex" unicode="&#xea;" horiz-adv-x="671" 
d="M633 208l-446.001 0.000976562c4.66699 -31.333 20 -55.333 46 -72s61 -25 105 -25c40 0 72.667 5.33301 98 16s40 25.334 44 44.001h152c-7.33301 -58.667 -36.5 -103.834 -87.5 -135.501s-119.833 -47.5 -206.5 -47.5c-61.333 0 -114.666 10.167 -159.999 30.5
s-80 49.5 -104 87.5s-36 82.667 -36 134v19c0 52 12.167 97.167 36.5 135.5s59 67.666 104 87.999s98.167 30.5 159.5 30.5c93.333 0 165.833 -22.167 217.5 -66.5s77.5 -106.5 77.5 -186.5v-52zM240.999 371.001c-25.333 -14 -42 -33.667 -50 -59h289
c-8 25.333 -24.333 45 -49 59s-56 21 -94 21c-38.667 0 -70.667 -7 -96 -21zM335.999 739.001l221 -64v-122l-221 63l-220 -63v122z" />
    <glyph glyph-name="edieresis" unicode="&#xeb;" horiz-adv-x="671" 
d="M633 208l-446.001 0.000976562c4.66699 -31.333 20 -55.333 46 -72s61 -25 105 -25c40 0 72.667 5.33301 98 16s40 25.334 44 44.001h152c-7.33301 -58.667 -36.5 -103.834 -87.5 -135.501s-119.833 -47.5 -206.5 -47.5c-61.333 0 -114.666 10.167 -159.999 30.5
s-80 49.5 -104 87.5s-36 82.667 -36 134v19c0 52 12.167 97.167 36.5 135.5s59 67.666 104 87.999s98.167 30.5 159.5 30.5c93.333 0 165.833 -22.167 217.5 -66.5s77.5 -106.5 77.5 -186.5v-52zM240.999 371.001c-25.333 -14 -42 -33.667 -50 -59h289
c-8 25.333 -24.333 45 -49 59s-56 21 -94 21c-38.667 0 -70.667 -7 -96 -21zM144.999 585.501c-16 15 -24 34.167 -24 57.5c0 24 8 43.333 24 58s36.667 22 62 22c24 0 43.833 -7.33301 59.5 -22s23.5 -34 23.5 -58c0 -23.333 -7.83301 -42.5 -23.5 -57.5
s-35.5 -22.5 -59.5 -22.5c-25.333 0 -46 7.5 -62 22.5zM404.999 585.501c-16 15 -23.998 34.167 -23.998 57.5c0 24 7.83301 43.333 23.5 58s36.167 22 61.5 22s45.666 -7.33301 60.999 -22s23 -34 23 -58c0 -23.333 -7.83301 -42.5 -23.5 -57.5
s-35.834 -22.5 -60.501 -22.5s-45 7.5 -61 22.5z" />
    <glyph glyph-name="igrave" unicode="&#xec;" horiz-adv-x="286" 
d="M215 501v-501h-144v501h144zM-4 730l294 -47v-119l-294 46v120z" />
    <glyph glyph-name="iacute" unicode="&#xed;" horiz-adv-x="286" 
d="M215 501v-501h-144v501h144zM290 729v-119l-294 -46v118z" />
    <glyph glyph-name="icircumflex" unicode="&#xee;" horiz-adv-x="286" 
d="M215 501v-501h-144v501h144zM143 730l147 -35v-124l-147 36l-147 -36v124z" />
    <glyph glyph-name="idieresis" unicode="&#xef;" horiz-adv-x="286" 
d="M215 501v-501h-144v501h144zM-34 586.5c-16 15 -24 34.167 -24 57.5s8 42.5 24 57.5s36.667 22.5 62 22.5c24.667 0 44.834 -7.5 60.501 -22.5s23.5 -34.167 23.5 -57.5s-7.83301 -42.5 -23.5 -57.5s-35.834 -22.5 -60.501 -22.5c-25.333 0 -46 7.5 -62 22.5z
M197.5 586.5c-15.667 15 -23.5 34.167 -23.5 57.5s7.83301 42.5 23.5 57.5s35.834 22.5 60.501 22.5c25.333 0 45.833 -7.5 61.5 -22.5s23.5 -34.167 23.5 -57.5s-8 -42.5 -24 -57.5s-36.333 -22.5 -61 -22.5s-44.834 7.5 -60.501 22.5z" />
    <glyph glyph-name="eth" unicode="&#xf0;" horiz-adv-x="684" 
d="M645 593l-126.999 -20.999c41.333 -33.333 71.166 -70 89.499 -110s27.5 -88.333 27.5 -145v-78c0 -50.667 -12.167 -95 -36.5 -133s-59 -67.167 -104 -87.5s-97.833 -30.5 -158.5 -30.5c-60 0 -112.5 9.66699 -157.5 29s-79.667 46.666 -104 81.999
s-36.5 76.333 -36.5 123v20c0 45.333 11.5 85.5 34.5 120.5s55.167 62.167 96.5 81.5s89 29 143 29c66 0 119.667 -14.333 161 -43c-8.66699 20 -22 38.5 -40 55.5s-42.333 34.5 -73 52.5l-307 -49v112l153 24l-96 55v20h193l71 -39l271 44v-112zM449.001 148.001
c26.667 21.333 40 51.668 40 91.001v40c-13.333 21.333 -33.833 38.166 -61.5 50.499s-59.5 18.5 -95.5 18.5c-45.333 0 -80.833 -9.33301 -106.5 -28s-38.5 -44.334 -38.5 -77.001v-16c0 -35.333 13 -62.666 39 -81.999s62.333 -29 109 -29c49.333 0 87.333 10.667 114 32z
" />
    <glyph glyph-name="ntilde" unicode="&#xf1;" horiz-adv-x="711" 
d="M578 446c44.667 -44.667 66.9971 -111 66.9971 -199v-247h-145v247c0 43.333 -11.833 76.5 -35.5 99.5s-58.167 34.5 -103.5 34.5c-31.333 0 -59.666 -7.16699 -84.999 -21.5s-44.666 -33.833 -57.999 -58.5v-301h-145v501h135l4 -48c44 38.667 100.333 58.667 169 60
c86.667 0 152.334 -22.333 197.001 -67zM396.997 577c-23.333 4.66699 -37.0029 7.33496 -41.0029 8.00195c-42.667 10 -77 15 -103 15c-38 0 -75.333 -9 -112 -27v118c38.667 18.667 76.667 28 114 28c16 0 31.333 -1.33301 46 -4s33.667 -6.66699 57 -12
c4 -0.666992 13.667 -2.83398 29 -6.50098s29.833 -6.33398 43.5 -8.00098s26.5 -2.5 38.5 -2.5c38.667 0 76.334 8.33301 113.001 25v-118c-35.333 -15.333 -73.666 -23 -114.999 -23c-23.333 0 -46.666 2.33301 -69.999 7z" />
    <glyph glyph-name="ograve" unicode="&#xf2;" horiz-adv-x="685" 
d="M181 18.5c-46 20.333 -81.333 49.666 -106 87.999s-37 83.5 -37 135.5v13c0 53.333 12.167 99.333 36.5 138s59.5 68.334 105.5 89.001s100.667 31 164 31c62.667 0 116.667 -10.333 162 -31s80.166 -50.334 104.499 -89.001s36.5 -84.667 36.5 -138v-13
c0 -52 -12.167 -97.167 -36.5 -135.5s-59.166 -67.666 -104.499 -87.999s-99.333 -30.5 -162 -30.5s-117 10.167 -163 30.5zM456.5 152c27 21.333 40.5 51.666 40.5 90.999v11c0 40.667 -13.333 72 -40 94s-64.667 33 -114 33c-50 0 -88.333 -10.833 -115 -32.5
s-40 -53.167 -40 -94.5v-11c0 -39.333 13.5 -69.666 40.5 -90.999s65.167 -32 114.5 -32c48.667 0 86.5 10.667 113.5 32zM123 740l441 -67v-120l-441 68v119z" />
    <glyph glyph-name="oacute" unicode="&#xf3;" horiz-adv-x="685" 
d="M181 18.5c-46 20.333 -81.333 49.666 -106 87.999s-37 83.5 -37 135.5v13c0 53.333 12.167 99.333 36.5 138s59.5 68.334 105.5 89.001s100.667 31 164 31c62.667 0 116.667 -10.333 162 -31s80.166 -50.334 104.499 -89.001s36.5 -84.667 36.5 -138v-13
c0 -52 -12.167 -97.167 -36.5 -135.5s-59.166 -67.666 -104.499 -87.999s-99.333 -30.5 -162 -30.5s-117 10.167 -163 30.5zM456.5 152c27 21.333 40.5 51.666 40.5 90.999v11c0 40.667 -13.333 72 -40 94s-64.667 33 -114 33c-50 0 -88.333 -10.833 -115 -32.5
s-40 -53.167 -40 -94.5v-11c0 -39.333 13.5 -69.666 40.5 -90.999s65.167 -32 114.5 -32c48.667 0 86.5 10.667 113.5 32zM564 739v-119l-441 -67v119z" />
    <glyph glyph-name="ocircumflex" unicode="&#xf4;" horiz-adv-x="685" 
d="M181 18.5c-46 20.333 -81.333 49.666 -106 87.999s-37 83.5 -37 135.5v13c0 53.333 12.167 99.333 36.5 138s59.5 68.334 105.5 89.001s100.667 31 164 31c62.667 0 116.667 -10.333 162 -31s80.166 -50.334 104.499 -89.001s36.5 -84.667 36.5 -138v-13
c0 -52 -12.167 -97.167 -36.5 -135.5s-59.166 -67.666 -104.499 -87.999s-99.333 -30.5 -162 -30.5s-117 10.167 -163 30.5zM456.5 152c27 21.333 40.5 51.666 40.5 90.999v11c0 40.667 -13.333 72 -40 94s-64.667 33 -114 33c-50 0 -88.333 -10.833 -115 -32.5
s-40 -53.167 -40 -94.5v-11c0 -39.333 13.5 -69.666 40.5 -90.999s65.167 -32 114.5 -32c48.667 0 86.5 10.667 113.5 32zM343 739l221 -64v-122l-221 63l-220 -63v122z" />
    <glyph glyph-name="otilde" unicode="&#xf5;" horiz-adv-x="685" 
d="M181 18.5c-46 20.333 -81.333 49.666 -106 87.999s-37 83.5 -37 135.5v13c0 53.333 12.167 99.333 36.5 138s59.5 68.334 105.5 89.001s100.667 31 164 31c62.667 0 116.667 -10.333 162 -31s80.166 -50.334 104.499 -89.001s36.5 -84.667 36.5 -138v-13
c0 -52 -12.167 -97.167 -36.5 -135.5s-59.166 -67.666 -104.499 -87.999s-99.333 -30.5 -162 -30.5s-117 10.167 -163 30.5zM456.5 152c27 21.333 40.5 51.666 40.5 90.999v11c0 40.667 -13.333 72 -40 94s-64.667 33 -114 33c-50 0 -88.333 -10.833 -115 -32.5
s-40 -53.167 -40 -94.5v-11c0 -39.333 13.5 -69.666 40.5 -90.999s65.167 -32 114.5 -32c48.667 0 86.5 10.667 113.5 32zM379 577c-23.333 4.66699 -37.0029 7.33496 -41.0029 8.00195c-42.667 10 -77 15 -103 15c-38 0 -75.333 -9 -112 -27v118
c38.667 18.667 76.667 28 114 28c16 0 31.333 -1.33301 46 -4s33.667 -6.66699 57 -12c4 -0.666992 13.667 -2.83398 29 -6.50098s29.833 -6.33398 43.5 -8.00098s26.5 -2.5 38.5 -2.5c38.667 0 76.334 8.33301 113.001 25v-118c-35.333 -15.333 -73.666 -23 -114.999 -23
c-23.333 0 -46.666 2.33301 -69.999 7z" />
    <glyph glyph-name="odieresis" unicode="&#xf6;" horiz-adv-x="685" 
d="M181 18.5c-46 20.333 -81.333 49.666 -106 87.999s-37 83.5 -37 135.5v13c0 53.333 12.167 99.333 36.5 138s59.5 68.334 105.5 89.001s100.667 31 164 31c62.667 0 116.667 -10.333 162 -31s80.166 -50.334 104.499 -89.001s36.5 -84.667 36.5 -138v-13
c0 -52 -12.167 -97.167 -36.5 -135.5s-59.166 -67.666 -104.499 -87.999s-99.333 -30.5 -162 -30.5s-117 10.167 -163 30.5zM456.5 152c27 21.333 40.5 51.666 40.5 90.999v11c0 40.667 -13.333 72 -40 94s-64.667 33 -114 33c-50 0 -88.333 -10.833 -115 -32.5
s-40 -53.167 -40 -94.5v-11c0 -39.333 13.5 -69.666 40.5 -90.999s65.167 -32 114.5 -32c48.667 0 86.5 10.667 113.5 32zM152 585.5c-16 15 -24 34.167 -24 57.5c0 24 8 43.333 24 58s36.667 22 62 22c24 0 43.833 -7.33301 59.5 -22s23.5 -34 23.5 -58
c0 -23.333 -7.83301 -42.5 -23.5 -57.5s-35.5 -22.5 -59.5 -22.5c-25.333 0 -46 7.5 -62 22.5zM412 585.5c-16 15 -23.998 34.167 -23.998 57.5c0 24 7.83301 43.333 23.5 58s36.167 22 61.5 22s45.666 -7.33301 60.999 -22s23 -34 23 -58
c0 -23.333 -7.83301 -42.5 -23.5 -57.5s-35.834 -22.5 -60.501 -22.5s-45 7.5 -61 22.5z" />
    <glyph glyph-name="divide" unicode="&#xf7;" horiz-adv-x="816" 
d="M346.5 486c-15.667 15.333 -23.5 35.333 -23.5 60s7.83301 44.5 23.5 59.5s36.167 22.5 61.5 22.5s45.833 -7.5 61.5 -22.5s23.5 -34.833 23.5 -59.5s-7.83301 -44.667 -23.5 -60s-36.167 -23 -61.5 -23s-45.833 7.66699 -61.5 23zM715 395v-134h-614v134h614zM347 51
c-16 15.333 -24 35 -24 59c0 24.667 7.83301 44.667 23.5 60s36.167 23 61.5 23s45.833 -7.66699 61.5 -23s23.5 -35.333 23.5 -60c0 -24 -7.83301 -43.667 -23.5 -59s-36.167 -23 -61.5 -23c-24.667 0 -45 7.66699 -61 23z" />
    <glyph glyph-name="oslash" unicode="&#xf8;" horiz-adv-x="685" 
d="M623 370c16 -34 23.999 -72.335 23.999 -115.002v-13c0 -52 -12.167 -97.167 -36.5 -135.5s-59.166 -67.666 -104.499 -87.999s-99.333 -30.5 -162 -30.5c-26 0 -54.667 2.33301 -86 7l-33 -51h-144v18l52 84c-30.667 22 -54.167 49.667 -70.5 83s-24.5 71 -24.5 113v13
c0 53.333 12.167 99.333 36.5 138s59.5 68.334 105.5 89.001s100.667 31 164 31c26.667 0 55 -2.33301 85 -7l31 49h145v-18l-52 -83c30.667 -22 54 -50 70 -84zM177.999 239.998c0 -35.333 9.66602 -63.667 28.999 -85l153 237h-17c-53.333 0 -94.166 -11.5 -122.499 -34.5
s-42.5 -56.833 -42.5 -101.5v-16zM506.998 255.997c0 36 -9.66699 65.332 -29 87.999l-153 -236h18c52.667 0 93.167 11.333 121.5 34s42.5 55.334 42.5 98.001v16z" />
    <glyph glyph-name="ugrave" unicode="&#xf9;" horiz-adv-x="711" 
d="M638 501l0.00195312 -501h-135l-4 48c-44 -38.667 -100.333 -58.667 -169 -60c-86 -0.666992 -151.5 21.5 -196.5 66.5s-67.5 111.5 -67.5 199.5v247h145v-247c0 -43.333 11.833 -76.5 35.5 -99.5s58.167 -34.5 103.5 -34.5c31.333 0 59.666 7.16699 84.999 21.5
s44.666 33.833 57.999 58.5v301h145zM132.002 740l441 -67v-120l-441 68v119z" />
    <glyph glyph-name="uacute" unicode="&#xfa;" horiz-adv-x="711" 
d="M638 501l0.00195312 -501h-135l-4 48c-44 -38.667 -100.333 -58.667 -169 -60c-86 -0.666992 -151.5 21.5 -196.5 66.5s-67.5 111.5 -67.5 199.5v247h145v-247c0 -43.333 11.833 -76.5 35.5 -99.5s58.167 -34.5 103.5 -34.5c31.333 0 59.666 7.16699 84.999 21.5
s44.666 33.833 57.999 58.5v301h145zM573.002 739v-119l-441 -67v119z" />
    <glyph glyph-name="ucircumflex" unicode="&#xfb;" horiz-adv-x="711" 
d="M638 501l0.00195312 -501h-135l-4 48c-44 -38.667 -100.333 -58.667 -169 -60c-86 -0.666992 -151.5 21.5 -196.5 66.5s-67.5 111.5 -67.5 199.5v247h145v-247c0 -43.333 11.833 -76.5 35.5 -99.5s58.167 -34.5 103.5 -34.5c31.333 0 59.666 7.16699 84.999 21.5
s44.666 33.833 57.999 58.5v301h145zM352.002 739l221 -64v-122l-221 63l-220 -63v122z" />
    <glyph glyph-name="udieresis" unicode="&#xfc;" horiz-adv-x="711" 
d="M638 501l0.00195312 -501h-135l-4 48c-44 -38.667 -100.333 -58.667 -169 -60c-86 -0.666992 -151.5 21.5 -196.5 66.5s-67.5 111.5 -67.5 199.5v247h145v-247c0 -43.333 11.833 -76.5 35.5 -99.5s58.167 -34.5 103.5 -34.5c31.333 0 59.666 7.16699 84.999 21.5
s44.666 33.833 57.999 58.5v301h145zM161.002 585.5c-16 15 -24 34.167 -24 57.5c0 24 8 43.333 24 58s36.667 22 62 22c24 0 43.833 -7.33301 59.5 -22s23.5 -34 23.5 -58c0 -23.333 -7.83301 -42.5 -23.5 -57.5s-35.5 -22.5 -59.5 -22.5c-25.333 0 -46 7.5 -62 22.5z
M421.002 585.5c-16 15 -23.998 34.167 -23.998 57.5c0 24 7.83301 43.333 23.5 58s36.167 22 61.5 22s45.666 -7.33301 60.999 -22s23 -34 23 -58c0 -23.333 -7.83301 -42.5 -23.5 -57.5s-35.834 -22.5 -60.501 -22.5s-45 7.5 -61 22.5z" />
    <glyph glyph-name="yacute" unicode="&#xfd;" horiz-adv-x="697" 
d="M678 501v-21l-265 -530c-21.333 -42 -47.666 -72.5 -78.999 -91.5s-73.333 -28.5 -126 -28.5h-131v127h124c18 0 32.167 2.16699 42.5 6.5s19.166 12.5 26.499 24.5l-251 492v21h154l177 -361l174 361h154zM570 739v-119l-441 -67v119z" />
    <glyph glyph-name="thorn" unicode="&#xfe;" horiz-adv-x="710" 
d="M537.5 481c43 -21.333 76.167 -51.332 99.5 -89.999s35 -83.667 35 -135v-10c0 -51.333 -11.833 -96.333 -35.5 -135s-57.167 -68.834 -100.5 -90.501s-94 -32.5 -152 -32.5c-68 0 -123.333 16.333 -166 49v-207h-145v866h145v-233c44.667 33.333 101 50 169 50
c57.333 0 107.5 -10.667 150.5 -32zM522 256.001c0 39.333 -13.665 70 -40.998 92s-65.333 33 -114 33c-32 0 -61.167 -4.83301 -87.5 -14.5s-46.833 -23.167 -61.5 -40.5v-150c15.333 -17.333 36.166 -31 62.499 -41s55.166 -15 86.499 -15c48.667 0 86.667 11 114 33
s41 53 41 93v10z" />
    <glyph glyph-name="ydieresis" unicode="&#xff;" horiz-adv-x="697" 
d="M678 501v-21l-265 -530c-21.333 -42 -47.666 -72.5 -78.999 -91.5s-73.333 -28.5 -126 -28.5h-131v127h124c18 0 32.167 2.16699 42.5 6.5s19.166 12.5 26.499 24.5l-251 492v21h154l177 -361l174 361h154zM158 585.5c-16 15 -24 34.167 -24 57.5c0 24 8 43.333 24 58
s36.667 22 62 22c24 0 43.833 -7.33301 59.5 -22s23.5 -34 23.5 -58c0 -23.333 -7.83301 -42.5 -23.5 -57.5s-35.5 -22.5 -59.5 -22.5c-25.333 0 -46 7.5 -62 22.5zM418 585.5c-16 15 -23.998 34.167 -23.998 57.5c0 24 7.83301 43.333 23.5 58s36.167 22 61.5 22
s45.666 -7.33301 60.999 -22s23 -34 23 -58c0 -23.333 -7.83301 -42.5 -23.5 -57.5s-35.834 -22.5 -60.501 -22.5s-45 7.5 -61 22.5z" />
    <glyph glyph-name="Amacron" unicode="&#x100;" horiz-adv-x="770" 
d="M759 23v-23h-150l-60 136h-328l-60 -136h-150v23l291 633h166zM492 266l-107 244l-107 -244h214zM606 859v-120h-441v120h441z" />
    <glyph glyph-name="amacron" unicode="&#x101;" horiz-adv-x="716" 
d="M709 127l-0.000976562 -126.998h-85c-30.667 0 -57.167 5.16699 -79.5 15.5s-39.166 25.166 -50.499 44.499c-50.667 -48 -122.667 -72 -216 -72c-70.667 0 -125.667 13.333 -165 40s-59 64 -59 112c0 40.667 14.667 73.167 44 97.5s72 39.5 128 45.5l247 27
c-8 49.333 -52.667 74 -134 74c-42.667 0 -75.834 -5.83301 -99.501 -17.5s-35.5 -27.834 -35.5 -48.501v-3h-146v3c0 39.333 11.5 73.666 34.5 102.999s55.833 52 98.5 68s92.334 24 149.001 24c88 0 156.5 -19.667 205.5 -59s73.5 -93.666 73.5 -162.999v-124
c0 -26.667 15.333 -40 46 -40h44zM401.499 123.502c33 13 57.167 30.501 72.5 52.501v34l-210 -24c-22 -2.66699 -38.333 -7.33398 -49 -14.001s-16 -16 -16 -28c0 -26.667 29.667 -40 89 -40c42.667 0 80.5 6.5 113.5 19.5zM561.999 704.003v-120h-441v120h441z" />
    <glyph glyph-name="Abreve" unicode="&#x102;" horiz-adv-x="770" 
d="M759 23v-23h-150l-60 136h-328l-60 -136h-150v23l291 633h166zM492 266l-107 244l-107 -244h214zM165 764l0.000976562 119c80.667 -33.333 155 -50 223 -50s140.667 16.667 218 50v-119c-76.667 -33.333 -149.334 -50 -218.001 -50c-70 0 -144.333 16.667 -223 50z" />
    <glyph glyph-name="abreve" unicode="&#x103;" horiz-adv-x="716" 
d="M709 127l-0.000976562 -126.998h-85c-30.667 0 -57.167 5.16699 -79.5 15.5s-39.166 25.166 -50.499 44.499c-50.667 -48 -122.667 -72 -216 -72c-70.667 0 -125.667 13.333 -165 40s-59 64 -59 112c0 40.667 14.667 73.167 44 97.5s72 39.5 128 45.5l247 27
c-8 49.333 -52.667 74 -134 74c-42.667 0 -75.834 -5.83301 -99.501 -17.5s-35.5 -27.834 -35.5 -48.501v-3h-146v3c0 39.333 11.5 73.666 34.5 102.999s55.833 52 98.5 68s92.334 24 149.001 24c88 0 156.5 -19.667 205.5 -59s73.5 -93.666 73.5 -162.999v-124
c0 -26.667 15.333 -40 46 -40h44zM401.499 123.502c33 13 57.167 30.501 72.5 52.501v34l-210 -24c-22 -2.66699 -38.333 -7.33398 -49 -14.001s-16 -16 -16 -28c0 -26.667 29.667 -40 89 -40c42.667 0 80.5 6.5 113.5 19.5zM120.999 609.003l0.000976562 119
c80.667 -33.333 155 -50 223 -50s140.667 16.667 218 50v-119c-76.667 -33.333 -149.334 -50 -218.001 -50c-70 0 -144.333 16.667 -223 50z" />
    <glyph glyph-name="Aogonek" unicode="&#x104;" horiz-adv-x="770" 
d="M759 23v-23h-150l-60 136h-328l-60 -136h-150v23l291 633h166zM492 266l-107 244l-107 -244h214zM545 -148.5c-20.667 14.333 -31 33.833 -31 58.5c0 20 6 37.333 18 52s33.333 32 64 52l118 75l45 -89l-77 -42c-8 -5.33301 -12 -10.333 -12 -15
c0 -6.66699 5.66699 -10 17 -10h72v-103h-130c-35.333 0 -63.333 7.16699 -84 21.5z" />
    <glyph glyph-name="aogonek" unicode="&#x105;" horiz-adv-x="716" 
d="M709 127l-0.000976562 -126.998h-85c-30.667 0 -57.167 5.16699 -79.5 15.5s-39.166 25.166 -50.499 44.499c-50.667 -48 -122.667 -72 -216 -72c-70.667 0 -125.667 13.333 -165 40s-59 64 -59 112c0 40.667 14.667 73.167 44 97.5s72 39.5 128 45.5l247 27
c-8 49.333 -52.667 74 -134 74c-42.667 0 -75.834 -5.83301 -99.501 -17.5s-35.5 -27.834 -35.5 -48.501v-3h-146v3c0 39.333 11.5 73.666 34.5 102.999s55.833 52 98.5 68s92.334 24 149.001 24c88 0 156.5 -19.667 205.5 -59s73.5 -93.666 73.5 -162.999v-124
c0 -26.667 15.333 -40 46 -40h44zM401.499 123.502c33 13 57.167 30.501 72.5 52.501v34l-210 -24c-22 -2.66699 -38.333 -7.33398 -49 -14.001s-16 -16 -16 -28c0 -26.667 29.667 -40 89 -40c42.667 0 80.5 6.5 113.5 19.5zM494.999 -148.497
c-20.667 14.333 -31 33.833 -31 58.5c0 20 6 37.333 18 52s33.333 32 64 52l118 75l45 -89l-77 -42c-8 -5.33301 -12 -10.333 -12 -15c0 -6.66699 5.66699 -10 17 -10h72v-103h-130c-35.333 0 -63.333 7.16699 -84 21.5z" />
    <glyph glyph-name="Cacute" unicode="&#x106;" horiz-adv-x="874" 
d="M235 29c-60 27.333 -106.168 66.1689 -138.501 116.502s-48.5 109.166 -48.5 176.499v11c0 67.333 16.167 126.166 48.5 176.499s78.5 89.333 138.5 117s129.667 41.5 209 41.5c73.333 0 139.166 -12 197.499 -36s104 -57.333 137 -100s49.5 -90.667 49.5 -144v-8h-153v8
c0 27.333 -9.83301 51.666 -29.5 72.999s-47 38 -82 50s-75.167 18 -120.5 18c-79.333 0 -139.5 -16.667 -180.5 -50s-61.5 -81.333 -61.5 -144v-15c0 -63.333 20.333 -111.333 61 -144s101.334 -49 182.001 -49c70 0 126 12.833 168 38.5s63 59.5 63 101.5v7h153v-7
c0 -53.333 -16.5 -101.166 -49.5 -143.499s-78.667 -75.5 -137 -99.5s-124.166 -36 -197.499 -36c-79.333 0 -149 13.667 -209 41zM668.999 894.003v-119l-441 -67v119z" />
    <glyph glyph-name="cacute" unicode="&#x107;" horiz-adv-x="670" 
d="M179.5 19c-45.667 20.667 -80.6689 50 -105.002 88s-36.5 83 -36.5 135v13c0 52.667 12.167 98.334 36.5 137.001s59.333 68.5 105 89.5s99.167 31.5 160.5 31.5c56.667 0 107.5 -9.5 152.5 -28.5s80 -45.333 105 -79s37.5 -72.167 37.5 -115.5v-4h-149v4
c0 26.667 -13.5 48.5 -40.5 65.5s-62.167 25.5 -105.5 25.5c-49.333 0 -87 -10.833 -113 -32.5s-39 -53.167 -39 -94.5v-11c0 -40 13 -70.5 39 -91.5s63.667 -31.5 113 -31.5c44 0 79.333 8.16699 106 24.5s40 38.166 40 65.499v4h149v-4
c0 -44 -12.167 -82.833 -36.5 -116.5s-58.666 -59.667 -102.999 -78s-96.166 -27.5 -155.499 -27.5c-61.333 0 -114.833 10.333 -160.5 31zM553.998 739v-119l-441 -67v119z" />
    <glyph glyph-name="Ccircumflex" unicode="&#x108;" horiz-adv-x="874" 
d="M235 29c-60 27.333 -106.168 66.1689 -138.501 116.502s-48.5 109.166 -48.5 176.499v11c0 67.333 16.167 126.166 48.5 176.499s78.5 89.333 138.5 117s129.667 41.5 209 41.5c73.333 0 139.166 -12 197.499 -36s104 -57.333 137 -100s49.5 -90.667 49.5 -144v-8h-153v8
c0 27.333 -9.83301 51.666 -29.5 72.999s-47 38 -82 50s-75.167 18 -120.5 18c-79.333 0 -139.5 -16.667 -180.5 -50s-61.5 -81.333 -61.5 -144v-15c0 -63.333 20.333 -111.333 61 -144s101.334 -49 182.001 -49c70 0 126 12.833 168 38.5s63 59.5 63 101.5v7h153v-7
c0 -53.333 -16.5 -101.166 -49.5 -143.499s-78.667 -75.5 -137 -99.5s-124.166 -36 -197.499 -36c-79.333 0 -149 13.667 -209 41zM447.999 894.003l221 -64v-122l-221 63l-220 -63v122z" />
    <glyph glyph-name="ccircumflex" unicode="&#x109;" horiz-adv-x="670" 
d="M179.5 19c-45.667 20.667 -80.6689 50 -105.002 88s-36.5 83 -36.5 135v13c0 52.667 12.167 98.334 36.5 137.001s59.333 68.5 105 89.5s99.167 31.5 160.5 31.5c56.667 0 107.5 -9.5 152.5 -28.5s80 -45.333 105 -79s37.5 -72.167 37.5 -115.5v-4h-149v4
c0 26.667 -13.5 48.5 -40.5 65.5s-62.167 25.5 -105.5 25.5c-49.333 0 -87 -10.833 -113 -32.5s-39 -53.167 -39 -94.5v-11c0 -40 13 -70.5 39 -91.5s63.667 -31.5 113 -31.5c44 0 79.333 8.16699 106 24.5s40 38.166 40 65.499v4h149v-4
c0 -44 -12.167 -82.833 -36.5 -116.5s-58.666 -59.667 -102.999 -78s-96.166 -27.5 -155.499 -27.5c-61.333 0 -114.833 10.333 -160.5 31zM332.998 739l221 -64v-122l-221 63l-220 -63v122z" />
    <glyph glyph-name="Cdotaccent" unicode="&#x10a;" horiz-adv-x="874" 
d="M235 29c-60 27.333 -106.168 66.1689 -138.501 116.502s-48.5 109.166 -48.5 176.499v11c0 67.333 16.167 126.166 48.5 176.499s78.5 89.333 138.5 117s129.667 41.5 209 41.5c73.333 0 139.166 -12 197.499 -36s104 -57.333 137 -100s49.5 -90.667 49.5 -144v-8h-153v8
c0 27.333 -9.83301 51.666 -29.5 72.999s-47 38 -82 50s-75.167 18 -120.5 18c-79.333 0 -139.5 -16.667 -180.5 -50s-61.5 -81.333 -61.5 -144v-15c0 -63.333 20.333 -111.333 61 -144s101.334 -49 182.001 -49c70 0 126 12.833 168 38.5s63 59.5 63 101.5v7h153v-7
c0 -53.333 -16.5 -101.166 -49.5 -143.499s-78.667 -75.5 -137 -99.5s-124.166 -36 -197.499 -36c-79.333 0 -149 13.667 -209 41zM382.999 737.503c-16.667 15.667 -24.998 36.167 -24.998 61.5s8.33301 45.833 25 61.5s38.334 23.5 65.001 23.5
c27.333 0 49.166 -7.83301 65.499 -23.5s24.5 -36.167 24.5 -61.5s-8.33301 -45.833 -25 -61.5s-38.334 -23.5 -65.001 -23.5s-48.334 7.83301 -65.001 23.5z" />
    <glyph glyph-name="cdotaccent" unicode="&#x10b;" horiz-adv-x="670" 
d="M179.5 19c-45.667 20.667 -80.6689 50 -105.002 88s-36.5 83 -36.5 135v13c0 52.667 12.167 98.334 36.5 137.001s59.333 68.5 105 89.5s99.167 31.5 160.5 31.5c56.667 0 107.5 -9.5 152.5 -28.5s80 -45.333 105 -79s37.5 -72.167 37.5 -115.5v-4h-149v4
c0 26.667 -13.5 48.5 -40.5 65.5s-62.167 25.5 -105.5 25.5c-49.333 0 -87 -10.833 -113 -32.5s-39 -53.167 -39 -94.5v-11c0 -40 13 -70.5 39 -91.5s63.667 -31.5 113 -31.5c44 0 79.333 8.16699 106 24.5s40 38.166 40 65.499v4h149v-4
c0 -44 -12.167 -82.833 -36.5 -116.5s-58.666 -59.667 -102.999 -78s-96.166 -27.5 -155.499 -27.5c-61.333 0 -114.833 10.333 -160.5 31zM267.998 582.5c-16.667 15.667 -24.998 36.167 -24.998 61.5s8.33301 45.833 25 61.5s38.334 23.5 65.001 23.5
c27.333 0 49.166 -7.83301 65.499 -23.5s24.5 -36.167 24.5 -61.5s-8.33301 -45.833 -25 -61.5s-38.334 -23.5 -65.001 -23.5s-48.334 7.83301 -65.001 23.5z" />
    <glyph glyph-name="Ccaron" unicode="&#x10c;" horiz-adv-x="874" 
d="M235 29c-60 27.333 -106.168 66.1689 -138.501 116.502s-48.5 109.166 -48.5 176.499v11c0 67.333 16.167 126.166 48.5 176.499s78.5 89.333 138.5 117s129.667 41.5 209 41.5c73.333 0 139.166 -12 197.499 -36s104 -57.333 137 -100s49.5 -90.667 49.5 -144v-8h-153v8
c0 27.333 -9.83301 51.666 -29.5 72.999s-47 38 -82 50s-75.167 18 -120.5 18c-79.333 0 -139.5 -16.667 -180.5 -50s-61.5 -81.333 -61.5 -144v-15c0 -63.333 20.333 -111.333 61 -144s101.334 -49 182.001 -49c70 0 126 12.833 168 38.5s63 59.5 63 101.5v7h153v-7
c0 -53.333 -16.5 -101.166 -49.5 -143.499s-78.667 -75.5 -137 -99.5s-124.166 -36 -197.499 -36c-79.333 0 -149 13.667 -209 41zM227.999 894.003l220 -64l221 64v-123l-221 -63l-220 63v123z" />
    <glyph glyph-name="ccaron" unicode="&#x10d;" horiz-adv-x="670" 
d="M179.5 19c-45.667 20.667 -80.6689 50 -105.002 88s-36.5 83 -36.5 135v13c0 52.667 12.167 98.334 36.5 137.001s59.333 68.5 105 89.5s99.167 31.5 160.5 31.5c56.667 0 107.5 -9.5 152.5 -28.5s80 -45.333 105 -79s37.5 -72.167 37.5 -115.5v-4h-149v4
c0 26.667 -13.5 48.5 -40.5 65.5s-62.167 25.5 -105.5 25.5c-49.333 0 -87 -10.833 -113 -32.5s-39 -53.167 -39 -94.5v-11c0 -40 13 -70.5 39 -91.5s63.667 -31.5 113 -31.5c44 0 79.333 8.16699 106 24.5s40 38.166 40 65.499v4h149v-4
c0 -44 -12.167 -82.833 -36.5 -116.5s-58.666 -59.667 -102.999 -78s-96.166 -27.5 -155.499 -27.5c-61.333 0 -114.833 10.333 -160.5 31zM112.998 739l220 -64l221 64v-123l-221 -63l-220 63v123z" />
    <glyph glyph-name="Dcaron" unicode="&#x10e;" horiz-adv-x="826" 
d="M405 656c122.667 0 215.5 -27.167 278.5 -81.5s94.5 -134.833 94.5 -241.5v-11c0 -106.667 -31.333 -187 -94 -241s-155.667 -81 -279 -81h-327v656h327zM571.5 180c35.667 30 53.5 76.667 53.5 140v14c0 62.667 -18.333 109.5 -55 140.5s-92 46.5 -166 46.5h-176v-386
h177c75.333 0 130.833 15 166.5 45zM183 894l220 -64l221 64v-123l-221 -63l-220 63v123z" />
    <glyph glyph-name="dcaron" unicode="&#x10f;" horiz-adv-x="920" 
d="M637 696v-696h-135l-4 43c-46 -36.667 -104.333 -55 -175 -55c-58 0 -108.333 10.5 -151 31.5s-75.667 51 -99 90s-35 84.5 -35 136.5v10c0 52 11.5 97.333 34.5 136s56 68.5 99 89.5s93.5 31.5 151.5 31.5c66 0 122.333 -17 169 -51v234h145zM430 135.5
c26 10.333 46.666 24.167 61.999 41.5v148c-14.667 17.333 -35.167 31 -61.5 41s-55.166 15 -86.499 15c-49.333 0 -87.666 -11 -114.999 -33s-41 -52.667 -41 -92v-10c0 -40 13.667 -71 41 -93s65.666 -33 114.999 -33c31.333 0 60 5.16699 86 15.5zM917.999 696.001
l-61 -187h-136l25 187h172z" />
    <glyph glyph-name="Dcroat" unicode="&#x110;" horiz-adv-x="859" 
d="M716.5 574.5c63 -54.333 94.5 -134.833 94.5 -241.5v-11c0 -106.667 -31.333 -187 -94 -241s-155.667 -81 -279 -81h-327v263h-114v130h114v263h327c122.667 0 215.5 -27.167 278.5 -81.5zM658 334c0 62.667 -18.333 109.5 -55 140.5s-92 46.5 -166 46.5h-176v-128h171
v-130h-171v-128h177c75.333 0 130.833 15 166.5 45s53.5 76.667 53.5 140v14z" />
    <glyph glyph-name="dcroat" unicode="&#x111;" horiz-adv-x="736" 
d="M751 533l-114 0.00195312v-533h-135l-4 42c-45.333 -36 -101.333 -54 -168 -54c-59.333 0 -111 10 -155 30s-77.833 48.5 -101.5 85.5s-35.5 80.833 -35.5 131.5v11c0 47.333 11.833 88.666 35.5 123.999s56.834 62.666 99.501 81.999s91.667 29 147 29
c69.333 0 126.666 -15.667 171.999 -47v99h-211v116h211v47h145v-47h114v-116zM429 133.002c26.667 10 47.666 24 62.999 42v128c-15.333 16 -36.333 28.667 -63 38s-56 14 -88 14c-48 0 -85.5 -9.66699 -112.5 -29s-40.5 -47 -40.5 -83v-11c0 -36 13.333 -64 40 -84
s64 -30 112 -30c32.667 0 62.334 5 89.001 15z" />
    <glyph glyph-name="Emacron" unicode="&#x112;" horiz-adv-x="723" 
d="M661 656v-132h-433v-130h413v-131h-413v-131h433v-132h-583v656h583zM590 859v-120h-441v120h441z" />
    <glyph glyph-name="emacron" unicode="&#x113;" horiz-adv-x="671" 
d="M633 208l-446.001 0.000976562c4.66699 -31.333 20 -55.333 46 -72s61 -25 105 -25c40 0 72.667 5.33301 98 16s40 25.334 44 44.001h152c-7.33301 -58.667 -36.5 -103.834 -87.5 -135.501s-119.833 -47.5 -206.5 -47.5c-61.333 0 -114.666 10.167 -159.999 30.5
s-80 49.5 -104 87.5s-36 82.667 -36 134v19c0 52 12.167 97.167 36.5 135.5s59 67.666 104 87.999s98.167 30.5 159.5 30.5c93.333 0 165.833 -22.167 217.5 -66.5s77.5 -106.5 77.5 -186.5v-52zM240.999 371.001c-25.333 -14 -42 -33.667 -50 -59h289
c-8 25.333 -24.333 45 -49 59s-56 21 -94 21c-38.667 0 -70.667 -7 -96 -21zM556.999 704.001v-120h-441v120h441z" />
    <glyph glyph-name="Ebreve" unicode="&#x114;" horiz-adv-x="723" 
d="M661 656v-132h-433v-130h413v-131h-413v-131h433v-132h-583v656h583zM149 764l0.000976562 119c80.667 -33.333 155 -50 223 -50s140.667 16.667 218 50v-119c-76.667 -33.333 -149.334 -50 -218.001 -50c-70 0 -144.333 16.667 -223 50z" />
    <glyph glyph-name="ebreve" unicode="&#x115;" horiz-adv-x="671" 
d="M633 208l-446.001 0.000976562c4.66699 -31.333 20 -55.333 46 -72s61 -25 105 -25c40 0 72.667 5.33301 98 16s40 25.334 44 44.001h152c-7.33301 -58.667 -36.5 -103.834 -87.5 -135.501s-119.833 -47.5 -206.5 -47.5c-61.333 0 -114.666 10.167 -159.999 30.5
s-80 49.5 -104 87.5s-36 82.667 -36 134v19c0 52 12.167 97.167 36.5 135.5s59 67.666 104 87.999s98.167 30.5 159.5 30.5c93.333 0 165.833 -22.167 217.5 -66.5s77.5 -106.5 77.5 -186.5v-52zM240.999 371.001c-25.333 -14 -42 -33.667 -50 -59h289
c-8 25.333 -24.333 45 -49 59s-56 21 -94 21c-38.667 0 -70.667 -7 -96 -21zM115.999 609.001l0.000976562 119c80.667 -33.333 155 -50 223 -50s140.667 16.667 218 50v-119c-76.667 -33.333 -149.334 -50 -218.001 -50c-70 0 -144.333 16.667 -223 50z" />
    <glyph glyph-name="Edotaccent" unicode="&#x116;" horiz-adv-x="723" 
d="M661 656v-132h-433v-130h413v-131h-413v-131h433v-132h-583v656h583zM304 737.5c-16.667 15.667 -24.998 36.167 -24.998 61.5s8.33301 45.833 25 61.5s38.334 23.5 65.001 23.5c27.333 0 49.166 -7.83301 65.499 -23.5s24.5 -36.167 24.5 -61.5
s-8.33301 -45.833 -25 -61.5s-38.334 -23.5 -65.001 -23.5s-48.334 7.83301 -65.001 23.5z" />
    <glyph glyph-name="edotaccent" unicode="&#x117;" horiz-adv-x="671" 
d="M633 208l-446.001 0.000976562c4.66699 -31.333 20 -55.333 46 -72s61 -25 105 -25c40 0 72.667 5.33301 98 16s40 25.334 44 44.001h152c-7.33301 -58.667 -36.5 -103.834 -87.5 -135.501s-119.833 -47.5 -206.5 -47.5c-61.333 0 -114.666 10.167 -159.999 30.5
s-80 49.5 -104 87.5s-36 82.667 -36 134v19c0 52 12.167 97.167 36.5 135.5s59 67.666 104 87.999s98.167 30.5 159.5 30.5c93.333 0 165.833 -22.167 217.5 -66.5s77.5 -106.5 77.5 -186.5v-52zM240.999 371.001c-25.333 -14 -42 -33.667 -50 -59h289
c-8 25.333 -24.333 45 -49 59s-56 21 -94 21c-38.667 0 -70.667 -7 -96 -21zM270.999 582.501c-16.667 15.667 -24.998 36.167 -24.998 61.5s8.33301 45.833 25 61.5s38.334 23.5 65.001 23.5c27.333 0 49.166 -7.83301 65.499 -23.5s24.5 -36.167 24.5 -61.5
s-8.33301 -45.833 -25 -61.5s-38.334 -23.5 -65.001 -23.5s-48.334 7.83301 -65.001 23.5z" />
    <glyph glyph-name="Eogonek" unicode="&#x118;" horiz-adv-x="723" 
d="M661 656v-132h-433v-130h413v-131h-413v-131h433v-132h-583v656h583zM447 -148.5c-20.667 14.333 -31 33.833 -31 58.5c0 20 6 37.333 18 52s33.333 32 64 52l118 75l45 -89l-77 -42c-8 -5.33301 -12 -10.333 -12 -15c0 -6.66699 5.66699 -10 17 -10h72v-103h-130
c-35.333 0 -63.333 7.16699 -84 21.5z" />
    <glyph glyph-name="eogonek" unicode="&#x119;" horiz-adv-x="671" 
d="M633 208l-446.001 0.000976562c4.66699 -31.333 20 -55.333 46 -72s61 -25 105 -25c40 0 72.667 5.33301 98 16s40 25.334 44 44.001h152c-7.33301 -58.667 -36.5 -103.834 -87.5 -135.501s-119.833 -47.5 -206.5 -47.5c-61.333 0 -114.666 10.167 -159.999 30.5
s-80 49.5 -104 87.5s-36 82.667 -36 134v19c0 52 12.167 97.167 36.5 135.5s59 67.666 104 87.999s98.167 30.5 159.5 30.5c93.333 0 165.833 -22.167 217.5 -66.5s77.5 -106.5 77.5 -186.5v-52zM240.999 371.001c-25.333 -14 -42 -33.667 -50 -59h289
c-8 25.333 -24.333 45 -49 59s-56 21 -94 21c-38.667 0 -70.667 -7 -96 -21zM323.499 -144.499c-22.333 17 -33.5 39.1699 -33.5 66.5029c0 20 6.83301 39.167 20.5 57.5s36.167 39.166 67.5 62.499l92 69l91 -61l-86 -69c-8 -6.66699 -13.5 -11.834 -16.5 -15.501
s-4.5 -7.83398 -4.5 -12.501c0 -5.33301 2.33301 -9.83301 7 -13.5s10.667 -5.5 18 -5.5h60v-104h-127c-36.667 0 -66.167 8.5 -88.5 25.5z" />
    <glyph glyph-name="Ecaron" unicode="&#x11a;" horiz-adv-x="723" 
d="M661 656v-132h-433v-130h413v-131h-413v-131h433v-132h-583v656h583zM149 894l220 -64l221 64v-123l-221 -63l-220 63v123z" />
    <glyph glyph-name="ecaron" unicode="&#x11b;" horiz-adv-x="671" 
d="M633 208l-446.001 0.000976562c4.66699 -31.333 20 -55.333 46 -72s61 -25 105 -25c40 0 72.667 5.33301 98 16s40 25.334 44 44.001h152c-7.33301 -58.667 -36.5 -103.834 -87.5 -135.501s-119.833 -47.5 -206.5 -47.5c-61.333 0 -114.666 10.167 -159.999 30.5
s-80 49.5 -104 87.5s-36 82.667 -36 134v19c0 52 12.167 97.167 36.5 135.5s59 67.666 104 87.999s98.167 30.5 159.5 30.5c93.333 0 165.833 -22.167 217.5 -66.5s77.5 -106.5 77.5 -186.5v-52zM240.999 371.001c-25.333 -14 -42 -33.667 -50 -59h289
c-8 25.333 -24.333 45 -49 59s-56 21 -94 21c-38.667 0 -70.667 -7 -96 -21zM115.999 739.001l220 -64l221 64v-123l-221 -63l-220 63v123z" />
    <glyph glyph-name="Gcircumflex" unicode="&#x11c;" horiz-adv-x="879" 
d="M830 360l0.000976562 -359.998h-135l-5 58c-61.333 -46.667 -141.333 -70 -240 -70c-81.333 0 -152.333 13.5 -213 40.5s-107.334 65.667 -140.001 116s-49 109.5 -49 177.5v11c0 67.333 16.5 126.166 49.5 176.499s79.667 89.333 140 117s130.5 41.5 210.5 41.5
c76.667 0 143.667 -9.83301 201 -29.5s101.666 -47.5 132.999 -83.5s47 -78 47 -126v-4h-153v4c0 18 -10.167 34.833 -30.5 50.5s-47.666 28.167 -81.999 37.5s-71.5 14 -111.5 14c-80.667 0 -142.667 -16.833 -186 -50.5s-65 -82.167 -65 -145.5v-15
c0 -64.667 21.167 -113.334 63.5 -146.001s104.833 -49 187.5 -49c50 0 94.5 6.16699 133.5 18.5s71.5 29.5 97.5 51.5v41h-327v124h474zM447.001 894.002l221 -64v-122l-221 63l-220 -63v122z" />
    <glyph glyph-name="gcircumflex" unicode="&#x11d;" horiz-adv-x="709" 
d="M636 501v-445c0 -160 -99 -239.333 -297 -238c-94 0 -167.333 17 -220 51s-79 81.333 -79 142v6h148v-6c0 -19.333 14 -35.333 42 -48s63.333 -19 106 -19c50.667 0 89.167 9.16699 115.5 27.5s39.5 44.833 39.5 79.5v26c-46.667 -31.333 -101.667 -47 -165 -47
c-92.667 0 -164 20 -214 60s-75 97.333 -75 172v10c0 76 25.333 135.167 76 177.5s121.667 63.5 213 63.5c68 0 125.333 -17 172 -51l3 39h135zM429 169c26.667 10 47.333 23.668 62 41.001v117c-14.667 17.333 -35.5 31.333 -62.5 42s-56.167 16 -87.5 16
c-102.667 0 -154 -37.667 -154 -113v-10c0 -36.667 12.5 -63.834 37.5 -81.501s63.833 -26.5 116.5 -26.5c32 0 61.333 5 88 15zM345.999 739.001l221 -64v-122l-221 63l-220 -63v122z" />
    <glyph glyph-name="Gbreve" unicode="&#x11e;" horiz-adv-x="879" 
d="M830 360l0.000976562 -359.998h-135l-5 58c-61.333 -46.667 -141.333 -70 -240 -70c-81.333 0 -152.333 13.5 -213 40.5s-107.334 65.667 -140.001 116s-49 109.5 -49 177.5v11c0 67.333 16.5 126.166 49.5 176.499s79.667 89.333 140 117s130.5 41.5 210.5 41.5
c76.667 0 143.667 -9.83301 201 -29.5s101.666 -47.5 132.999 -83.5s47 -78 47 -126v-4h-153v4c0 18 -10.167 34.833 -30.5 50.5s-47.666 28.167 -81.999 37.5s-71.5 14 -111.5 14c-80.667 0 -142.667 -16.833 -186 -50.5s-65 -82.167 -65 -145.5v-15
c0 -64.667 21.167 -113.334 63.5 -146.001s104.833 -49 187.5 -49c50 0 94.5 6.16699 133.5 18.5s71.5 29.5 97.5 51.5v41h-327v124h474zM227.001 764.002l0.000976562 119c80.667 -33.333 155 -50 223 -50s140.667 16.667 218 50v-119
c-76.667 -33.333 -149.334 -50 -218.001 -50c-70 0 -144.333 16.667 -223 50z" />
    <glyph glyph-name="gbreve" unicode="&#x11f;" horiz-adv-x="709" 
d="M636 501v-445c0 -160 -99 -239.333 -297 -238c-94 0 -167.333 17 -220 51s-79 81.333 -79 142v6h148v-6c0 -19.333 14 -35.333 42 -48s63.333 -19 106 -19c50.667 0 89.167 9.16699 115.5 27.5s39.5 44.833 39.5 79.5v26c-46.667 -31.333 -101.667 -47 -165 -47
c-92.667 0 -164 20 -214 60s-75 97.333 -75 172v10c0 76 25.333 135.167 76 177.5s121.667 63.5 213 63.5c68 0 125.333 -17 172 -51l3 39h135zM429 169c26.667 10 47.333 23.668 62 41.001v117c-14.667 17.333 -35.5 31.333 -62.5 42s-56.167 16 -87.5 16
c-102.667 0 -154 -37.667 -154 -113v-10c0 -36.667 12.5 -63.834 37.5 -81.501s63.833 -26.5 116.5 -26.5c32 0 61.333 5 88 15zM125.999 609.001l0.000976562 119c80.667 -33.333 155 -50 223 -50s140.667 16.667 218 50v-119c-76.667 -33.333 -149.334 -50 -218.001 -50
c-70 0 -144.333 16.667 -223 50z" />
    <glyph glyph-name="Gdotaccent" unicode="&#x120;" horiz-adv-x="879" 
d="M830 360l0.000976562 -359.998h-135l-5 58c-61.333 -46.667 -141.333 -70 -240 -70c-81.333 0 -152.333 13.5 -213 40.5s-107.334 65.667 -140.001 116s-49 109.5 -49 177.5v11c0 67.333 16.5 126.166 49.5 176.499s79.667 89.333 140 117s130.5 41.5 210.5 41.5
c76.667 0 143.667 -9.83301 201 -29.5s101.666 -47.5 132.999 -83.5s47 -78 47 -126v-4h-153v4c0 18 -10.167 34.833 -30.5 50.5s-47.666 28.167 -81.999 37.5s-71.5 14 -111.5 14c-80.667 0 -142.667 -16.833 -186 -50.5s-65 -82.167 -65 -145.5v-15
c0 -64.667 21.167 -113.334 63.5 -146.001s104.833 -49 187.5 -49c50 0 94.5 6.16699 133.5 18.5s71.5 29.5 97.5 51.5v41h-327v124h474zM382.001 737.502c-16.667 15.667 -24.998 36.167 -24.998 61.5s8.33301 45.833 25 61.5s38.334 23.5 65.001 23.5
c27.333 0 49.166 -7.83301 65.499 -23.5s24.5 -36.167 24.5 -61.5s-8.33301 -45.833 -25 -61.5s-38.334 -23.5 -65.001 -23.5s-48.334 7.83301 -65.001 23.5z" />
    <glyph glyph-name="gdotaccent" unicode="&#x121;" horiz-adv-x="709" 
d="M636 501v-445c0 -160 -99 -239.333 -297 -238c-94 0 -167.333 17 -220 51s-79 81.333 -79 142v6h148v-6c0 -19.333 14 -35.333 42 -48s63.333 -19 106 -19c50.667 0 89.167 9.16699 115.5 27.5s39.5 44.833 39.5 79.5v26c-46.667 -31.333 -101.667 -47 -165 -47
c-92.667 0 -164 20 -214 60s-75 97.333 -75 172v10c0 76 25.333 135.167 76 177.5s121.667 63.5 213 63.5c68 0 125.333 -17 172 -51l3 39h135zM429 169c26.667 10 47.333 23.668 62 41.001v117c-14.667 17.333 -35.5 31.333 -62.5 42s-56.167 16 -87.5 16
c-102.667 0 -154 -37.667 -154 -113v-10c0 -36.667 12.5 -63.834 37.5 -81.501s63.833 -26.5 116.5 -26.5c32 0 61.333 5 88 15zM280.999 582.501c-16.667 15.667 -24.998 36.167 -24.998 61.5s8.33301 45.833 25 61.5s38.334 23.5 65.001 23.5
c27.333 0 49.166 -7.83301 65.499 -23.5s24.5 -36.167 24.5 -61.5s-8.33301 -45.833 -25 -61.5s-38.334 -23.5 -65.001 -23.5s-48.334 7.83301 -65.001 23.5z" />
    <glyph glyph-name="uni0122" unicode="&#x122;" horiz-adv-x="879" 
d="M830 360l0.000976562 -359.998h-135l-5 58c-61.333 -46.667 -141.333 -70 -240 -70c-81.333 0 -152.333 13.5 -213 40.5s-107.334 65.667 -140.001 116s-49 109.5 -49 177.5v11c0 67.333 16.5 126.166 49.5 176.499s79.667 89.333 140 117s130.5 41.5 210.5 41.5
c76.667 0 143.667 -9.83301 201 -29.5s101.666 -47.5 132.999 -83.5s47 -78 47 -126v-4h-153v4c0 18 -10.167 34.833 -30.5 50.5s-47.666 28.167 -81.999 37.5s-71.5 14 -111.5 14c-80.667 0 -142.667 -16.833 -186 -50.5s-65 -82.167 -65 -145.5v-15
c0 -64.667 21.167 -113.334 63.5 -146.001s104.833 -49 187.5 -49c50 0 94.5 6.16699 133.5 18.5s71.5 29.5 97.5 51.5v41h-327v124h474zM521.001 -57.998l-64 -180h-149l56 180h157z" />
    <glyph glyph-name="uni0123" unicode="&#x123;" horiz-adv-x="709" 
d="M636 501v-445c0 -160 -99 -239.333 -297 -238c-94 0 -167.333 17 -220 51s-79 81.333 -79 142v6h148v-6c0 -19.333 14 -35.333 42 -48s63.333 -19 106 -19c50.667 0 89.167 9.16699 115.5 27.5s39.5 44.833 39.5 79.5v26c-46.667 -31.333 -101.667 -47 -165 -47
c-92.667 0 -164 20 -214 60s-75 97.333 -75 172v10c0 76 25.333 135.167 76 177.5s121.667 63.5 213 63.5c68 0 125.333 -17 172 -51l3 39h135zM429 169c26.667 10 47.333 23.668 62 41.001v117c-14.667 17.333 -35.5 31.333 -62.5 42s-56.167 16 -87.5 16
c-102.667 0 -154 -37.667 -154 -113v-10c0 -36.667 12.5 -63.834 37.5 -81.501s63.833 -26.5 116.5 -26.5c32 0 61.333 5 88 15zM458.999 735.001l-50 -180h-156l56 180h150z" />
    <glyph glyph-name="Hcircumflex" unicode="&#x124;" horiz-adv-x="819" 
d="M228 656v-261h363v261h150v-656h-150v261h-363v-261h-150v656h150zM410 894l221 -64v-122l-221 63l-220 -63v122z" />
    <glyph glyph-name="hcircumflex" unicode="&#x125;" horiz-adv-x="711" 
d="M578 445.5c44.667 -45 66.9971 -111.166 66.9971 -198.499v-247h-145v247c0 43.333 -11.833 76.5 -35.5 99.5s-58.167 34.5 -103.5 34.5c-31.333 0 -59.666 -7.33301 -84.999 -22s-44.666 -34.334 -57.999 -59.001v-300h-145v696h145v-238c44.667 36.667 99 55 163 55
c86.667 0 152.334 -22.5 197.001 -67.5zM144.997 904.001l221 -64v-122l-221 63l-220 -63v122z" />
    <glyph glyph-name="Hbar" unicode="&#x126;" horiz-adv-x="819" 
d="M820 436h-79v-436h-150v219h-363v-219h-150v436h-79v130h79v90h150v-90h363v90h150v-90h79v-130zM591 436h-363v-87h363v87z" />
    <glyph glyph-name="hbar" unicode="&#x127;" horiz-adv-x="737" 
d="M604 413.5c44.667 -45 66.9971 -111.166 66.9971 -198.499v-215h-145v215c0 43.333 -11.833 76.5 -35.5 99.5s-58.167 34.5 -103.5 34.5c-31.333 0 -59.666 -7.33301 -84.999 -22s-44.666 -34.334 -57.999 -59.001v-268h-145v533h-114v116h114v47h145v-47h210v-116h-210
v-107c44.667 36.667 99 55 163 55c86.667 0 152.334 -22.5 197.001 -67.5z" />
    <glyph glyph-name="Itilde" unicode="&#x128;" horiz-adv-x="299" 
d="M225 656v-656h-151v656h151zM172.5 732c-15 4.66699 -23.833 7.33301 -26.5 8c-27.333 10 -49 15 -65 15c-27.333 0 -53.333 -8 -78 -24v118c26 16.667 52.667 25 80 25c10 0 19.5 -1.33301 28.5 -4s21.167 -6.66699 36.5 -12c18 -6 31.667 -10.333 41 -13
s19.333 -4 30 -4c26.667 0 52.667 7.33301 78 22v-118c-24 -13.333 -50.667 -20 -80 -20c-14.667 0 -29.5 2.33301 -44.5 7z" />
    <glyph glyph-name="itilde" unicode="&#x129;" horiz-adv-x="286" 
d="M215 501v-501h-144v501h144zM165.5 577c-15 4.66699 -23.833 7.33301 -26.5 8c-27.333 10 -49 15 -65 15c-27.333 0 -53.333 -8 -78 -24v118c26 16.667 52.667 25 80 25c10 0 19.5 -1.33301 28.5 -4s21.167 -6.66699 36.5 -12c18 -6 31.667 -10.333 41 -13
s19.333 -4 30 -4c26.667 0 52.667 7.33301 78 22v-118c-24 -13.333 -50.667 -20 -80 -20c-14.667 0 -29.5 2.33301 -44.5 7z" />
    <glyph glyph-name="Imacron" unicode="&#x12a;" horiz-adv-x="299" 
d="M225 656v-656h-151v656h151zM297 859v-120h-294v120h294z" />
    <glyph glyph-name="imacron" unicode="&#x12b;" horiz-adv-x="286" 
d="M215 501v-501h-144v501h144zM290 704v-120h-294v120h294z" />
    <glyph glyph-name="Ibreve" unicode="&#x12c;" horiz-adv-x="299" 
d="M225 656v-656h-151v656h151zM3 764l-0.000976562 119c44.667 -32 94 -48 148 -48c56 0 105 16 147 48v-119c-41.333 -32.667 -90.333 -49 -147 -49c-55.333 0 -104.666 16.333 -147.999 49z" />
    <glyph glyph-name="ibreve" unicode="&#x12d;" horiz-adv-x="286" 
d="M215 501v-501h-144v501h144zM-4 609l-0.000976562 119c44.667 -32 94 -48 148 -48c56 0 105 16 147 48v-119c-41.333 -32.667 -90.333 -49 -147 -49c-55.333 0 -104.666 16.333 -147.999 49z" />
    <glyph glyph-name="Iogonek" unicode="&#x12e;" horiz-adv-x="299" 
d="M225 656v-656h-151v656h151zM11 -148.5c-20.667 14.333 -31 33.833 -31 58.5c0 20 6 37.333 18 52s33.333 32 64 52l118 75l45 -89l-77 -42c-8 -5.33301 -12 -10.333 -12 -15c0 -6.66699 5.66699 -10 17 -10h72v-103h-130c-35.333 0 -63.333 7.16699 -84 21.5z" />
    <glyph glyph-name="iogonek" unicode="&#x12f;" horiz-adv-x="286" 
d="M215 501v-501h-144v501h144zM78 582.5c-16.667 15.667 -24.998 36.167 -24.998 61.5s8.33301 45.833 25 61.5s38.334 23.5 65.001 23.5c27.333 0 49.166 -7.83301 65.499 -23.5s24.5 -36.167 24.5 -61.5s-8.33301 -45.833 -25 -61.5s-38.334 -23.5 -65.001 -23.5
s-48.334 7.83301 -65.001 23.5zM1.00195 -148.5c-20.667 14.333 -31 33.833 -31 58.5c0 20 6 37.333 18 52s33.333 32 64 52l118 75l45 -89l-77 -42c-8 -5.33301 -12 -10.333 -12 -15c0 -6.66699 5.66699 -10 17 -10h72v-103h-130c-35.333 0 -63.333 7.16699 -84 21.5z" />
    <glyph glyph-name="Idotaccent" unicode="&#x130;" horiz-adv-x="299" 
d="M225 656v-656h-151v656h151zM85 737.5c-16.667 15.667 -24.998 36.167 -24.998 61.5s8.33301 45.833 25 61.5s38.334 23.5 65.001 23.5c27.333 0 49.166 -7.83301 65.499 -23.5s24.5 -36.167 24.5 -61.5s-8.33301 -45.833 -25 -61.5s-38.334 -23.5 -65.001 -23.5
s-48.334 7.83301 -65.001 23.5z" />
    <glyph glyph-name="dotlessi" unicode="&#x131;" horiz-adv-x="286" 
d="M215 501v-501h-144v501h144z" />
    <glyph glyph-name="IJ" unicode="&#x132;" horiz-adv-x="841" 
d="M228 656v-656h-150v656h150zM454 137c112.667 0 169 53.333 169 160v224h-284v135h434v-356c0 -62 -12.667 -115.5 -38 -160.5s-62 -79.333 -110 -103s-105 -35.5 -171 -35.5l-115 -1v137h115z" />
    <glyph glyph-name="ij" unicode="&#x133;" horiz-adv-x="572" 
d="M215 501v-501h-144v501h144zM78 582.5c-16.667 15.667 -24.998 36.167 -24.998 61.5s8.33301 45.833 25 61.5s38.334 23.5 65.001 23.5c27.333 0 49.166 -7.83301 65.499 -23.5s24.5 -36.167 24.5 -61.5s-8.33301 -45.833 -25 -61.5s-38.334 -23.5 -65.001 -23.5
s-48.334 7.83301 -65.001 23.5zM294.002 -43c20.667 0 36.333 4.99902 47 14.999s16 24.667 16 44v485h144v-494c0 -53.333 -17.5 -96.166 -52.5 -128.499s-81.5 -48.5 -139.5 -48.5h-91v127h76zM364.001 582.499c-16.667 15.667 -24.998 36.167 -24.998 61.5
s8.33301 45.833 25 61.5s38.334 23.5 65.001 23.5c27.333 0 49.166 -7.83301 65.499 -23.5s24.5 -36.167 24.5 -61.5s-8.33301 -45.833 -25 -61.5s-38.334 -23.5 -65.001 -23.5s-48.334 7.83301 -65.001 23.5z" />
    <glyph glyph-name="Jcircumflex" unicode="&#x134;" horiz-adv-x="749" 
d="M192 24c-48 24 -84.999 58.499 -110.999 103.499s-39 98.167 -39 159.5v36h150v-36c0 -50.667 14.833 -90 44.5 -118s71.5 -42 125.5 -42c112.667 0 169 53 169 159v235h-301v135h451v-368c0 -61.333 -12.833 -114.666 -38.5 -159.999s-62.334 -80 -110.001 -104
s-104.5 -36 -170.5 -36c-65.333 0 -122 12 -170 36zM444.001 893.999l221 -64v-122l-221 63l-220 -63v122z" />
    <glyph glyph-name="jcircumflex" unicode="&#x135;" horiz-adv-x="286" 
d="M8 -43c20.667 0 36.333 4.99902 47 14.999s16 24.667 16 44v485h144v-494c0 -53.333 -17.5 -96.166 -52.5 -128.499s-81.5 -48.5 -139.5 -48.5h-91v127h76zM142.999 729.999l147 -35v-124l-147 36l-147 -36v124z" />
    <glyph glyph-name="uni0136" unicode="&#x136;" horiz-adv-x="813" 
d="M767 633l-303 -267l289 -343v-23h-176l-230 274l-119 -104v-170h-150v656h150v-306l349 306h190v-23zM476 -58l-64 -180h-149l56 180h157z" />
    <glyph glyph-name="uni0137" unicode="&#x137;" horiz-adv-x="681" 
d="M669 20v-20h-171l-170 196l-110 -97v-99h-145v696h145v-424l264 229h176v-21l-221 -195zM411 -58l-64 -180h-149l56 180h157z" />
    <glyph glyph-name="Lacute" unicode="&#x139;" horiz-adv-x="687" 
d="M228 656v-521h445v-135h-595v656h150zM375 894v-119l-441 -67v119z" />
    <glyph glyph-name="lacute" unicode="&#x13a;" horiz-adv-x="319" 
d="M115 38.5c-29.333 25.667 -44.001 61.499 -44.001 107.499v550h144v-524c0 -15.333 4 -26.666 12 -33.999s21 -11 39 -11h43v-127h-70c-53.333 -0 -94.666 12.833 -123.999 38.5zM290.999 893.999v-119l-294 -46v118z" />
    <glyph glyph-name="uni013B" unicode="&#x13b;" horiz-adv-x="687" 
d="M228 656v-521h445v-135h-595v656h150zM420 -58l-64 -180h-149l56 180h157z" />
    <glyph glyph-name="uni013C" unicode="&#x13c;" horiz-adv-x="319" 
d="M115 38.5c-29.333 25.667 -44.001 61.499 -44.001 107.499v550h144v-524c0 -15.333 4 -26.666 12 -33.999s21 -11 39 -11h43v-127h-70c-53.333 -0 -94.666 12.833 -123.999 38.5zM312.999 -58.001l-64 -180h-149l56 180h157z" />
    <glyph glyph-name="Lcaron" unicode="&#x13d;" horiz-adv-x="687" 
d="M228 656v-521h445v-135h-595v656h150zM576 656l-61 -187h-136l25 187h172z" />
    <glyph glyph-name="lcaron" unicode="&#x13e;" horiz-adv-x="509" 
d="M115 38.5c-29.333 25.667 -44.001 61.499 -44.001 107.499v550h144v-524c0 -15.333 4 -26.666 12 -33.999s21 -11 39 -11h43v-127h-70c-53.333 -0 -94.666 12.833 -123.999 38.5zM495.999 695.999l-61 -187h-136l25 187h172z" />
    <glyph glyph-name="Ldot" unicode="&#x13f;" horiz-adv-x="687" 
d="M228 656v-521h445v-135h-595v656h150zM434.5 319.5c-16.333 15.667 -24.5 35.832 -24.5 60.499s8.16699 44.834 24.5 60.501s37.166 23.5 62.499 23.5c26 0 47 -7.83301 63 -23.5s24 -35.834 24 -60.501c0 -25.333 -8 -45.666 -24 -60.999s-37 -23 -63 -23
c-25.333 0 -46.166 7.83301 -62.499 23.5z" />
    <glyph glyph-name="ldot" unicode="&#x140;" horiz-adv-x="407" 
d="M115 38.5c-29.333 25.667 -44.001 61.499 -44.001 107.499v550h144v-524c0 -15.333 4 -26.666 12 -33.999s21 -11 39 -11h43v-127h-70c-53.333 -0 -94.666 12.833 -123.999 38.5zM287.999 269.499c-15.333 15.667 -23.001 36.167 -23.001 61.5s7.66699 45.666 23 60.999
s35 23 59 23c24.667 0 44.334 -7.66699 59.001 -23s22 -35.666 22 -60.999s-7.5 -45.833 -22.5 -61.5s-34.5 -23.5 -58.5 -23.5s-43.667 7.83301 -59 23.5z" />
    <glyph glyph-name="Lslash" unicode="&#x141;" horiz-adv-x="720" 
d="M706 135v-135h-595v271l-114 -24v132l114 24v253h150v-228l270 57v-132l-270 -57v-161h445z" />
    <glyph glyph-name="lslash" unicode="&#x142;" horiz-adv-x="398" 
d="M248 328l-0.000976562 -156.001c0 -15.333 4 -26.666 12 -33.999s21 -11 39 -11h43v-127h-70c-53.333 -0 -94.666 12.833 -123.999 38.5s-44 61.5 -44 107.5v158l-107 -22v127l107 22v265h144v-241l133 28v-127z" />
    <glyph glyph-name="Nacute" unicode="&#x143;" horiz-adv-x="819" 
d="M741 656v-656h-144l-375 445v-445h-144v656h144l375 -444v444h144zM631 894v-119l-441 -67v119z" />
    <glyph glyph-name="nacute" unicode="&#x144;" horiz-adv-x="711" 
d="M578 446c44.667 -44.667 66.9971 -111 66.9971 -199v-247h-145v247c0 43.333 -11.833 76.5 -35.5 99.5s-58.167 34.5 -103.5 34.5c-31.333 0 -59.666 -7.16699 -84.999 -21.5s-44.666 -33.833 -57.999 -58.5v-301h-145v501h135l4 -48c44 38.667 100.333 58.667 169 60
c86.667 0 152.334 -22.333 197.001 -67zM581.997 739v-119l-441 -67v119z" />
    <glyph glyph-name="uni0145" unicode="&#x145;" horiz-adv-x="819" 
d="M741 656v-656h-144l-375 445v-445h-144v656h144l375 -444v444h144zM484 -58l-64 -180h-149l56 180h157z" />
    <glyph glyph-name="uni0146" unicode="&#x146;" horiz-adv-x="711" 
d="M578 446c44.667 -44.667 66.9971 -111 66.9971 -199v-247h-145v247c0 43.333 -11.833 76.5 -35.5 99.5s-58.167 34.5 -103.5 34.5c-31.333 0 -59.666 -7.16699 -84.999 -21.5s-44.666 -33.833 -57.999 -58.5v-301h-145v501h135l4 -48c44 38.667 100.333 58.667 169 60
c86.667 0 152.334 -22.333 197.001 -67zM434.997 -58l-64 -180h-149l56 180h157z" />
    <glyph glyph-name="Ncaron" unicode="&#x147;" horiz-adv-x="819" 
d="M741 656v-656h-144l-375 445v-445h-144v656h144l375 -444v444h144zM190 894l220 -64l221 64v-123l-221 -63l-220 63v123z" />
    <glyph glyph-name="ncaron" unicode="&#x148;" horiz-adv-x="711" 
d="M578 446c44.667 -44.667 66.9971 -111 66.9971 -199v-247h-145v247c0 43.333 -11.833 76.5 -35.5 99.5s-58.167 34.5 -103.5 34.5c-31.333 0 -59.666 -7.16699 -84.999 -21.5s-44.666 -33.833 -57.999 -58.5v-301h-145v501h135l4 -48c44 38.667 100.333 58.667 169 60
c86.667 0 152.334 -22.333 197.001 -67zM140.997 739l220 -64l221 64v-123l-221 -63l-220 63v123z" />
    <glyph glyph-name="Eng" unicode="&#x14a;" horiz-adv-x="819" 
d="M741 656v-582c0 -80.667 -20.833 -141.5 -62.5 -182.5s-103.167 -61.5 -184.5 -61.5h-55v131h47c27.333 0 49.333 4.5 66 13.5s28.667 22.833 36 41.5l-366 431v-447h-144v656h145l374 -439v439h144z" />
    <glyph glyph-name="eng" unicode="&#x14b;" horiz-adv-x="711" 
d="M578 446c44.667 -44.667 66.9951 -111 66.9951 -199v-173c0 -80.667 -21.167 -141.5 -63.5 -182.5s-105.166 -61.5 -188.499 -61.5h-50v127h43c38.667 0 67.334 9.83301 86.001 29.5s28 49.5 28 89.5v171c0 43.333 -11.833 76.5 -35.5 99.5s-58.167 34.5 -103.5 34.5
c-31.333 0 -59.666 -7.16699 -84.999 -21.5s-44.666 -33.833 -57.999 -58.5v-301h-145v501h135l4 -48c44 38.667 100.333 58.667 169 60c86.667 0 152.334 -22.333 197.001 -67z" />
    <glyph glyph-name="Omacron" unicode="&#x14c;" horiz-adv-x="877" 
d="M233 29c-58.667 27.333 -104.166 66.333 -136.499 117s-48.5 109.667 -48.5 177v9c0 67.333 16.167 126.333 48.5 177s78 89.834 137 117.501s127.5 41.5 205.5 41.5c78.667 0 147.334 -13.833 206.001 -41.5s104 -66.834 136 -117.501s48 -109.667 48 -177v-9
c0 -67.333 -16 -126.333 -48 -177s-77.333 -89.667 -136 -117s-127.334 -41 -206.001 -41s-147.334 13.667 -206.001 41zM615.501 177c40.333 33.333 60.501 81.333 60.501 144v12c0 62.667 -20.5 111 -61.5 145s-99.5 51 -175.5 51c-76.667 0 -135.5 -17 -176.5 -51
s-61.5 -82.333 -61.5 -145v-12c0 -62.667 20.5 -110.667 61.5 -144s99.833 -50 176.5 -50c77.333 0 136.166 16.667 176.499 50zM661.002 859v-120h-441v120h441z" />
    <glyph glyph-name="omacron" unicode="&#x14d;" horiz-adv-x="685" 
d="M181 18.5c-46 20.333 -81.333 49.666 -106 87.999s-37 83.5 -37 135.5v13c0 53.333 12.167 99.333 36.5 138s59.5 68.334 105.5 89.001s100.667 31 164 31c62.667 0 116.667 -10.333 162 -31s80.166 -50.334 104.499 -89.001s36.5 -84.667 36.5 -138v-13
c0 -52 -12.167 -97.167 -36.5 -135.5s-59.166 -67.666 -104.499 -87.999s-99.333 -30.5 -162 -30.5s-117 10.167 -163 30.5zM456.5 152c27 21.333 40.5 51.666 40.5 90.999v11c0 40.667 -13.333 72 -40 94s-64.667 33 -114 33c-50 0 -88.333 -10.833 -115 -32.5
s-40 -53.167 -40 -94.5v-11c0 -39.333 13.5 -69.666 40.5 -90.999s65.167 -32 114.5 -32c48.667 0 86.5 10.667 113.5 32zM564 704v-120h-441v120h441z" />
    <glyph glyph-name="Obreve" unicode="&#x14e;" horiz-adv-x="877" 
d="M233 29c-58.667 27.333 -104.166 66.333 -136.499 117s-48.5 109.667 -48.5 177v9c0 67.333 16.167 126.333 48.5 177s78 89.834 137 117.501s127.5 41.5 205.5 41.5c78.667 0 147.334 -13.833 206.001 -41.5s104 -66.834 136 -117.501s48 -109.667 48 -177v-9
c0 -67.333 -16 -126.333 -48 -177s-77.333 -89.667 -136 -117s-127.334 -41 -206.001 -41s-147.334 13.667 -206.001 41zM615.501 177c40.333 33.333 60.501 81.333 60.501 144v12c0 62.667 -20.5 111 -61.5 145s-99.5 51 -175.5 51c-76.667 0 -135.5 -17 -176.5 -51
s-61.5 -82.333 -61.5 -145v-12c0 -62.667 20.5 -110.667 61.5 -144s99.833 -50 176.5 -50c77.333 0 136.166 16.667 176.499 50zM220.002 764l0.000976562 119c80.667 -33.333 155 -50 223 -50s140.667 16.667 218 50v-119c-76.667 -33.333 -149.334 -50 -218.001 -50
c-70 0 -144.333 16.667 -223 50z" />
    <glyph glyph-name="obreve" unicode="&#x14f;" horiz-adv-x="685" 
d="M181 18.5c-46 20.333 -81.333 49.666 -106 87.999s-37 83.5 -37 135.5v13c0 53.333 12.167 99.333 36.5 138s59.5 68.334 105.5 89.001s100.667 31 164 31c62.667 0 116.667 -10.333 162 -31s80.166 -50.334 104.499 -89.001s36.5 -84.667 36.5 -138v-13
c0 -52 -12.167 -97.167 -36.5 -135.5s-59.166 -67.666 -104.499 -87.999s-99.333 -30.5 -162 -30.5s-117 10.167 -163 30.5zM456.5 152c27 21.333 40.5 51.666 40.5 90.999v11c0 40.667 -13.333 72 -40 94s-64.667 33 -114 33c-50 0 -88.333 -10.833 -115 -32.5
s-40 -53.167 -40 -94.5v-11c0 -39.333 13.5 -69.666 40.5 -90.999s65.167 -32 114.5 -32c48.667 0 86.5 10.667 113.5 32zM123 609l0.000976562 119c80.667 -33.333 155 -50 223 -50s140.667 16.667 218 50v-119c-76.667 -33.333 -149.334 -50 -218.001 -50
c-70 0 -144.333 16.667 -223 50z" />
    <glyph glyph-name="Ohungarumlaut" unicode="&#x150;" horiz-adv-x="877" 
d="M233 29c-58.667 27.333 -104.166 66.333 -136.499 117s-48.5 109.667 -48.5 177v9c0 67.333 16.167 126.333 48.5 177s78 89.834 137 117.501s127.5 41.5 205.5 41.5c78.667 0 147.334 -13.833 206.001 -41.5s104 -66.834 136 -117.501s48 -109.667 48 -177v-9
c0 -67.333 -16 -126.333 -48 -177s-77.333 -89.667 -136 -117s-127.334 -41 -206.001 -41s-147.334 13.667 -206.001 41zM615.501 177c40.333 33.333 60.501 81.333 60.501 144v12c0 62.667 -20.5 111 -61.5 145s-99.5 51 -175.5 51c-76.667 0 -135.5 -17 -176.5 -51
s-61.5 -82.333 -61.5 -145v-12c0 -62.667 20.5 -110.667 61.5 -144s99.833 -50 176.5 -50c77.333 0 136.166 16.667 176.499 50zM465.002 894v-122l-271 -64v121zM766.002 894v-122l-270 -64v121z" />
    <glyph glyph-name="ohungarumlaut" unicode="&#x151;" horiz-adv-x="685" 
d="M181 18.5c-46 20.333 -81.333 49.666 -106 87.999s-37 83.5 -37 135.5v13c0 53.333 12.167 99.333 36.5 138s59.5 68.334 105.5 89.001s100.667 31 164 31c62.667 0 116.667 -10.333 162 -31s80.166 -50.334 104.499 -89.001s36.5 -84.667 36.5 -138v-13
c0 -52 -12.167 -97.167 -36.5 -135.5s-59.166 -67.666 -104.499 -87.999s-99.333 -30.5 -162 -30.5s-117 10.167 -163 30.5zM456.5 152c27 21.333 40.5 51.666 40.5 90.999v11c0 40.667 -13.333 72 -40 94s-64.667 33 -114 33c-50 0 -88.333 -10.833 -115 -32.5
s-40 -53.167 -40 -94.5v-11c0 -39.333 13.5 -69.666 40.5 -90.999s65.167 -32 114.5 -32c48.667 0 86.5 10.667 113.5 32zM368 739v-122l-271 -64v121zM669 739v-122l-270 -64v121z" />
    <glyph glyph-name="OE" unicode="&#x152;" horiz-adv-x="1263" 
d="M142 81c-62.667 54 -94 134.333 -94 241v11c0 106.667 31.5 187.167 94.5 241.5s155.833 81.5 278.5 81.5h780v-132h-452v-130h408v-131h-408v-131h452v-132h-780c-123.333 0 -216.333 27 -279 81zM599 521h-177c-147.333 0 -221 -62.333 -221 -187v-14
c0 -62.667 18.167 -109.167 54.5 -139.5s91.5 -45.5 165.5 -45.5h178v386z" />
    <glyph glyph-name="oe" unicode="&#x153;" horiz-adv-x="1114" 
d="M1076 208l-438.001 -0.000976562c4 -31.333 18.667 -55.5 44 -72.5s60 -25.5 104 -25.5c38 0 69.333 5.5 94 16.5s39 25.833 43 44.5h152c-6.66699 -57.333 -35.167 -102.166 -85.5 -134.499s-116.5 -48.5 -198.5 -48.5c-50 0 -94.667 7.66699 -134 23
s-71.333 37.333 -96 66c-24 -28.667 -55.167 -50.667 -93.5 -66s-82.166 -23 -131.499 -23c-60 0 -112.5 10.333 -157.5 31s-79.667 50.167 -104 88.5s-36.5 83.166 -36.5 134.499v13c0 52.667 12.167 98.334 36.5 137.001s58.833 68.5 103.5 89.5s97.334 31.5 158.001 31.5
c49.333 0 93.166 -7.83301 131.499 -23.5s69.5 -38.167 93.5 -67.5c25.333 29.333 57.333 51.833 96 67.5s82.667 23.5 132 23.5c90 0 160.333 -22.5 211 -67.5s76 -107.5 76 -187.5v-50zM688.499 371.499c-23.667 -13.667 -39.167 -33.5 -46.5 -59.5h281
c-7.33301 25.333 -23.333 45 -48 59s-56 21 -94 21s-68.833 -6.83301 -92.5 -20.5zM487.999 252.999c0 40.667 -12.998 72.167 -38.998 94.5s-63 33.5 -111 33.5s-85 -11.167 -111 -33.5s-39 -53.833 -39 -94.5v-9c0 -39.333 13.167 -69.833 39.5 -91.5
s63.166 -32.5 110.499 -32.5s84.166 10.833 110.499 32.5s39.5 52.167 39.5 91.5v9z" />
    <glyph glyph-name="Racute" unicode="&#x154;" horiz-adv-x="806" 
d="M693.5 302c-33.667 -34 -81.5 -55.333 -143.5 -64l191 -215v-23h-172l-204 235h-137v-235h-150v656h416c78 0 139.167 -18.833 183.5 -56.5s66.5 -89.5 66.5 -155.5v-11c0 -53.333 -16.833 -97 -50.5 -131zM591 447c0 24.667 -8.5 43.5 -25.5 56.5
s-42.167 19.5 -75.5 19.5h-262v-164h262c32.667 0 57.667 6.5 75 19.5s26 32.167 26 57.5v11zM622 894v-119l-441 -67v119z" />
    <glyph glyph-name="racute" unicode="&#x155;" horiz-adv-x="473" 
d="M459 501v-128h-112c-62.667 0 -106.667 -15.667 -132 -47v-326h-144v501h135l4 -46c42 30.667 94 46 156 46h93zM480 739v-119l-441 -67v119z" />
    <glyph glyph-name="uni0156" unicode="&#x156;" horiz-adv-x="806" 
d="M693.5 302c-33.667 -34 -81.5 -55.333 -143.5 -64l191 -215v-23h-172l-204 235h-137v-235h-150v656h416c78 0 139.167 -18.833 183.5 -56.5s66.5 -89.5 66.5 -155.5v-11c0 -53.333 -16.833 -97 -50.5 -131zM591 447c0 24.667 -8.5 43.5 -25.5 56.5
s-42.167 19.5 -75.5 19.5h-262v-164h262c32.667 0 57.667 6.5 75 19.5s26 32.167 26 57.5v11zM475 -58l-64 -180h-149l56 180h157z" />
    <glyph glyph-name="uni0157" unicode="&#x157;" horiz-adv-x="473" 
d="M459 501v-128h-112c-62.667 0 -106.667 -15.667 -132 -47v-326h-144v501h135l4 -46c42 30.667 94 46 156 46h93zM224 -58l-64 -180h-149l56 180h157z" />
    <glyph glyph-name="Rcaron" unicode="&#x158;" horiz-adv-x="806" 
d="M693.5 302c-33.667 -34 -81.5 -55.333 -143.5 -64l191 -215v-23h-172l-204 235h-137v-235h-150v656h416c78 0 139.167 -18.833 183.5 -56.5s66.5 -89.5 66.5 -155.5v-11c0 -53.333 -16.833 -97 -50.5 -131zM591 447c0 24.667 -8.5 43.5 -25.5 56.5
s-42.167 19.5 -75.5 19.5h-262v-164h262c32.667 0 57.667 6.5 75 19.5s26 32.167 26 57.5v11zM181 894l220 -64l221 64v-123l-221 -63l-220 63v123z" />
    <glyph glyph-name="rcaron" unicode="&#x159;" horiz-adv-x="473" 
d="M459 501v-128h-112c-62.667 0 -106.667 -15.667 -132 -47v-326h-144v501h135l4 -46c42 30.667 94 46 156 46h93zM39 739l220 -64l221 64v-123l-221 -63l-220 63v123z" />
    <glyph glyph-name="Sacute" unicode="&#x15a;" horiz-adv-x="771" 
d="M142 46c-56 38.667 -84 95.335 -84 170.002v10h148v-10c0 -32 16 -56.333 48 -73s78.667 -25 140 -25c54.667 0 96.167 5.83301 124.5 17.5s42.5 28.834 42.5 51.501v7c0 18 -8 31.833 -24 41.5s-44.333 17.5 -85 23.5l-167 24c-144 21.333 -216 80.666 -216 177.999v10
c0 62 27.167 110.333 81.5 145s130.5 52 228.5 52c104 0 183.333 -18.667 238 -56s82 -91.333 82 -162v-9h-148v9c0 58.667 -57.333 88 -172 88c-51.333 0 -90.5 -5.33301 -117.5 -16s-40.5 -26.334 -40.5 -47.001v-8c0 -15.333 7.5 -27.333 22.5 -36
s40.833 -15.667 77.5 -21l168 -24c76.667 -11.333 133.167 -31.833 169.5 -61.5s54.5 -70.834 54.5 -123.501v-10c0 -64 -28.333 -113.833 -85 -149.5s-136.667 -53.5 -240 -53.5c-108 0 -190 19.333 -246 58zM603 894.001v-119l-441 -67v119z" />
    <glyph glyph-name="sacute" unicode="&#x15b;" horiz-adv-x="688" 
d="M129.5 32.5c-52.333 29.667 -78.5029 71.833 -78.5029 126.5v5h139v-5c0 -18.667 12.667 -32.167 38 -40.5s66.333 -12.5 123 -12.5c93.333 0 140 13.333 140 40v5c0 10 -6 17.667 -18 23s-33.667 9.33301 -65 12l-129 13c-74 7.33301 -128 22.666 -162 45.999
s-51 56.333 -51 99v10c0 50 24.833 89 74.5 117s118.834 42 207.501 42c92 0 162.667 -14.667 212 -44s74 -71.666 74 -126.999v-6h-139v6c0 18.667 -11.833 32.167 -35.5 40.5s-62.167 12.5 -115.5 12.5c-43.333 0 -76.666 -3 -99.999 -9s-35 -14.667 -35 -26v-6
c0 -10 5.5 -17.667 16.5 -23s29.167 -9.33301 54.5 -12l131 -13c78.667 -8 135.834 -23.667 171.501 -47s53.5 -57 53.5 -101v-10c0 -50.667 -25.333 -90 -76 -118s-121 -42 -211 -42c-94 0 -167.167 14.833 -219.5 44.5zM572.997 738.999v-119l-441 -67v119z" />
    <glyph glyph-name="Scircumflex" unicode="&#x15c;" horiz-adv-x="771" 
d="M142 46c-56 38.667 -84 95.335 -84 170.002v10h148v-10c0 -32 16 -56.333 48 -73s78.667 -25 140 -25c54.667 0 96.167 5.83301 124.5 17.5s42.5 28.834 42.5 51.501v7c0 18 -8 31.833 -24 41.5s-44.333 17.5 -85 23.5l-167 24c-144 21.333 -216 80.666 -216 177.999v10
c0 62 27.167 110.333 81.5 145s130.5 52 228.5 52c104 0 183.333 -18.667 238 -56s82 -91.333 82 -162v-9h-148v9c0 58.667 -57.333 88 -172 88c-51.333 0 -90.5 -5.33301 -117.5 -16s-40.5 -26.334 -40.5 -47.001v-8c0 -15.333 7.5 -27.333 22.5 -36
s40.833 -15.667 77.5 -21l168 -24c76.667 -11.333 133.167 -31.833 169.5 -61.5s54.5 -70.834 54.5 -123.501v-10c0 -64 -28.333 -113.833 -85 -149.5s-136.667 -53.5 -240 -53.5c-108 0 -190 19.333 -246 58zM382 894.001l221 -64v-122l-221 63l-220 -63v122z" />
    <glyph glyph-name="scircumflex" unicode="&#x15d;" horiz-adv-x="688" 
d="M129.5 32.5c-52.333 29.667 -78.5029 71.833 -78.5029 126.5v5h139v-5c0 -18.667 12.667 -32.167 38 -40.5s66.333 -12.5 123 -12.5c93.333 0 140 13.333 140 40v5c0 10 -6 17.667 -18 23s-33.667 9.33301 -65 12l-129 13c-74 7.33301 -128 22.666 -162 45.999
s-51 56.333 -51 99v10c0 50 24.833 89 74.5 117s118.834 42 207.501 42c92 0 162.667 -14.667 212 -44s74 -71.666 74 -126.999v-6h-139v6c0 18.667 -11.833 32.167 -35.5 40.5s-62.167 12.5 -115.5 12.5c-43.333 0 -76.666 -3 -99.999 -9s-35 -14.667 -35 -26v-6
c0 -10 5.5 -17.667 16.5 -23s29.167 -9.33301 54.5 -12l131 -13c78.667 -8 135.834 -23.667 171.501 -47s53.5 -57 53.5 -101v-10c0 -50.667 -25.333 -90 -76 -118s-121 -42 -211 -42c-94 0 -167.167 14.833 -219.5 44.5zM351.997 738.999l221 -64v-122l-221 63l-220 -63
v122z" />
    <glyph glyph-name="Scedilla" unicode="&#x15e;" horiz-adv-x="771" 
d="M142 46c-56 38.667 -84 95.335 -84 170.002v10h148v-10c0 -32 16 -56.333 48 -73s78.667 -25 140 -25c54.667 0 96.167 5.83301 124.5 17.5s42.5 28.834 42.5 51.501v7c0 18 -8 31.833 -24 41.5s-44.333 17.5 -85 23.5l-167 24c-144 21.333 -216 80.666 -216 177.999v10
c0 62 27.167 110.333 81.5 145s130.5 52 228.5 52c104 0 183.333 -18.667 238 -56s82 -91.333 82 -162v-9h-148v9c0 58.667 -57.333 88 -172 88c-51.333 0 -90.5 -5.33301 -117.5 -16s-40.5 -26.334 -40.5 -47.001v-8c0 -15.333 7.5 -27.333 22.5 -36
s40.833 -15.667 77.5 -21l168 -24c76.667 -11.333 133.167 -31.833 169.5 -61.5s54.5 -70.834 54.5 -123.501v-10c0 -64 -28.333 -113.833 -85 -149.5s-136.667 -53.5 -240 -53.5c-108 0 -190 19.333 -246 58zM457 0.000976562l-48 -170h-157l63 220z" />
    <glyph glyph-name="scedilla" unicode="&#x15f;" horiz-adv-x="688" 
d="M129.5 32.5c-52.333 29.667 -78.5029 71.833 -78.5029 126.5v5h139v-5c0 -18.667 12.667 -32.167 38 -40.5s66.333 -12.5 123 -12.5c93.333 0 140 13.333 140 40v5c0 10 -6 17.667 -18 23s-33.667 9.33301 -65 12l-129 13c-74 7.33301 -128 22.666 -162 45.999
s-51 56.333 -51 99v10c0 50 24.833 89 74.5 117s118.834 42 207.501 42c92 0 162.667 -14.667 212 -44s74 -71.666 74 -126.999v-6h-139v6c0 18.667 -11.833 32.167 -35.5 40.5s-62.167 12.5 -115.5 12.5c-43.333 0 -76.666 -3 -99.999 -9s-35 -14.667 -35 -26v-6
c0 -10 5.5 -17.667 16.5 -23s29.167 -9.33301 54.5 -12l131 -13c78.667 -8 135.834 -23.667 171.501 -47s53.5 -57 53.5 -101v-10c0 -50.667 -25.333 -90 -76 -118s-121 -42 -211 -42c-94 0 -167.167 14.833 -219.5 44.5zM425.997 -0.000976562l-48 -170h-157l63 220z" />
    <glyph glyph-name="Scaron" unicode="&#x160;" horiz-adv-x="771" 
d="M142 46c-56 38.667 -84 95.335 -84 170.002v10h148v-10c0 -32 16 -56.333 48 -73s78.667 -25 140 -25c54.667 0 96.167 5.83301 124.5 17.5s42.5 28.834 42.5 51.501v7c0 18 -8 31.833 -24 41.5s-44.333 17.5 -85 23.5l-167 24c-144 21.333 -216 80.666 -216 177.999v10
c0 62 27.167 110.333 81.5 145s130.5 52 228.5 52c104 0 183.333 -18.667 238 -56s82 -91.333 82 -162v-9h-148v9c0 58.667 -57.333 88 -172 88c-51.333 0 -90.5 -5.33301 -117.5 -16s-40.5 -26.334 -40.5 -47.001v-8c0 -15.333 7.5 -27.333 22.5 -36
s40.833 -15.667 77.5 -21l168 -24c76.667 -11.333 133.167 -31.833 169.5 -61.5s54.5 -70.834 54.5 -123.501v-10c0 -64 -28.333 -113.833 -85 -149.5s-136.667 -53.5 -240 -53.5c-108 0 -190 19.333 -246 58zM162 894.001l220 -64l221 64v-123l-221 -63l-220 63v123z" />
    <glyph glyph-name="scaron" unicode="&#x161;" horiz-adv-x="688" 
d="M129.5 32.5c-52.333 29.667 -78.5029 71.833 -78.5029 126.5v5h139v-5c0 -18.667 12.667 -32.167 38 -40.5s66.333 -12.5 123 -12.5c93.333 0 140 13.333 140 40v5c0 10 -6 17.667 -18 23s-33.667 9.33301 -65 12l-129 13c-74 7.33301 -128 22.666 -162 45.999
s-51 56.333 -51 99v10c0 50 24.833 89 74.5 117s118.834 42 207.501 42c92 0 162.667 -14.667 212 -44s74 -71.666 74 -126.999v-6h-139v6c0 18.667 -11.833 32.167 -35.5 40.5s-62.167 12.5 -115.5 12.5c-43.333 0 -76.666 -3 -99.999 -9s-35 -14.667 -35 -26v-6
c0 -10 5.5 -17.667 16.5 -23s29.167 -9.33301 54.5 -12l131 -13c78.667 -8 135.834 -23.667 171.501 -47s53.5 -57 53.5 -101v-10c0 -50.667 -25.333 -90 -76 -118s-121 -42 -211 -42c-94 0 -167.167 14.833 -219.5 44.5zM131.997 738.999l220 -64l221 64v-123l-221 -63
l-220 63v123z" />
    <glyph glyph-name="uni0162" unicode="&#x162;" horiz-adv-x="691" 
d="M14 521v135h663v-135h-256v-521h-151v521h-256zM420 0l-48 -170h-157l63 220z" />
    <glyph glyph-name="uni0163" unicode="&#x163;" horiz-adv-x="520" 
d="M304 373v-190c0 -18 5.16699 -31.833 15.5 -41.5s25.166 -14.5 44.499 -14.5h118v-127h-137c-57.333 0 -102.666 15.5 -135.999 46.5s-50 73.167 -50 126.5v200h-167v128h134c14 0 23.667 2.66699 29 8s8 15 8 29v96h141v-133h208v-128h-208zM434 0l-48 -170h-157l63 220
z" />
    <glyph glyph-name="Tcaron" unicode="&#x164;" horiz-adv-x="691" 
d="M14 521v135h663v-135h-256v-521h-151v521h-256zM126 894l220 -64l221 64v-123l-221 -63l-220 63v123z" />
    <glyph glyph-name="tcaron" unicode="&#x165;" horiz-adv-x="570" 
d="M304 373v-190c0 -18 5.16699 -31.833 15.5 -41.5s25.166 -14.5 44.499 -14.5h118v-127h-137c-57.333 0 -102.666 15.5 -135.999 46.5s-50 73.167 -50 126.5v200h-167v128h134c14 0 23.667 2.66699 29 8s8 15 8 29v96h141v-133h208v-128h-208zM585 740l-61 -187h-136
l25 187h172z" />
    <glyph glyph-name="Tbar" unicode="&#x166;" horiz-adv-x="711" 
d="M431 521v-165h207v-129h-207v-227h-151v227h-187v129h187v165h-256v135h663v-135h-256z" />
    <glyph glyph-name="tbar" unicode="&#x167;" horiz-adv-x="558" 
d="M327 379v-60h210v-121h-210v-18c0 -16.667 4.66699 -29.667 14 -39s22.333 -14 39 -14h124v-127h-136c-58 0 -103.5 15.5 -136.5 46.5s-49.5 73.167 -49.5 126.5v25h-168v121h168v60h-168v122h134c14 0 23.667 2.66699 29 8s8 15 8 29v96h142v-133h210v-122h-210z" />
    <glyph glyph-name="Utilde" unicode="&#x168;" horiz-adv-x="793" 
d="M223.5 26.5c-49.667 25.667 -88 61.834 -115 108.501s-40.5 101 -40.5 163v358h150v-360c0 -54 15.5 -95.667 46.5 -125s74.833 -44 131.5 -44c57.333 0 101.5 14.667 132.5 44s46.5 71 46.5 125v360h150v-358c0 -62 -13.5 -116.333 -40.5 -163
s-65.333 -82.834 -115 -108.501s-107.5 -38.5 -173.5 -38.5c-65.333 0 -122.833 12.833 -172.5 38.5zM433 732c-23.333 4.66699 -37.0029 7.33496 -41.0029 8.00195c-42.667 10 -77 15 -103 15c-38 0 -75.333 -9 -112 -27v118c38.667 18.667 76.667 28 114 28
c16 0 31.333 -1.33301 46 -4s33.667 -6.66699 57 -12c4 -0.666992 13.667 -2.83398 29 -6.50098s29.833 -6.33398 43.5 -8.00098s26.5 -2.5 38.5 -2.5c38.667 0 76.334 8.33301 113.001 25v-118c-35.333 -15.333 -73.666 -23 -114.999 -23
c-23.333 0 -46.666 2.33301 -69.999 7z" />
    <glyph glyph-name="utilde" unicode="&#x169;" horiz-adv-x="711" 
d="M638 501l0.00195312 -501h-135l-4 48c-44 -38.667 -100.333 -58.667 -169 -60c-86 -0.666992 -151.5 21.5 -196.5 66.5s-67.5 111.5 -67.5 199.5v247h145v-247c0 -43.333 11.833 -76.5 35.5 -99.5s58.167 -34.5 103.5 -34.5c31.333 0 59.666 7.16699 84.999 21.5
s44.666 33.833 57.999 58.5v301h145zM388.002 577c-23.333 4.66699 -37.0029 7.33496 -41.0029 8.00195c-42.667 10 -77 15 -103 15c-38 0 -75.333 -9 -112 -27v118c38.667 18.667 76.667 28 114 28c16 0 31.333 -1.33301 46 -4s33.667 -6.66699 57 -12
c4 -0.666992 13.667 -2.83398 29 -6.50098s29.833 -6.33398 43.5 -8.00098s26.5 -2.5 38.5 -2.5c38.667 0 76.334 8.33301 113.001 25v-118c-35.333 -15.333 -73.666 -23 -114.999 -23c-23.333 0 -46.666 2.33301 -69.999 7z" />
    <glyph glyph-name="Umacron" unicode="&#x16a;" horiz-adv-x="793" 
d="M223.5 26.5c-49.667 25.667 -88 61.834 -115 108.501s-40.5 101 -40.5 163v358h150v-360c0 -54 15.5 -95.667 46.5 -125s74.833 -44 131.5 -44c57.333 0 101.5 14.667 132.5 44s46.5 71 46.5 125v360h150v-358c0 -62 -13.5 -116.333 -40.5 -163
s-65.333 -82.834 -115 -108.501s-107.5 -38.5 -173.5 -38.5c-65.333 0 -122.833 12.833 -172.5 38.5zM618 859v-120h-441v120h441z" />
    <glyph glyph-name="umacron" unicode="&#x16b;" horiz-adv-x="711" 
d="M638 501l0.00195312 -501h-135l-4 48c-44 -38.667 -100.333 -58.667 -169 -60c-86 -0.666992 -151.5 21.5 -196.5 66.5s-67.5 111.5 -67.5 199.5v247h145v-247c0 -43.333 11.833 -76.5 35.5 -99.5s58.167 -34.5 103.5 -34.5c31.333 0 59.666 7.16699 84.999 21.5
s44.666 33.833 57.999 58.5v301h145zM573.002 704v-120h-441v120h441z" />
    <glyph glyph-name="Ubreve" unicode="&#x16c;" horiz-adv-x="793" 
d="M223.5 26.5c-49.667 25.667 -88 61.834 -115 108.501s-40.5 101 -40.5 163v358h150v-360c0 -54 15.5 -95.667 46.5 -125s74.833 -44 131.5 -44c57.333 0 101.5 14.667 132.5 44s46.5 71 46.5 125v360h150v-358c0 -62 -13.5 -116.333 -40.5 -163
s-65.333 -82.834 -115 -108.501s-107.5 -38.5 -173.5 -38.5c-65.333 0 -122.833 12.833 -172.5 38.5zM177 764l0.000976562 119c80.667 -33.333 155 -50 223 -50s140.667 16.667 218 50v-119c-76.667 -33.333 -149.334 -50 -218.001 -50c-70 0 -144.333 16.667 -223 50z" />
    <glyph glyph-name="ubreve" unicode="&#x16d;" horiz-adv-x="711" 
d="M638 501l0.00195312 -501h-135l-4 48c-44 -38.667 -100.333 -58.667 -169 -60c-86 -0.666992 -151.5 21.5 -196.5 66.5s-67.5 111.5 -67.5 199.5v247h145v-247c0 -43.333 11.833 -76.5 35.5 -99.5s58.167 -34.5 103.5 -34.5c31.333 0 59.666 7.16699 84.999 21.5
s44.666 33.833 57.999 58.5v301h145zM132.002 609l0.000976562 119c80.667 -33.333 155 -50 223 -50s140.667 16.667 218 50v-119c-76.667 -33.333 -149.334 -50 -218.001 -50c-70 0 -144.333 16.667 -223 50z" />
    <glyph glyph-name="Uring" unicode="&#x16e;" horiz-adv-x="793" 
d="M223.5 26.5c-49.667 25.667 -88 61.834 -115 108.501s-40.5 101 -40.5 163v358h150v-360c0 -54 15.5 -95.667 46.5 -125s74.833 -44 131.5 -44c57.333 0 101.5 14.667 132.5 44s46.5 71 46.5 125v360h150v-358c0 -62 -13.5 -116.333 -40.5 -163
s-65.333 -82.834 -115 -108.501s-107.5 -38.5 -173.5 -38.5c-65.333 0 -122.833 12.833 -172.5 38.5zM270 732c-30 23.333 -45 56.666 -45 99.999c0 42.667 15.5 76 46.5 100s72.833 36 125.5 36s94.5 -12 125.5 -36s46.5 -57.333 46.5 -100
c0 -43.333 -15 -76.666 -45 -99.999s-72.333 -35 -127 -35s-97 11.667 -127 35zM441 796.5c10 8.33301 15 20.166 15 35.499c0 16 -5.16699 28.167 -15.5 36.5s-24.833 12.5 -43.5 12.5s-33.167 -4.33301 -43.5 -13s-15.5 -20.667 -15.5 -36s5.16699 -27.166 15.5 -35.499
s24.833 -12.5 43.5 -12.5c19.333 0 34 4.16699 44 12.5z" />
    <glyph glyph-name="uring" unicode="&#x16f;" horiz-adv-x="711" 
d="M638 501l0.00195312 -501h-135l-4 48c-44 -38.667 -100.333 -58.667 -169 -60c-86 -0.666992 -151.5 21.5 -196.5 66.5s-67.5 111.5 -67.5 199.5v247h145v-247c0 -43.333 11.833 -76.5 35.5 -99.5s58.167 -34.5 103.5 -34.5c31.333 0 59.666 7.16699 84.999 21.5
s44.666 33.833 57.999 58.5v301h145zM225.002 577c-30 23.333 -45 56.666 -45 99.999c0 42.667 15.5 76 46.5 100s72.833 36 125.5 36s94.5 -12 125.5 -36s46.5 -57.333 46.5 -100c0 -43.333 -15 -76.666 -45 -99.999s-72.333 -35 -127 -35s-97 11.667 -127 35z
M396.002 641.5c10 8.33301 15 20.166 15 35.499c0 16 -5.16699 28.167 -15.5 36.5s-24.833 12.5 -43.5 12.5s-33.167 -4.33301 -43.5 -13s-15.5 -20.667 -15.5 -36s5.16699 -27.166 15.5 -35.499s24.833 -12.5 43.5 -12.5c19.333 0 34 4.16699 44 12.5z" />
    <glyph glyph-name="Uhungarumlaut" unicode="&#x170;" horiz-adv-x="793" 
d="M223.5 26.5c-49.667 25.667 -88 61.834 -115 108.501s-40.5 101 -40.5 163v358h150v-360c0 -54 15.5 -95.667 46.5 -125s74.833 -44 131.5 -44c57.333 0 101.5 14.667 132.5 44s46.5 71 46.5 125v360h150v-358c0 -62 -13.5 -116.333 -40.5 -163
s-65.333 -82.834 -115 -108.501s-107.5 -38.5 -173.5 -38.5c-65.333 0 -122.833 12.833 -172.5 38.5zM422 894v-122l-271 -64v121zM723 894v-122l-270 -64v121z" />
    <glyph glyph-name="uhungarumlaut" unicode="&#x171;" horiz-adv-x="711" 
d="M638 501l0.00195312 -501h-135l-4 48c-44 -38.667 -100.333 -58.667 -169 -60c-86 -0.666992 -151.5 21.5 -196.5 66.5s-67.5 111.5 -67.5 199.5v247h145v-247c0 -43.333 11.833 -76.5 35.5 -99.5s58.167 -34.5 103.5 -34.5c31.333 0 59.666 7.16699 84.999 21.5
s44.666 33.833 57.999 58.5v301h145zM377.002 739v-122l-271 -64v121zM678.002 739v-122l-270 -64v121z" />
    <glyph glyph-name="Uogonek" unicode="&#x172;" horiz-adv-x="793" 
d="M223.5 26.5c-49.667 25.667 -88 61.834 -115 108.501s-40.5 101 -40.5 163v358h150v-360c0 -54 15.5 -95.667 46.5 -125s74.833 -44 131.5 -44c57.333 0 101.5 14.667 132.5 44s46.5 71 46.5 125v360h150v-358c0 -62 -13.5 -116.333 -40.5 -163
s-65.333 -82.834 -115 -108.501s-107.5 -38.5 -173.5 -38.5c-65.333 0 -122.833 12.833 -172.5 38.5zM367.5 -144.5c-22.333 17 -33.5 39.1699 -33.5 66.5029c0 20 6.83301 39.167 20.5 57.5s36.167 39.166 67.5 62.499l92 69l91 -61l-86 -69
c-8 -6.66699 -13.5 -11.834 -16.5 -15.501s-4.5 -7.83398 -4.5 -12.501c0 -5.33301 2.33301 -9.83301 7 -13.5s10.667 -5.5 18 -5.5h60v-104h-127c-36.667 0 -66.167 8.5 -88.5 25.5z" />
    <glyph glyph-name="uogonek" unicode="&#x173;" horiz-adv-x="711" 
d="M638 501l0.00195312 -501h-135l-4 48c-44 -38.667 -100.333 -58.667 -169 -60c-86 -0.666992 -151.5 21.5 -196.5 66.5s-67.5 111.5 -67.5 199.5v247h145v-247c0 -43.333 11.833 -76.5 35.5 -99.5s58.167 -34.5 103.5 -34.5c31.333 0 59.666 7.16699 84.999 21.5
s44.666 33.833 57.999 58.5v301h145zM424.002 -148.5c-20.667 14.333 -31 33.833 -31 58.5c0 20 6 37.333 18 52s33.333 32 64 52l118 75l45 -89l-77 -42c-8 -5.33301 -12 -10.333 -12 -15c0 -6.66699 5.66699 -10 17 -10h72v-103h-130c-35.333 0 -63.333 7.16699 -84 21.5z
" />
    <glyph glyph-name="Wcircumflex" unicode="&#x174;" horiz-adv-x="1175" 
d="M1164 656v-23l-227 -633h-183l-166 466l-165 -466h-183l-229 633v23h153l168 -489l174 489h164l174 -488l167 488h153zM588 894l221 -64v-122l-221 63l-220 -63v122z" />
    <glyph glyph-name="wcircumflex" unicode="&#x175;" horiz-adv-x="1067" 
d="M1048 501v-21l-195 -480h-190l-130 318l-129 -318h-189l-196 480v21h155l136 -364l148 364h149l151 -370l142 370h148zM534 739l221 -64v-122l-221 63l-220 -63v122z" />
    <glyph glyph-name="Ycircumflex" unicode="&#x176;" horiz-adv-x="726" 
d="M727 656v-23l-288 -378v-255h-151v255l-289 378v23h163l201 -265l201 265h163zM363 894l221 -64v-122l-221 63l-220 -63v122z" />
    <glyph glyph-name="ycircumflex" unicode="&#x177;" horiz-adv-x="697" 
d="M678 501v-21l-265 -530c-21.333 -42 -47.666 -72.5 -78.999 -91.5s-73.333 -28.5 -126 -28.5h-131v127h124c18 0 32.167 2.16699 42.5 6.5s19.166 12.5 26.499 24.5l-251 492v21h154l177 -361l174 361h154zM349 739l221 -64v-122l-221 63l-220 -63v122z" />
    <glyph glyph-name="Ydieresis" unicode="&#x178;" horiz-adv-x="726" 
d="M727 656v-23l-288 -378v-255h-151v255l-289 378v23h163l201 -265l201 265h163zM172 740.5c-16 15 -24 34.167 -24 57.5c0 24 8 43.333 24 58s36.667 22 62 22c24 0 43.833 -7.33301 59.5 -22s23.5 -34 23.5 -58c0 -23.333 -7.83301 -42.5 -23.5 -57.5
s-35.5 -22.5 -59.5 -22.5c-25.333 0 -46 7.5 -62 22.5zM432 740.5c-16 15 -23.998 34.167 -23.998 57.5c0 24 7.83301 43.333 23.5 58s36.167 22 61.5 22s45.666 -7.33301 60.999 -22s23 -34 23 -58c0 -23.333 -7.83301 -42.5 -23.5 -57.5s-35.834 -22.5 -60.501 -22.5
s-45 7.5 -61 22.5z" />
    <glyph glyph-name="Zacute" unicode="&#x179;" horiz-adv-x="696" 
d="M654 522l-412 -388h412v-134h-612v134l412 388h-412v134h612v-134zM569 894v-119l-441 -67v119z" />
    <glyph glyph-name="zacute" unicode="&#x17a;" horiz-adv-x="642" 
d="M582 378l-326 -255h326v-123h-522v123l325 254h-325v124h522v-123zM546 739v-119l-441 -67v119z" />
    <glyph glyph-name="Zdotaccent" unicode="&#x17b;" horiz-adv-x="696" 
d="M654 522l-412 -388h412v-134h-612v134l412 388h-412v134h612v-134zM283 737.5c-16.667 15.667 -24.998 36.167 -24.998 61.5s8.33301 45.833 25 61.5s38.334 23.5 65.001 23.5c27.333 0 49.166 -7.83301 65.499 -23.5s24.5 -36.167 24.5 -61.5
s-8.33301 -45.833 -25 -61.5s-38.334 -23.5 -65.001 -23.5s-48.334 7.83301 -65.001 23.5z" />
    <glyph glyph-name="zdotaccent" unicode="&#x17c;" horiz-adv-x="642" 
d="M582 378l-326 -255h326v-123h-522v123l325 254h-325v124h522v-123zM260 582.5c-16.667 15.667 -24.998 36.167 -24.998 61.5s8.33301 45.833 25 61.5s38.334 23.5 65.001 23.5c27.333 0 49.166 -7.83301 65.499 -23.5s24.5 -36.167 24.5 -61.5
s-8.33301 -45.833 -25 -61.5s-38.334 -23.5 -65.001 -23.5s-48.334 7.83301 -65.001 23.5z" />
    <glyph glyph-name="Zcaron" unicode="&#x17d;" horiz-adv-x="696" 
d="M654 522l-412 -388h412v-134h-612v134l412 388h-412v134h612v-134zM128 894l220 -64l221 64v-123l-221 -63l-220 63v123z" />
    <glyph glyph-name="zcaron" unicode="&#x17e;" horiz-adv-x="642" 
d="M582 378l-326 -255h326v-123h-522v123l325 254h-325v124h522v-123zM105 739l220 -64l221 64v-123l-221 -63l-220 63v123z" />
    <glyph glyph-name="uni018F" unicode="&#x18f;" horiz-adv-x="877" 
d="M642.5 628c59.667 -27.333 105.667 -66.333 138 -117s48.5 -110.334 48.5 -179.001v-9c0 -68 -16 -127.167 -48 -177.5s-77.5 -89.166 -136.5 -116.499s-128.167 -41 -207.5 -41c-81.333 0 -151.166 14.167 -209.499 42.5s-102.833 69.333 -133.5 123
s-46 117.834 -46 192.501v37h623c-10.667 49.333 -36.667 87.166 -78 113.499s-95.666 39.5 -162.999 39.5c-56.667 0 -104.334 -9.16699 -143.001 -27.5s-63.667 -43.833 -75 -76.5h-160c10.667 48 33.167 89.833 67.5 125.5s78.166 63.167 131.499 82.5
s113.666 29 180.999 29c80.667 0 150.834 -13.667 210.501 -41zM587.5 156.5c40.333 24.333 67.1689 58.5 80.502 102.5h-462c11.333 -46 36.166 -80.667 74.499 -104s89.833 -35 154.5 -35c61.333 0 112.166 12.167 152.499 36.5z" />
    <glyph glyph-name="florin" unicode="&#x192;" horiz-adv-x="816" 
d="M759 259l-299 0.000976562v-237c0 -50.667 -16 -91.334 -48 -122.001s-74.667 -46 -128 -46h-187v128h167c34.667 0 52 18.667 52 56v221h-259v128h259v142c0 50.667 16 91.167 48 121.5s74.667 45.5 128 45.5h227v-127h-207c-34.667 0 -52 -18.667 -52 -56v-126h299
v-128z" />
    <glyph glyph-name="uni01CD" unicode="&#x1cd;" horiz-adv-x="770" 
d="M759 23v-23h-150l-60 136h-328l-60 -136h-150v23l291 633h166zM492 266l-107 244l-107 -244h214zM165 894l220 -64l221 64v-123l-221 -63l-220 63v123z" />
    <glyph glyph-name="uni01CE" unicode="&#x1ce;" horiz-adv-x="716" 
d="M709 127l-0.000976562 -126.998h-85c-30.667 0 -57.167 5.16699 -79.5 15.5s-39.166 25.166 -50.499 44.499c-50.667 -48 -122.667 -72 -216 -72c-70.667 0 -125.667 13.333 -165 40s-59 64 -59 112c0 40.667 14.667 73.167 44 97.5s72 39.5 128 45.5l247 27
c-8 49.333 -52.667 74 -134 74c-42.667 0 -75.834 -5.83301 -99.501 -17.5s-35.5 -27.834 -35.5 -48.501v-3h-146v3c0 39.333 11.5 73.666 34.5 102.999s55.833 52 98.5 68s92.334 24 149.001 24c88 0 156.5 -19.667 205.5 -59s73.5 -93.666 73.5 -162.999v-124
c0 -26.667 15.333 -40 46 -40h44zM401.499 123.502c33 13 57.167 30.501 72.5 52.501v34l-210 -24c-22 -2.66699 -38.333 -7.33398 -49 -14.001s-16 -16 -16 -28c0 -26.667 29.667 -40 89 -40c42.667 0 80.5 6.5 113.5 19.5zM120.999 739.003l220 -64l221 64v-123l-221 -63
l-220 63v123z" />
    <glyph glyph-name="uni01D2" unicode="&#x1d2;" horiz-adv-x="685" 
d="M181 18.5c-46 20.333 -81.333 49.666 -106 87.999s-37 83.5 -37 135.5v13c0 53.333 12.167 99.333 36.5 138s59.5 68.334 105.5 89.001s100.667 31 164 31c62.667 0 116.667 -10.333 162 -31s80.166 -50.334 104.499 -89.001s36.5 -84.667 36.5 -138v-13
c0 -52 -12.167 -97.167 -36.5 -135.5s-59.166 -67.666 -104.499 -87.999s-99.333 -30.5 -162 -30.5s-117 10.167 -163 30.5zM456.5 152c27 21.333 40.5 51.666 40.5 90.999v11c0 40.667 -13.333 72 -40 94s-64.667 33 -114 33c-50 0 -88.333 -10.833 -115 -32.5
s-40 -53.167 -40 -94.5v-11c0 -39.333 13.5 -69.666 40.5 -90.999s65.167 -32 114.5 -32c48.667 0 86.5 10.667 113.5 32zM123 739l220 -64l221 64v-123l-221 -63l-220 63v123z" />
    <glyph glyph-name="Gcaron" unicode="&#x1e6;" horiz-adv-x="879" 
d="M830 360l0.000976562 -359.998h-135l-5 58c-61.333 -46.667 -141.333 -70 -240 -70c-81.333 0 -152.333 13.5 -213 40.5s-107.334 65.667 -140.001 116s-49 109.5 -49 177.5v11c0 67.333 16.5 126.166 49.5 176.499s79.667 89.333 140 117s130.5 41.5 210.5 41.5
c76.667 0 143.667 -9.83301 201 -29.5s101.666 -47.5 132.999 -83.5s47 -78 47 -126v-4h-153v4c0 18 -10.167 34.833 -30.5 50.5s-47.666 28.167 -81.999 37.5s-71.5 14 -111.5 14c-80.667 0 -142.667 -16.833 -186 -50.5s-65 -82.167 -65 -145.5v-15
c0 -64.667 21.167 -113.334 63.5 -146.001s104.833 -49 187.5 -49c50 0 94.5 6.16699 133.5 18.5s71.5 29.5 97.5 51.5v41h-327v124h474zM227.001 894.002l220 -64l221 64v-123l-221 -63l-220 63v123z" />
    <glyph glyph-name="gcaron" unicode="&#x1e7;" horiz-adv-x="709" 
d="M636 501v-445c0 -160 -99 -239.333 -297 -238c-94 0 -167.333 17 -220 51s-79 81.333 -79 142v6h148v-6c0 -19.333 14 -35.333 42 -48s63.333 -19 106 -19c50.667 0 89.167 9.16699 115.5 27.5s39.5 44.833 39.5 79.5v26c-46.667 -31.333 -101.667 -47 -165 -47
c-92.667 0 -164 20 -214 60s-75 97.333 -75 172v10c0 76 25.333 135.167 76 177.5s121.667 63.5 213 63.5c68 0 125.333 -17 172 -51l3 39h135zM429 169c26.667 10 47.333 23.668 62 41.001v117c-14.667 17.333 -35.5 31.333 -62.5 42s-56.167 16 -87.5 16
c-102.667 0 -154 -37.667 -154 -113v-10c0 -36.667 12.5 -63.834 37.5 -81.501s63.833 -26.5 116.5 -26.5c32 0 61.333 5 88 15zM125.999 739.001l220 -64l221 64v-123l-221 -63l-220 63v123z" />
    <glyph glyph-name="uni01F4" unicode="&#x1f4;" horiz-adv-x="879" 
d="M830 360l0.000976562 -359.998h-135l-5 58c-61.333 -46.667 -141.333 -70 -240 -70c-81.333 0 -152.333 13.5 -213 40.5s-107.334 65.667 -140.001 116s-49 109.5 -49 177.5v11c0 67.333 16.5 126.166 49.5 176.499s79.667 89.333 140 117s130.5 41.5 210.5 41.5
c76.667 0 143.667 -9.83301 201 -29.5s101.666 -47.5 132.999 -83.5s47 -78 47 -126v-4h-153v4c0 18 -10.167 34.833 -30.5 50.5s-47.666 28.167 -81.999 37.5s-71.5 14 -111.5 14c-80.667 0 -142.667 -16.833 -186 -50.5s-65 -82.167 -65 -145.5v-15
c0 -64.667 21.167 -113.334 63.5 -146.001s104.833 -49 187.5 -49c50 0 94.5 6.16699 133.5 18.5s71.5 29.5 97.5 51.5v41h-327v124h474zM668.001 894.002v-119l-441 -67v119z" />
    <glyph glyph-name="uni01F5" unicode="&#x1f5;" horiz-adv-x="709" 
d="M636 501v-445c0 -160 -99 -239.333 -297 -238c-94 0 -167.333 17 -220 51s-79 81.333 -79 142v6h148v-6c0 -19.333 14 -35.333 42 -48s63.333 -19 106 -19c50.667 0 89.167 9.16699 115.5 27.5s39.5 44.833 39.5 79.5v26c-46.667 -31.333 -101.667 -47 -165 -47
c-92.667 0 -164 20 -214 60s-75 97.333 -75 172v10c0 76 25.333 135.167 76 177.5s121.667 63.5 213 63.5c68 0 125.333 -17 172 -51l3 39h135zM429 169c26.667 10 47.333 23.668 62 41.001v117c-14.667 17.333 -35.5 31.333 -62.5 42s-56.167 16 -87.5 16
c-102.667 0 -154 -37.667 -154 -113v-10c0 -36.667 12.5 -63.834 37.5 -81.501s63.833 -26.5 116.5 -26.5c32 0 61.333 5 88 15zM566.999 739.001v-119l-441 -67v119z" />
    <glyph glyph-name="AEacute" unicode="&#x1fc;" horiz-adv-x="1072" 
d="M573 524l29 -130h388v-131h-359l29 -131h350v-132h-475l-30 136h-283l-61 -136h-150v23l291 633h708v-132h-437zM421 524h-26l-115 -258h197zM757 894v-119l-441 -67v119z" />
    <glyph glyph-name="aeacute" unicode="&#x1fd;" horiz-adv-x="1098" 
d="M1060 207l-442.002 0.00195312c4.66699 -32 19.834 -56.333 45.501 -73s61.167 -25 106.5 -25c38.667 0 70.5 5.66699 95.5 17s39.167 26.333 42.5 45h151c-6.66699 -57.333 -35 -102.166 -85 -134.499s-115.667 -48.5 -197 -48.5c-54 0 -101.667 7.16699 -143 21.5
s-75 35.5 -101 63.5c-26 -27.333 -60 -48.333 -102 -63s-90.333 -22 -145 -22c-73.333 0 -130.333 13.167 -171 39.5s-61 63.166 -61 110.499c0 40.667 14.833 73.5 44.5 98.5s72.167 40.5 127.5 46.5l246 27c-4.66699 24 -19 42.333 -43 55s-56.667 19 -98 19
c-39.333 0 -70.166 -5.83301 -92.499 -17.5s-33.5 -27.834 -33.5 -48.501v-3h-147v3c0 39.333 11.5 73.666 34.5 102.999s55.833 52 98.5 68s92.334 24 149.001 24c99.333 0 170.666 -25.667 213.999 -77c49.333 51.333 122 77 218 77c90 0 160.5 -22.167 211.5 -66.5
s76.5 -105.5 76.5 -183.5v-56zM671.998 371.002c-25.333 -14 -42 -34 -50 -60h286c-7.33301 26 -23 46 -47 60s-55 21 -93 21c-38.667 0 -70.667 -7 -96 -21zM401.998 123.502c35.333 13 61.335 30.499 78.002 52.499c-2.66699 12.667 -4.33398 23.334 -5.00098 32.001
l-205 -23c-47.333 -5.33301 -71 -20 -71 -44c0 -24.667 27.333 -37 82 -37c45.333 0 85.666 6.5 120.999 19.5zM774 739.001v-119l-441 -67v119z" />
    <glyph glyph-name="Oslashacute" unicode="&#x1fe;" horiz-adv-x="877" 
d="M794 486.5c23.333 -45.667 35 -97.168 35 -154.501v-9c0 -68 -16 -127.167 -48 -177.5s-77.333 -89.166 -136 -116.499s-127.334 -41 -206.001 -41c-46 0 -86.667 4.33301 -122 13l-43 -69h-155v23l63 103c-42.667 29.333 -75.667 66.666 -99 111.999s-35 96.333 -35 153
v9c0 67.333 16.167 126.333 48.5 177s78 89.834 137 117.501s127.5 41.5 205.5 41.5c44.667 0 85.334 -4.33301 122.001 -13l42 69h156v-23l-64 -102c42.667 -29.333 75.667 -66.833 99 -112.5zM201 319.999c0 -64.667 19.999 -113.668 59.999 -147.001l227 359
c-15.333 2 -31.666 3 -48.999 3c-77.333 0 -136.333 -17.167 -177 -51.5s-61 -84.166 -61 -149.499v-14zM675.999 333.998c0 65.333 -19.999 115 -59.999 149l-226 -359c16 -2 32.333 -3 49 -3c77.333 0 136.166 16.833 176.499 50.5s60.5 83.167 60.5 148.5v14z
M660 893.998v-119l-441 -67v119z" />
    <glyph glyph-name="oslashacute" unicode="&#x1ff;" horiz-adv-x="685" 
d="M623 370c16 -34 23.999 -72.335 23.999 -115.002v-13c0 -52 -12.167 -97.167 -36.5 -135.5s-59.166 -67.666 -104.499 -87.999s-99.333 -30.5 -162 -30.5c-26 0 -54.667 2.33301 -86 7l-33 -51h-144v18l52 84c-30.667 22 -54.167 49.667 -70.5 83s-24.5 71 -24.5 113v13
c0 53.333 12.167 99.333 36.5 138s59.5 68.334 105.5 89.001s100.667 31 164 31c26.667 0 55 -2.33301 85 -7l31 49h145v-18l-52 -83c30.667 -22 54 -50 70 -84zM177.999 239.998c0 -35.333 9.66602 -63.667 28.999 -85l153 237h-17c-53.333 0 -94.166 -11.5 -122.499 -34.5
s-42.5 -56.833 -42.5 -101.5v-16zM506.998 255.997c0 36 -9.66699 65.332 -29 87.999l-153 -236h18c52.667 0 93.167 11.333 121.5 34s42.5 55.334 42.5 98.001v16zM563.998 738.996v-119l-441 -67v119z" />
    <glyph glyph-name="uni0218" unicode="&#x218;" horiz-adv-x="771" 
d="M142 46c-56 38.667 -84 95.335 -84 170.002v10h148v-10c0 -32 16 -56.333 48 -73s78.667 -25 140 -25c54.667 0 96.167 5.83301 124.5 17.5s42.5 28.834 42.5 51.501v7c0 18 -8 31.833 -24 41.5s-44.333 17.5 -85 23.5l-167 24c-144 21.333 -216 80.666 -216 177.999v10
c0 62 27.167 110.333 81.5 145s130.5 52 228.5 52c104 0 183.333 -18.667 238 -56s82 -91.333 82 -162v-9h-148v9c0 58.667 -57.333 88 -172 88c-51.333 0 -90.5 -5.33301 -117.5 -16s-40.5 -26.334 -40.5 -47.001v-8c0 -15.333 7.5 -27.333 22.5 -36
s40.833 -15.667 77.5 -21l168 -24c76.667 -11.333 133.167 -31.833 169.5 -61.5s54.5 -70.834 54.5 -123.501v-10c0 -64 -28.333 -113.833 -85 -149.5s-136.667 -53.5 -240 -53.5c-108 0 -190 19.333 -246 58zM457 -57.999l-64 -180h-149l56 180h157z" />
    <glyph glyph-name="uni0219" unicode="&#x219;" horiz-adv-x="688" 
d="M129.5 32.5c-52.333 29.667 -78.5029 71.833 -78.5029 126.5v5h139v-5c0 -18.667 12.667 -32.167 38 -40.5s66.333 -12.5 123 -12.5c93.333 0 140 13.333 140 40v5c0 10 -6 17.667 -18 23s-33.667 9.33301 -65 12l-129 13c-74 7.33301 -128 22.666 -162 45.999
s-51 56.333 -51 99v10c0 50 24.833 89 74.5 117s118.834 42 207.501 42c92 0 162.667 -14.667 212 -44s74 -71.666 74 -126.999v-6h-139v6c0 18.667 -11.833 32.167 -35.5 40.5s-62.167 12.5 -115.5 12.5c-43.333 0 -76.666 -3 -99.999 -9s-35 -14.667 -35 -26v-6
c0 -10 5.5 -17.667 16.5 -23s29.167 -9.33301 54.5 -12l131 -13c78.667 -8 135.834 -23.667 171.501 -47s53.5 -57 53.5 -101v-10c0 -50.667 -25.333 -90 -76 -118s-121 -42 -211 -42c-94 0 -167.167 14.833 -219.5 44.5zM425.997 -58.001l-64 -180h-149l56 180h157z" />
    <glyph glyph-name="uni021A" unicode="&#x21a;" horiz-adv-x="691" 
d="M14 521v135h663v-135h-256v-521h-151v521h-256zM420 -58l-64 -180h-149l56 180h157z" />
    <glyph glyph-name="uni021B" unicode="&#x21b;" horiz-adv-x="520" 
d="M304 373v-190c0 -18 5.16699 -31.833 15.5 -41.5s25.166 -14.5 44.499 -14.5h118v-127h-137c-57.333 0 -102.666 15.5 -135.999 46.5s-50 73.167 -50 126.5v200h-167v128h134c14 0 23.667 2.66699 29 8s8 15 8 29v96h141v-133h208v-128h-208zM433 -58l-64 -180h-149
l56 180h157z" />
    <glyph glyph-name="uni0232" unicode="&#x232;" horiz-adv-x="726" 
d="M727 656v-23l-288 -378v-255h-151v255l-289 378v23h163l201 -265l201 265h163zM584 859v-120h-441v120h441z" />
    <glyph glyph-name="uni0233" unicode="&#x233;" horiz-adv-x="697" 
d="M678 501v-21l-265 -530c-21.333 -42 -47.666 -72.5 -78.999 -91.5s-73.333 -28.5 -126 -28.5h-131v127h124c18 0 32.167 2.16699 42.5 6.5s19.166 12.5 26.499 24.5l-251 492v21h154l177 -361l174 361h154zM570 704v-120h-441v120h441z" />
    <glyph glyph-name="uni0237" unicode="&#x237;" horiz-adv-x="286" 
d="M8 -43c20.667 0 36.333 4.99902 47 14.999s16 24.667 16 44v485h144v-494c0 -53.333 -17.5 -96.166 -52.5 -128.499s-81.5 -48.5 -139.5 -48.5h-91v127h76z" />
    <glyph glyph-name="uni0259" unicode="&#x259;" horiz-adv-x="671" 
d="M493 482.5c45.333 -20.333 80 -49.501 104 -87.501s36 -82.667 36 -134v-19c0 -52 -12.167 -97.167 -36.5 -135.5s-59 -67.666 -104 -87.999s-98.167 -30.5 -159.5 -30.5c-93.333 0 -165.833 22 -217.5 66s-77.5 106.333 -77.5 187v52h446
c-4.66699 30.667 -20.167 54.5 -46.5 71.5s-61.166 25.5 -104.499 25.5c-40 0 -72.667 -5.33301 -98 -16s-40 -25.334 -44 -44.001h-152c7.33301 58.667 36.5 103.834 87.5 135.501s119.833 47.5 206.5 47.5c61.333 0 114.666 -10.167 159.999 -30.5zM430 129.999
c25.333 14 41.999 33.667 49.999 59h-289c7.33301 -25.333 23.333 -45 48 -59s56.334 -21 95.001 -21s70.667 7 96 21z" />
    <glyph glyph-name="uni02BB" unicode="&#x2bb;" horiz-adv-x="600" 
d="M713 735l-50 -180h-156l56 180h150z" />
    <glyph glyph-name="uni02BC" unicode="&#x2bc;" horiz-adv-x="334" 
d="M276 696v-21l-98 -270h-134l71 291h161z" />
    <glyph glyph-name="circumflex" unicode="&#x2c6;" horiz-adv-x="600" 
d="M299 739l221 -64v-122l-221 63l-220 -63v122z" />
    <glyph glyph-name="caron" unicode="&#x2c7;" horiz-adv-x="600" 
d="M79 739l220 -64l221 64v-123l-221 -63l-220 63v123z" />
    <glyph glyph-name="uni02C9" unicode="&#x2c9;" horiz-adv-x="600" 
d="M821 704v-120h-441v120h441z" />
    <glyph glyph-name="breve" unicode="&#x2d8;" horiz-adv-x="600" 
d="M79 609l0.000976562 119c80.667 -33.333 155 -50 223 -50s140.667 16.667 218 50v-119c-76.667 -33.333 -149.334 -50 -218.001 -50c-70 0 -144.333 16.667 -223 50z" />
    <glyph glyph-name="dotaccent" unicode="&#x2d9;" horiz-adv-x="600" 
d="M235 582.5c-16.667 15.667 -24.998 36.167 -24.998 61.5s8.33301 45.833 25 61.5s38.334 23.5 65.001 23.5c27.333 0 49.166 -7.83301 65.499 -23.5s24.5 -36.167 24.5 -61.5s-8.33301 -45.833 -25 -61.5s-38.334 -23.5 -65.001 -23.5s-48.334 7.83301 -65.001 23.5z" />
    <glyph glyph-name="ring" unicode="&#x2da;" horiz-adv-x="600" 
d="M173 577c-30 23.333 -45 56.666 -45 99.999c0 42.667 15.5 76 46.5 100s72.833 36 125.5 36s94.5 -12 125.5 -36s46.5 -57.333 46.5 -100c0 -43.333 -15 -76.666 -45 -99.999s-72.333 -35 -127 -35s-97 11.667 -127 35zM344 641.5c10 8.33301 15 20.166 15 35.499
c0 16 -5.16699 28.167 -15.5 36.5s-24.833 12.5 -43.5 12.5s-33.167 -4.33301 -43.5 -13s-15.5 -20.667 -15.5 -36s5.16699 -27.166 15.5 -35.499s24.833 -12.5 43.5 -12.5c19.333 0 34 4.16699 44 12.5z" />
    <glyph glyph-name="ogonek" unicode="&#x2db;" horiz-adv-x="600" 
d="M208 -148.5c-20.667 14.333 -31 33.833 -31 58.5c0 20 6 37.333 18 52s33.333 32 64 52l118 75l45 -89l-77 -42c-8 -5.33301 -12 -10.333 -12 -15c0 -6.66699 5.66699 -10 17 -10h72v-103h-130c-35.333 0 -63.333 7.16699 -84 21.5z" />
    <glyph glyph-name="tilde" unicode="&#x2dc;" horiz-adv-x="600" 
d="M335 577c-23.333 4.66699 -37.0029 7.33496 -41.0029 8.00195c-42.667 10 -77 15 -103 15c-38 0 -75.333 -9 -112 -27v118c38.667 18.667 76.667 28 114 28c16 0 31.333 -1.33301 46 -4s33.667 -6.66699 57 -12c4 -0.666992 13.667 -2.83398 29 -6.50098
s29.833 -6.33398 43.5 -8.00098s26.5 -2.5 38.5 -2.5c38.667 0 76.334 8.33301 113.001 25v-118c-35.333 -15.333 -73.666 -23 -114.999 -23c-23.333 0 -46.666 2.33301 -69.999 7z" />
    <glyph glyph-name="hungarumlaut" unicode="&#x2dd;" horiz-adv-x="600" 
d="M285 739v-122l-271 -64v121zM586 739v-122l-270 -64v121z" />
    <glyph glyph-name="gravecomb" unicode="&#x300;" horiz-adv-x="0" 
d="M-220 740l441 -67v-120l-441 68v119z" />
    <glyph glyph-name="acutecomb" unicode="&#x301;" horiz-adv-x="0" 
d="M221 739v-119l-441 -67v119z" />
    <glyph glyph-name="uni0302" unicode="&#x302;" horiz-adv-x="0" 
d="M0 739l221 -64v-122l-221 63l-220 -63v122z" />
    <glyph glyph-name="tildecomb" unicode="&#x303;" horiz-adv-x="0" 
d="M36 577c-23.333 4.66699 -37.0029 7.33496 -41.0029 8.00195c-42.667 10 -77 15 -103 15c-38 0 -75.333 -9 -112 -27v118c38.667 18.667 76.667 28 114 28c16 0 31.333 -1.33301 46 -4s33.667 -6.66699 57 -12c4 -0.666992 13.667 -2.83398 29 -6.50098
s29.833 -6.33398 43.5 -8.00098s26.5 -2.5 38.5 -2.5c38.667 0 76.334 8.33301 113.001 25v-118c-35.333 -15.333 -73.666 -23 -114.999 -23c-23.333 0 -46.666 2.33301 -69.999 7z" />
    <glyph glyph-name="uni0304" unicode="&#x304;" horiz-adv-x="0" 
d="M221 704v-120h-441v120h441z" />
    <glyph glyph-name="uni0306" unicode="&#x306;" horiz-adv-x="0" 
d="M-220 609l0.000976562 119c80.667 -33.333 155 -50 223 -50s140.667 16.667 218 50v-119c-76.667 -33.333 -149.334 -50 -218.001 -50c-70 0 -144.333 16.667 -223 50z" />
    <glyph glyph-name="uni0307" unicode="&#x307;" horiz-adv-x="0" 
d="M-65 582.5c-16.667 15.667 -24.998 36.167 -24.998 61.5s8.33301 45.833 25 61.5s38.334 23.5 65.001 23.5c27.333 0 49.166 -7.83301 65.499 -23.5s24.5 -36.167 24.5 -61.5s-8.33301 -45.833 -25 -61.5s-38.334 -23.5 -65.001 -23.5s-48.334 7.83301 -65.001 23.5z" />
    <glyph glyph-name="uni0308" unicode="&#x308;" horiz-adv-x="0" 
d="M-191 585.5c-16 15 -24 34.167 -24 57.5c0 24 8 43.333 24 58s36.667 22 62 22c24 0 43.833 -7.33301 59.5 -22s23.5 -34 23.5 -58c0 -23.333 -7.83301 -42.5 -23.5 -57.5s-35.5 -22.5 -59.5 -22.5c-25.333 0 -46 7.5 -62 22.5zM69 585.5
c-16 15 -23.998 34.167 -23.998 57.5c0 24 7.83301 43.333 23.5 58s36.167 22 61.5 22s45.666 -7.33301 60.999 -22s23 -34 23 -58c0 -23.333 -7.83301 -42.5 -23.5 -57.5s-35.834 -22.5 -60.501 -22.5s-45 7.5 -61 22.5z" />
    <glyph glyph-name="uni030A" unicode="&#x30a;" horiz-adv-x="0" 
d="M-127 577c-30 23.333 -45 56.666 -45 99.999c0 42.667 15.5 76 46.5 100s72.833 36 125.5 36s94.5 -12 125.5 -36s46.5 -57.333 46.5 -100c0 -43.333 -15 -76.666 -45 -99.999s-72.333 -35 -127 -35s-97 11.667 -127 35zM44 641.5c10 8.33301 15 20.166 15 35.499
c0 16 -5.16699 28.167 -15.5 36.5s-24.833 12.5 -43.5 12.5s-33.167 -4.33301 -43.5 -13s-15.5 -20.667 -15.5 -36s5.16699 -27.166 15.5 -35.499s24.833 -12.5 43.5 -12.5c19.333 0 34 4.16699 44 12.5z" />
    <glyph glyph-name="uni030B" unicode="&#x30b;" horiz-adv-x="0" 
d="M25 739v-122l-271 -64v121zM326 739v-122l-270 -64v121z" />
    <glyph glyph-name="uni030C" unicode="&#x30c;" horiz-adv-x="0" 
d="M-220 739l220 -64l221 64v-123l-221 -63l-220 63v123z" />
    <glyph glyph-name="uni0312" unicode="&#x312;" horiz-adv-x="0" 
d="M113 735l-50 -180h-156l56 180h150z" />
    <glyph glyph-name="dotbelowcomb" unicode="&#x323;" horiz-adv-x="0" 
d="M-65 -204.5c-16.667 15.667 -25 35.832 -25 60.499c0 25.333 8.33301 46 25 62s38.334 24 65.001 24s48.334 -8 65.001 -24s25 -36.667 25 -62s-8.33301 -45.666 -25 -60.999s-38.334 -23 -65.001 -23s-48.334 7.83301 -65.001 23.5z" />
    <glyph glyph-name="uni0326" unicode="&#x326;" horiz-adv-x="0" 
d="M74 -58l-64 -180h-149l56 180h157z" />
    <glyph glyph-name="uni0327" unicode="&#x327;" horiz-adv-x="0" 
d="M75 0l-48 -170h-157l63 220z" />
    <glyph glyph-name="uni0328" unicode="&#x328;" horiz-adv-x="0" 
d="M-214 -148.5c-20.667 14.333 -31 33.833 -31 58.5c0 20 6 37.333 18 52s33.333 32 64 52l118 75l45 -89l-77 -42c-8 -5.33301 -12 -10.333 -12 -15c0 -6.66699 5.66699 -10 17 -10h72v-103h-130c-35.333 0 -63.333 7.16699 -84 21.5z" />
    <glyph glyph-name="uni0374" unicode="&#x374;" horiz-adv-x="334" 
d="M276 656v-20l-98 -295h-134l71 315h161z" />
    <glyph glyph-name="tonos" unicode="&#x384;" horiz-adv-x="600" 
d="M375 817l-20 -262h-130l20 262h130z" />
    <glyph glyph-name="dieresistonos" unicode="&#x385;" horiz-adv-x="600" 
d="M377 817l-20 -262h-130l20 262h130zM44.5 585.5c-15.667 15 -23.498 34.167 -23.498 57.5c0 24 7.66699 43.333 23 58s35.666 22 60.999 22c24.667 0 44.5 -7.33301 59.5 -22s22.5 -34 22.5 -58c0 -23.333 -7.5 -42.5 -22.5 -57.5s-34.833 -22.5 -59.5 -22.5
s-44.834 7.5 -60.501 22.5zM436.002 585.5c-15.333 15 -23 34.167 -23 57.5c0 24 7.66699 43.333 23 58s35.333 22 60 22s44.5 -7.33301 59.5 -22s22.5 -34 22.5 -58c0 -23.333 -7.5 -42.5 -22.5 -57.5s-34.833 -22.5 -59.5 -22.5s-44.667 7.5 -60 22.5z" />
    <glyph glyph-name="Alphatonos" unicode="&#x386;" horiz-adv-x="770" 
d="M759 23v-23h-150l-60 136h-328l-60 -136h-150v23l291 633h166zM492 266l-107 244l-107 -244h214zM71 656l-20 -262h-130l20 262h130z" />
    <glyph glyph-name="anoteleia" unicode="&#x387;" horiz-adv-x="334" 
d="M104.5 355.5c-16.333 15.667 -24.5 35.832 -24.5 60.499s8.16699 44.834 24.5 60.501s37.166 23.5 62.499 23.5c26 0 47 -7.83301 63 -23.5s24 -35.834 24 -60.501c0 -25.333 -8 -45.666 -24 -60.999s-37 -23 -63 -23c-25.333 0 -46.166 7.83301 -62.499 23.5z" />
    <glyph glyph-name="Epsilontonos" unicode="&#x388;" horiz-adv-x="723" 
d="M661 656v-132h-433v-130h413v-131h-413v-131h433v-132h-583v656h583zM-82 656l-20 -262h-130l20 262h130z" />
    <glyph glyph-name="Etatonos" unicode="&#x389;" horiz-adv-x="819" 
d="M228 656v-261h363v261h150v-656h-150v261h-363v-261h-150v656h150zM-82 656l-20 -262h-130l20 262h130z" />
    <glyph glyph-name="Iotatonos" unicode="&#x38a;" horiz-adv-x="299" 
d="M225 656v-656h-151v656h151zM-93 656l-20 -262h-130l20 262h130z" />
    <glyph glyph-name="Omicrontonos" unicode="&#x38c;" horiz-adv-x="877" 
d="M233 29c-58.667 27.333 -104.166 66.333 -136.499 117s-48.5 109.667 -48.5 177v9c0 67.333 16.167 126.333 48.5 177s78 89.834 137 117.501s127.5 41.5 205.5 41.5c78.667 0 147.334 -13.833 206.001 -41.5s104 -66.834 136 -117.501s48 -109.667 48 -177v-9
c0 -67.333 -16 -126.333 -48 -177s-77.333 -89.667 -136 -117s-127.334 -41 -206.001 -41s-147.334 13.667 -206.001 41zM615.501 177c40.333 33.333 60.501 81.333 60.501 144v12c0 62.667 -20.5 111 -61.5 145s-99.5 51 -175.5 51c-76.667 0 -135.5 -17 -176.5 -51
s-61.5 -82.333 -61.5 -145v-12c0 -62.667 20.5 -110.667 61.5 -144s99.833 -50 176.5 -50c77.333 0 136.166 16.667 176.499 50zM-28.998 656l-20 -262h-130l20 262h130z" />
    <glyph glyph-name="Upsilontonos" unicode="&#x38e;" horiz-adv-x="726" 
d="M727 656v-23l-288 -378v-255h-151v255l-289 378v23h163l201 -265l201 265h163zM-96 656l-20 -262h-130l20 262h130z" />
    <glyph glyph-name="Omegatonos" unicode="&#x38f;" horiz-adv-x="880" 
d="M781 232.5c-32.667 -38.333 -79.0059 -66.166 -139.006 -83.499v-24h188v-125h-330v237c56.667 6.66699 100.334 21.5 131.001 44.5s46 52.167 46 87.5v15c0 46 -20.167 81 -60.5 105s-99.166 36 -176.499 36s-136.166 -12 -176.499 -36s-60.5 -59 -60.5 -105v-15
c0 -35.333 15.333 -64.5 46 -87.5s74.334 -37.833 131.001 -44.5v-237h-330v125h188v24c-60 17.333 -106.333 45.166 -139 83.499s-49 84.833 -49 139.5v16c0 56.667 15.833 106.167 47.5 148.5s76.834 74.833 135.501 97.5s127.667 34 207 34s148.333 -11.333 207 -34
s103.834 -55.167 135.501 -97.5s47.5 -91.833 47.5 -148.5v-16c0 -54.667 -16.333 -101.167 -49 -139.5zM-16.0059 656l-20 -262h-130l20 262h130z" />
    <glyph glyph-name="iotadieresistonos" unicode="&#x390;" horiz-adv-x="329" 
d="M115 40c-29.333 26.667 -44.001 64.333 -44.001 113v348h144v-328c0 -16 4 -27.667 12 -35s21 -11 39 -11h53v-127h-80c-53.333 -0 -94.666 13.333 -123.999 40zM220.999 816.999l-20 -262h-130l20 262h130zM-111.501 585.499c-15.667 15 -23.498 34.167 -23.498 57.5
c0 24 7.66699 43.333 23 58s35.666 22 60.999 22c24.667 0 44.5 -7.33301 59.5 -22s22.5 -34 22.5 -58c0 -23.333 -7.5 -42.5 -22.5 -57.5s-34.833 -22.5 -59.5 -22.5s-44.834 7.5 -60.501 22.5zM280.001 585.499c-15.333 15 -23 34.167 -23 57.5c0 24 7.66699 43.333 23 58
s35.333 22 60 22s44.5 -7.33301 59.5 -22s22.5 -34 22.5 -58c0 -23.333 -7.5 -42.5 -22.5 -57.5s-34.833 -22.5 -59.5 -22.5s-44.667 7.5 -60 22.5z" />
    <glyph glyph-name="Alpha" unicode="&#x391;" horiz-adv-x="770" 
d="M759 23v-23h-150l-60 136h-328l-60 -136h-150v23l291 633h166zM492 266l-107 244l-107 -244h214z" />
    <glyph glyph-name="Beta" unicode="&#x392;" horiz-adv-x="785" 
d="M709 279c16 -24 24.001 -52 24.001 -84v-11c0 -56.667 -22 -101.5 -66 -134.5s-103.667 -49.5 -179 -49.5h-410v656h391c77.333 0 137.166 -15.167 179.499 -45.5s63.5 -72.833 63.5 -127.5v-11c0 -58.667 -24.333 -104 -73 -136c30.667 -14 54 -33 70 -57zM228.001 525
v-132h240c62 0 93 20.333 93 61v10c0 20 -7.83301 35.167 -23.5 45.5s-38.5 15.5 -68.5 15.5h-241zM580.001 206c0 41.333 -31.333 62 -94 62h-258v-137h258c30 0 53.167 5.66699 69.5 17s24.5 27.333 24.5 48v10z" />
    <glyph glyph-name="Gamma" unicode="&#x393;" horiz-adv-x="687" 
d="M673 656v-135h-445v-521h-150v656h595z" />
    <glyph glyph-name="uni0394" unicode="&#x394;" horiz-adv-x="773" 
d="M733 134v-134h-693v134l255 522h183zM196 135h381l-190 398z" />
    <glyph glyph-name="Epsilon" unicode="&#x395;" horiz-adv-x="723" 
d="M661 656v-132h-433v-130h413v-131h-413v-131h433v-132h-583v656h583z" />
    <glyph glyph-name="Zeta" unicode="&#x396;" horiz-adv-x="696" 
d="M654 522l-412 -388h412v-134h-612v134l412 388h-412v134h612v-134z" />
    <glyph glyph-name="Eta" unicode="&#x397;" horiz-adv-x="819" 
d="M228 656v-261h363v261h150v-656h-150v261h-363v-261h-150v656h150z" />
    <glyph glyph-name="Theta" unicode="&#x398;" horiz-adv-x="877" 
d="M645 627c58.667 -27.333 104.001 -66.335 136.001 -117.002s48 -110 48 -178v-9c0 -68 -16 -127.167 -48 -177.5s-77.333 -89.166 -136 -116.499s-127.334 -41 -206.001 -41s-147.334 13.667 -206.001 41s-104.167 66.333 -136.5 117s-48.5 109.667 -48.5 177v9
c0 67.333 16.167 126.333 48.5 177s78 89.834 137 117.501s127.5 41.5 205.5 41.5c78.667 0 147.334 -13.667 206.001 -41zM282.001 498.498c-39.333 -24.333 -64.334 -59.5 -75.001 -105.5h463c-10.667 46 -35.667 81.167 -75 105.5s-91.333 36.5 -156 36.5
c-65.333 0 -117.666 -12.167 -156.999 -36.5zM592.5 157.998c40.333 24.667 66.166 59.667 77.499 105h-464c10.667 -46.667 35.834 -82 75.501 -106s92.167 -36 157.5 -36c62 0 113.167 12.333 153.5 37z" />
    <glyph glyph-name="Iota" unicode="&#x399;" horiz-adv-x="299" 
d="M225 656v-656h-151v656h151z" />
    <glyph glyph-name="Kappa" unicode="&#x39a;" horiz-adv-x="813" 
d="M767 633l-303 -267l289 -343v-23h-176l-230 274l-119 -104v-170h-150v656h150v-306l349 306h190v-23z" />
    <glyph glyph-name="Lambda" unicode="&#x39b;" horiz-adv-x="770" 
d="M759 23v-23h-154l-220 509l-220 -509h-154v23l287 633h174z" />
    <glyph glyph-name="Mu" unicode="&#x39c;" horiz-adv-x="1029" 
d="M951 0h-149v452l-212 -452h-151l-212 454v-454h-149v656h207l230 -487l229 487h207v-656z" />
    <glyph glyph-name="Nu" unicode="&#x39d;" horiz-adv-x="819" 
d="M741 656v-656h-144l-375 445v-445h-144v656h144l375 -444v444h144z" />
    <glyph glyph-name="Xi" unicode="&#x39e;" horiz-adv-x="790" 
d="M467 524v-130h241v-131h-241v-131h261v-132h-666v132h262v131h-242v131h242v130h-262v132h666v-132h-261z" />
    <glyph glyph-name="Omicron" unicode="&#x39f;" horiz-adv-x="877" 
d="M233 29c-58.667 27.333 -104.166 66.333 -136.499 117s-48.5 109.667 -48.5 177v9c0 67.333 16.167 126.333 48.5 177s78 89.834 137 117.501s127.5 41.5 205.5 41.5c78.667 0 147.334 -13.833 206.001 -41.5s104 -66.834 136 -117.501s48 -109.667 48 -177v-9
c0 -67.333 -16 -126.333 -48 -177s-77.333 -89.667 -136 -117s-127.334 -41 -206.001 -41s-147.334 13.667 -206.001 41zM615.501 177c40.333 33.333 60.501 81.333 60.501 144v12c0 62.667 -20.5 111 -61.5 145s-99.5 51 -175.5 51c-76.667 0 -135.5 -17 -176.5 -51
s-61.5 -82.333 -61.5 -145v-12c0 -62.667 20.5 -110.667 61.5 -144s99.833 -50 176.5 -50c77.333 0 136.166 16.667 176.499 50z" />
    <glyph glyph-name="Pi" unicode="&#x3a0;" horiz-adv-x="799" 
d="M721 656v-656h-150v521h-343v-521h-150v656h643z" />
    <glyph glyph-name="Rho" unicode="&#x3a1;" horiz-adv-x="787" 
d="M494 656c77.333 0 138.333 -18.668 183 -56.001s67 -88.333 67 -153v-11c0 -65.333 -22.333 -116.666 -67 -153.999s-105.667 -56 -183 -56h-266v-226h-150v656h416zM565 378.499c17.333 13 26 32.167 26 57.5v11c0 24.667 -8.66699 43.5 -26 56.5s-42.333 19.5 -75 19.5
h-262v-164h262c32.667 0 57.667 6.5 75 19.5z" />
    <glyph glyph-name="Sigma" unicode="&#x3a3;" horiz-adv-x="703" 
d="M653 521h-363l231 -148v-89l-231 -149h363v-135h-601v134l305 194l-305 194v134h601v-135z" />
    <glyph glyph-name="Tau" unicode="&#x3a4;" horiz-adv-x="691" 
d="M14 521v135h663v-135h-256v-521h-151v521h-256z" />
    <glyph glyph-name="Upsilon" unicode="&#x3a5;" horiz-adv-x="726" 
d="M727 656v-23l-288 -378v-255h-151v255l-289 378v23h163l201 -265l201 265h163z" />
    <glyph glyph-name="Phi" unicode="&#x3a6;" horiz-adv-x="1077" 
d="M872 573.5c50.667 -21.667 89.5 -53 116.5 -94s40.5 -89.5 40.5 -145.5v-6c0 -57.333 -13.5 -106.833 -40.5 -148.5s-65.833 -73.667 -116.5 -96s-110.667 -33.5 -180 -33.5h-78v-90h-151v90h-79c-69.333 0 -129.166 11.167 -179.499 33.5s-89 54.333 -116 96
s-40.5 91.167 -40.5 148.5v6c0 56 13.5 104.5 40.5 145.5s65.667 72.333 116 94s110.166 32.5 179.499 32.5h79v90h151v-90h78c69.333 0 129.333 -10.833 180 -32.5zM246 219c30 -23.333 76 -35 138 -35h81v288h-81c-122 0 -183 -45.333 -183 -136v-10
c0 -48 15 -83.667 45 -107zM876 336c0 45.333 -15.167 79.333 -45.5 102s-76.5 34 -138.5 34h-80v-288h80c62.667 0 109 11.667 139 35s45 59 45 107v10z" />
    <glyph glyph-name="Chi" unicode="&#x3a7;" horiz-adv-x="819" 
d="M773 633l-258 -305l258 -305v-23h-176l-187 226l-188 -226h-176v23l258 305l-258 305v23h176l188 -226l188 226h175v-23z" />
    <glyph glyph-name="Psi" unicode="&#x3a8;" horiz-adv-x="1057" 
d="M1003 656v-244.002c0 -81.333 -28 -144.333 -84 -189s-134.333 -67 -235 -67h-80v-156h-151v156h-79c-100.667 0 -179 22.333 -235 67s-84 107.667 -84 189v244h150v-233c0 -45.333 13.167 -78.666 39.5 -99.999s66.833 -32 121.5 -32h87v365h151v-365h88
c54.667 0 95 10.833 121 32.5s39 54.834 39 99.501v233h151z" />
    <glyph glyph-name="uni03A9" unicode="&#x3a9;" horiz-adv-x="880" 
d="M781 232.5c-32.667 -38.333 -79.0059 -66.166 -139.006 -83.499v-24h188v-125h-330v237c56.667 6.66699 100.334 21.5 131.001 44.5s46 52.167 46 87.5v15c0 46 -20.167 81 -60.5 105s-99.166 36 -176.499 36s-136.166 -12 -176.499 -36s-60.5 -59 -60.5 -105v-15
c0 -35.333 15.333 -64.5 46 -87.5s74.334 -37.833 131.001 -44.5v-237h-330v125h188v24c-60 17.333 -106.333 45.166 -139 83.499s-49 84.833 -49 139.5v16c0 56.667 15.833 106.167 47.5 148.5s76.834 74.833 135.501 97.5s127.667 34 207 34s148.333 -11.333 207 -34
s103.834 -55.167 135.501 -97.5s47.5 -91.833 47.5 -148.5v-16c0 -54.667 -16.333 -101.167 -49 -139.5z" />
    <glyph glyph-name="Iotadieresis" unicode="&#x3aa;" horiz-adv-x="299" 
d="M225 656v-656h-151v656h151zM-41 740.5c-16 15 -24 34.167 -24 57.5c0 24 8 43.333 24 58s36.667 22 62 22c24 0 43.833 -7.33301 59.5 -22s23.5 -34 23.5 -58c0 -23.333 -7.83301 -42.5 -23.5 -57.5s-35.5 -22.5 -59.5 -22.5c-25.333 0 -46 7.5 -62 22.5zM219 740.5
c-16 15 -23.998 34.167 -23.998 57.5c0 24 7.83301 43.333 23.5 58s36.167 22 61.5 22s45.666 -7.33301 60.999 -22s23 -34 23 -58c0 -23.333 -7.83301 -42.5 -23.5 -57.5s-35.834 -22.5 -60.501 -22.5s-45 7.5 -61 22.5z" />
    <glyph glyph-name="Upsilondieresis" unicode="&#x3ab;" horiz-adv-x="726" 
d="M727 656v-23l-288 -378v-255h-151v255l-289 378v23h163l201 -265l201 265h163zM172 740.5c-16 15 -24 34.167 -24 57.5c0 24 8 43.333 24 58s36.667 22 62 22c24 0 43.833 -7.33301 59.5 -22s23.5 -34 23.5 -58c0 -23.333 -7.83301 -42.5 -23.5 -57.5
s-35.5 -22.5 -59.5 -22.5c-25.333 0 -46 7.5 -62 22.5zM432 740.5c-16 15 -23.998 34.167 -23.998 57.5c0 24 7.83301 43.333 23.5 58s36.167 22 61.5 22s45.666 -7.33301 60.999 -22s23 -34 23 -58c0 -23.333 -7.83301 -42.5 -23.5 -57.5s-35.834 -22.5 -60.501 -22.5
s-45 7.5 -61 22.5z" />
    <glyph glyph-name="alphatonos" unicode="&#x3ac;" horiz-adv-x="737" 
d="M730 127l0.00195312 -127h-85c-29.333 0 -54.833 4.66699 -76.5 14s-38.834 23 -51.501 41c-46.667 -44.667 -110 -67 -190 -67c-57.333 0 -107.833 10.667 -151.5 32s-77.5 51.5 -101.5 90.5s-36 84.167 -36 135.5v10c0 51.333 12 96.333 36 135s57.667 68.667 101 90
s93.666 32 150.999 32c70.667 0 129 -18.333 175 -55l4 43h135v-334c0 -26.667 15.333 -40 46 -40h44zM432.502 135c26.333 10 47.167 23.999 62.5 41.999v149c-14.667 17.333 -35.167 30.833 -61.5 40.5s-55.833 14.5 -88.5 14.5c-49.333 0 -87.833 -11 -115.5 -33
s-41.5 -52.667 -41.5 -92v-10c0 -39.333 13.833 -70.166 41.5 -92.499s66.167 -33.5 115.5 -33.5c32 0 61.167 5 87.5 15zM449.003 816.999l-20 -262h-130l20 262h130z" />
    <glyph glyph-name="epsilontonos" unicode="&#x3ad;" horiz-adv-x="684" 
d="M498 303v5.99902c0 22 -4.83301 39.167 -14.5 51.5s-25.334 21.166 -47.001 26.499s-51.834 8 -90.501 8c-91.333 0 -137 -14.667 -137 -44v-6c0 -25.333 25.667 -38 77 -38h142v-110h-152c-27.333 0 -47.333 -3 -60 -9s-19 -15.667 -19 -29v-6
c0 -15.333 11.667 -27.166 35 -35.499s57 -12.5 101 -12.5c62.667 0 105.834 6.83301 129.501 20.5s35.5 35.5 35.5 65.5v6h143v-6c0 -68.667 -25.167 -119.667 -75.5 -153s-127.5 -50 -231.5 -50c-94 0 -165.5 13 -214.5 39s-73.5 64 -73.5 114v7
c0 22.667 6.5 43.167 19.5 61.5s31.833 33.166 56.5 44.499c-41.333 24.667 -62 57.334 -62 98.001v7c0 49.333 24.333 87.333 73 114s117.334 40 206.001 40c99.333 0 174.5 -17.167 225.5 -51.5s76.5 -85.166 76.5 -152.499v-6h-143zM426 816.999l-20 -262h-130l20 262
h130z" />
    <glyph glyph-name="etatonos" unicode="&#x3ae;" horiz-adv-x="733" 
d="M601.5 445c43.667 -45.333 65.498 -111.333 65.498 -198v-417h-145v417c0 43.333 -11.167 76.5 -33.5 99.5s-54.166 34.5 -95.499 34.5c-32.667 0 -62 -7 -88 -21s-45.667 -33.667 -59 -59l-1 -301h-144v329c0 28 -16 42 -48 42h-46v130h87
c60.667 0 103.667 -18.333 129 -55c44.667 44.667 107.334 67 188.001 67c83.333 0 146.833 -22.667 190.5 -68zM468.998 817l-20 -262h-130l20 262h130z" />
    <glyph glyph-name="iotatonos" unicode="&#x3af;" horiz-adv-x="329" 
d="M115 40c-29.333 26.667 -44.001 64.333 -44.001 113v348h144v-328c0 -16 4 -27.667 12 -35s21 -11 39 -11h53v-127h-80c-53.333 -0 -94.666 13.333 -123.999 40zM226.999 816.999l-20 -262h-130l20 262h130z" />
    <glyph glyph-name="upsilondieresistonos" unicode="&#x3b0;" horiz-adv-x="704" 
d="M142.5 56.5c-51 45.667 -76.502 108.5 -76.502 188.5v256h145v-257c0 -41.333 12.333 -73 37 -95s60.334 -33 107.001 -33c44.667 0 78.834 11 102.501 33s35.5 53.667 35.5 95v257h145v-256c0 -81.333 -24.833 -144.5 -74.5 -189.5s-119.167 -67.5 -208.5 -67.5
c-90.667 0 -161.5 22.833 -212.5 68.5zM431.998 817l-20 -262h-130l20 262h130zM99.498 585.5c-15.667 15 -23.498 34.167 -23.498 57.5c0 24 7.66699 43.333 23 58s35.666 22 60.999 22c24.667 0 44.5 -7.33301 59.5 -22s22.5 -34 22.5 -58
c0 -23.333 -7.5 -42.5 -22.5 -57.5s-34.833 -22.5 -59.5 -22.5s-44.834 7.5 -60.501 22.5zM491 585.5c-15.333 15 -23 34.167 -23 57.5c0 24 7.66699 43.333 23 58s35.333 22 60 22s44.5 -7.33301 59.5 -22s22.5 -34 22.5 -58c0 -23.333 -7.5 -42.5 -22.5 -57.5
s-34.833 -22.5 -59.5 -22.5s-44.667 7.5 -60 22.5z" />
    <glyph glyph-name="alpha" unicode="&#x3b1;" horiz-adv-x="737" 
d="M730 127l0.00195312 -127h-85c-29.333 0 -54.833 4.66699 -76.5 14s-38.834 23 -51.501 41c-46.667 -44.667 -110 -67 -190 -67c-57.333 0 -107.833 10.667 -151.5 32s-77.5 51.5 -101.5 90.5s-36 84.167 -36 135.5v10c0 51.333 12 96.333 36 135s57.667 68.667 101 90
s93.666 32 150.999 32c70.667 0 129 -18.333 175 -55l4 43h135v-334c0 -26.667 15.333 -40 46 -40h44zM432.502 135c26.333 10 47.167 23.999 62.5 41.999v149c-14.667 17.333 -35.167 30.833 -61.5 40.5s-55.833 14.5 -88.5 14.5c-49.333 0 -87.833 -11 -115.5 -33
s-41.5 -52.667 -41.5 -92v-10c0 -39.333 13.833 -70.166 41.5 -92.499s66.167 -33.5 115.5 -33.5c32 0 61.167 5 87.5 15z" />
    <glyph glyph-name="beta" unicode="&#x3b2;" horiz-adv-x="723" 
d="M685 206v-12.001c0 -64.667 -24.167 -115.167 -72.5 -151.5s-116.166 -54.5 -203.499 -54.5c-76.667 0 -140.334 15.667 -191.001 47v-205h-145v628c0 80 26 141.667 78 185s126.333 65 223 65c60 0 112.5 -8.5 157.5 -25.5s79.5 -41.167 103.5 -72.5s36 -68.333 36 -111
v-12c0 -63.333 -28.667 -108.666 -86 -135.999c66.667 -28.667 100 -77 100 -145zM537 211.999c0 25.333 -7.99902 44 -23.999 56s-41.333 18 -76 18h-113v122h96c68.667 0 103 24.667 103 74v8c0 57.333 -47.667 86 -143 86c-108 0 -162 -40 -162 -120v-277
c16 -19.333 39 -34 69 -44s65.333 -15 106 -15c47.333 0 83.166 7.16699 107.499 21.5s36.5 35.5 36.5 63.5v7z" />
    <glyph glyph-name="gamma" unicode="&#x3b3;" horiz-adv-x="695" 
d="M677 480l-257 -497v-153h-144v153l-258 497v21h151l179 -351l178 351h151v-21z" />
    <glyph glyph-name="delta" unicode="&#x3b4;" horiz-adv-x="685" 
d="M611.5 360c23.667 -33.333 35.501 -72.667 35.501 -118v-11c0 -49.333 -12.333 -92.333 -37 -129s-59.834 -64.834 -105.501 -84.501s-99.5 -29.5 -161.5 -29.5s-116 9.83301 -162 29.5s-81.333 47.834 -106 84.501s-37 80 -37 130v11c0 58.667 17 106.5 51 143.5
s83.333 62.167 148 75.5l-173 104v130h532v-127h-294l191 -111c55.333 -32 94.833 -64.667 118.5 -98zM497.001 240.999c0 25.333 -7.16797 46.832 -21.501 64.499s-42.166 38.834 -83.499 63.501h-15c-62 0 -109 -10.5 -141 -31.5s-48 -51.833 -48 -92.5v-8
c0 -39.333 13.667 -70 41 -92s65.333 -33 114 -33s86.5 10.667 113.5 32s40.5 51 40.5 89v8z" />
    <glyph glyph-name="epsilon" unicode="&#x3b5;" horiz-adv-x="684" 
d="M498 303v5.99902c0 22 -4.83301 39.167 -14.5 51.5s-25.334 21.166 -47.001 26.499s-51.834 8 -90.501 8c-91.333 0 -137 -14.667 -137 -44v-6c0 -25.333 25.667 -38 77 -38h142v-110h-152c-27.333 0 -47.333 -3 -60 -9s-19 -15.667 -19 -29v-6
c0 -15.333 11.667 -27.166 35 -35.499s57 -12.5 101 -12.5c62.667 0 105.834 6.83301 129.501 20.5s35.5 35.5 35.5 65.5v6h143v-6c0 -68.667 -25.167 -119.667 -75.5 -153s-127.5 -50 -231.5 -50c-94 0 -165.5 13 -214.5 39s-73.5 64 -73.5 114v7
c0 22.667 6.5 43.167 19.5 61.5s31.833 33.166 56.5 44.499c-41.333 24.667 -62 57.334 -62 98.001v7c0 49.333 24.333 87.333 73 114s117.334 40 206.001 40c99.333 0 174.5 -17.167 225.5 -51.5s76.5 -85.166 76.5 -152.499v-6h-143z" />
    <glyph glyph-name="zeta" unicode="&#x3b6;" horiz-adv-x="599" 
d="M598 -18l0.000976562 -13.001c0 -47.333 -14.833 -82.333 -44.5 -105s-74.167 -34 -133.5 -34h-131v117h128c25.333 0 38 8 38 24v5c0 16 -12.667 24 -38 24h-105c-89.333 0 -157.833 17.5 -205.5 52.5s-71.5 85.167 -71.5 150.5v13c0 29.333 5.83301 56.5 17.5 81.5
s31 50.5 58 76.5s64.167 55.667 111.5 89l152 106h-326v127h546v-124l-281 -199c-36 -25.333 -63 -46.166 -81 -62.499s-30.5 -31 -37.5 -44s-10.5 -27.833 -10.5 -44.5v-8c0 -28 11.167 -49.5 33.5 -64.5s54.166 -22.5 95.499 -22.5h107c118.667 0 178 -48.333 178 -145z
" />
    <glyph glyph-name="eta" unicode="&#x3b7;" horiz-adv-x="733" 
d="M601.5 445c43.667 -45.333 65.498 -111.333 65.498 -198v-417h-145v417c0 43.333 -11.167 76.5 -33.5 99.5s-54.166 34.5 -95.499 34.5c-32.667 0 -62 -7 -88 -21s-45.667 -33.667 -59 -59l-1 -301h-144v329c0 28 -16 42 -48 42h-46v130h87
c60.667 0 103.667 -18.333 129 -55c44.667 44.667 107.334 67 188.001 67c83.333 0 146.833 -22.667 190.5 -68z" />
    <glyph glyph-name="theta" unicode="&#x3b8;" horiz-adv-x="675" 
d="M557 600.5c53.333 -45.667 80.002 -108.503 80.002 -188.503v-170c0 -52 -12 -97.167 -36 -135.5s-58.5 -67.666 -103.5 -87.999s-97.833 -30.5 -158.5 -30.5s-113.667 10.333 -159 31s-80.333 50 -105 88s-37 83 -37 135v170c0 52.667 12.167 98.334 36.5 137.001
s59.166 68.334 104.499 89.001s98.666 31 159.999 31c92 0 164.667 -22.833 218 -68.5zM222.502 509.497c-27.667 -22.333 -41.5 -53.833 -41.5 -94.5v-24h314v24c0 40 -14.167 71.333 -42.5 94s-66.5 34 -114.5 34c-49.333 0 -87.833 -11.167 -115.5 -33.5z
M452.502 148.997c28.333 22.667 42.5 53.667 42.5 93v25h-314v-25c0 -40 13.833 -71.167 41.5 -93.5s66.167 -33.5 115.5 -33.5c48 0 86.167 11.333 114.5 34z" />
    <glyph glyph-name="iota" unicode="&#x3b9;" horiz-adv-x="329" 
d="M115 40c-29.333 26.667 -44.001 64.333 -44.001 113v348h144v-328c0 -16 4 -27.667 12 -35s21 -11 39 -11h53v-127h-80c-53.333 -0 -94.666 13.333 -123.999 40z" />
    <glyph glyph-name="kappa" unicode="&#x3ba;" horiz-adv-x="681" 
d="M669 20v-20h-164l-173 199l-114 -102v-97h-145v501h145v-228l263 228h177v-21l-221 -195z" />
    <glyph glyph-name="lambda" unicode="&#x3bb;" horiz-adv-x="705" 
d="M686 20v-20h-155l-174 342l-174 -342h-155v20l248 480l-10 20c-10 18.667 -20.667 31.5 -32 38.5s-27 10.5 -47 10.5h-139v127h148c52 0 92.667 -8 122 -24s54.333 -44.333 75 -85z" />
    <glyph glyph-name="uni03BC" unicode="&#x3bc;" horiz-adv-x="740" 
d="M736 127l-0.00195312 -127h-86c-31.333 0 -58.333 5.16699 -81 15.5s-40 25.166 -52 44.499c-17.333 -23.333 -39.666 -41.166 -66.999 -53.499s-58.333 -18.5 -93 -18.5c-56 0 -102.333 14.667 -139 44v-202h-145v671h145v-247c0 -42.667 11.667 -75.667 35 -99
s56.666 -35 99.999 -35c32.667 0 61.334 6.83301 86.001 20.5s44.334 33.167 59.001 58.5v302h144v-332c0 -28 16.333 -42 49 -42h45z" />
    <glyph glyph-name="nu" unicode="&#x3bd;" horiz-adv-x="697" 
d="M678 501v-21l-235 -480h-188l-236 480v21h152l178 -370l177 370h152z" />
    <glyph glyph-name="xi" unicode="&#x3be;" horiz-adv-x="663" 
d="M506 481l-0.000976562 3.99902c0 28.667 -13.333 51 -40 67s-64 24 -112 24c-44.667 0 -79.834 -7.5 -105.501 -22.5s-38.5 -35.833 -38.5 -62.5v-9c0 -24.667 8.66699 -43.5 26 -56.5s42 -19.5 74 -19.5h164v-123h-186c-31.333 0 -55.166 -6 -71.499 -18
s-24.5 -29.333 -24.5 -52v-9c0 -26.667 12 -46.167 36 -58.5s62.333 -18.5 115 -18.5h127c118.667 0 178 -48.333 178 -145v-13c0 -47.333 -14.5 -82.333 -43.5 -105s-73.833 -34 -134.5 -34h-130v117h127c25.333 0 38 8 38 24v5c0 16 -12.667 24 -38 24h-124
c-95.333 0 -169.333 16.833 -222 50.5s-79 80.834 -79 141.501v12c0 70 32.333 119 97 147c-52.667 30.667 -79 77.334 -79 140.001v13c0 40 12.333 75.5 37 106.5s59.334 55 104.001 72s95.667 25.5 153 25.5c60 0 112.667 -9.16699 158 -27.5s80.5 -44.333 105.5 -78
s37.5 -72.834 37.5 -117.501v-4h-149z" />
    <glyph glyph-name="omicron" unicode="&#x3bf;" horiz-adv-x="685" 
d="M181 18.5c-46 20.333 -81.333 49.666 -106 87.999s-37 83.5 -37 135.5v13c0 53.333 12.167 99.333 36.5 138s59.5 68.334 105.5 89.001s100.667 31 164 31c62.667 0 116.667 -10.333 162 -31s80.166 -50.334 104.499 -89.001s36.5 -84.667 36.5 -138v-13
c0 -52 -12.167 -97.167 -36.5 -135.5s-59.166 -67.666 -104.499 -87.999s-99.333 -30.5 -162 -30.5s-117 10.167 -163 30.5zM456.5 152c27 21.333 40.5 51.666 40.5 90.999v11c0 40.667 -13.333 72 -40 94s-64.667 33 -114 33c-50 0 -88.333 -10.833 -115 -32.5
s-40 -53.167 -40 -94.5v-11c0 -39.333 13.5 -69.666 40.5 -90.999s65.167 -32 114.5 -32c48.667 0 86.5 10.667 113.5 32z" />
    <glyph glyph-name="pi" unicode="&#x3c0;" horiz-adv-x="814" 
d="M11 371l-0.000976562 130h795v-130h-166v-191c0 -18 4.33301 -31.333 13 -40s22.334 -13 41.001 -13h99v-127h-115c-58 0 -103 15 -135 45s-48 72.333 -48 127v199h-193v-371h-145v371h-146z" />
    <glyph glyph-name="rho" unicode="&#x3c1;" horiz-adv-x="704" 
d="M525 482c45.333 -20.667 80.167 -50.499 104.5 -89.499s36.5 -84.833 36.5 -137.5v-11c0 -50 -11.833 -94.333 -35.5 -133s-57 -68.834 -100 -90.501s-92.5 -32.5 -148.5 -32.5c-67.333 0 -124 16.333 -170 49v-207h-146v426c0 80.667 26.333 143.667 79 189
s125.667 68 219 68c62 0 115.667 -10.333 161 -31zM516.001 255.001c0 40 -13.167 70.999 -39.5 92.999s-63.833 33 -112.5 33c-49.333 0 -87 -11 -113 -33s-39 -53.333 -39 -94v-77c15.333 -17.333 36.5 -31.166 63.5 -41.499s56.833 -15.5 89.5 -15.5
c48 0 85.167 10.833 111.5 32.5s39.5 52.167 39.5 91.5v11z" />
    <glyph glyph-name="uni03C2" unicode="&#x3c2;" horiz-adv-x="665" 
d="M448 -53c25.333 0 37.999 8 37.999 24v5c0 16 -12.667 24 -38 24h-108c-97.333 -0 -172 20.833 -224 62.5s-78 101.167 -78 178.5v19c0 50.667 12.333 95.167 37 133.5s59.667 67.833 105 88.5s98.333 31 159 31c58 0 109.5 -9.66699 154.5 -29s80 -46.333 105 -81
s37.5 -74.334 37.5 -119.001v-9h-148v9c0 28.667 -13.667 52 -41 70s-63 27 -107 27c-48.667 0 -86.167 -10.333 -112.5 -31s-39.5 -50.667 -39.5 -90v-19c0 -37.333 12.833 -65.666 38.5 -84.999s63.834 -29 114.501 -29h110c118.667 0 178 -48.333 178 -145v-13
c0 -47.333 -14.5 -82.333 -43.5 -105s-73.833 -34 -134.5 -34h-131v117h128z" />
    <glyph glyph-name="sigma" unicode="&#x3c3;" horiz-adv-x="735" 
d="M734 371h-140.001c35.333 -29.333 53 -72.666 53 -129.999v-13c0 -48.667 -12.333 -91 -37 -127s-59.834 -63.833 -105.501 -83.5s-99.167 -29.5 -160.5 -29.5c-62.667 0 -117 10.167 -163 30.5s-81.333 49.666 -106 87.999s-37 83.5 -37 135.5v13
c0 50.667 12.333 94.5 37 131.5s59.834 65.333 105.501 85s99.834 29.5 162.501 29.5h391v-130zM481.999 315c-10 18.667 -26.333 37.333 -49 56h-90c-50.667 0 -89.167 -10.333 -115.5 -31s-39.5 -51 -39.5 -91v-9c0 -39.333 13.5 -69.833 40.5 -91.5
s65.167 -32.5 114.5 -32.5c48.667 0 86.5 10.833 113.5 32.5s40.5 52.167 40.5 91.5v9c0 25.333 -5 47.333 -15 66z" />
    <glyph glyph-name="tau" unicode="&#x3c4;" horiz-adv-x="572" 
d="M229 46c-32.667 30.667 -48.999 73 -48.999 127v198h-169v130h538v-130h-225v-188c0 -18 5.16699 -31.833 15.5 -41.5s25.166 -14.5 44.499 -14.5h135v-127h-154c-58 -0 -103.333 15.333 -136 46z" />
    <glyph glyph-name="upsilon" unicode="&#x3c5;" horiz-adv-x="704" 
d="M142.5 56.5c-51 45.667 -76.502 108.5 -76.502 188.5v256h145v-257c0 -41.333 12.333 -73 37 -95s60.334 -33 107.001 -33c44.667 0 78.834 11 102.501 33s35.5 53.667 35.5 95v257h145v-256c0 -81.333 -24.833 -144.5 -74.5 -189.5s-119.167 -67.5 -208.5 -67.5
c-90.667 0 -161.5 22.833 -212.5 68.5z" />
    <glyph glyph-name="phi" unicode="&#x3c6;" horiz-adv-x="968" 
d="M849.5 436.5c53.667 -43 80.5 -102.833 80.5 -179.5v-14c0 -76.667 -26.833 -136.334 -80.5 -179.001s-128.834 -64 -225.501 -64h-68v-170h-144v170h-68c-96.667 0 -171.834 21.333 -225.501 64s-80.5 102.334 -80.5 179.001v14c0 76.667 26.833 136.5 80.5 179.5
s128.834 64.5 225.501 64.5h68v195h144v-195h68c96.667 0 171.834 -21.5 225.501 -64.5zM413 127l0.000976562 246h-77c-48.667 0 -85.834 -10.167 -111.501 -30.5s-38.5 -49.5 -38.5 -87.5v-10c0 -37.333 13 -66.333 39 -87s63 -31 111 -31h77zM782.001 255
c0 38 -12.832 67.167 -38.499 87.5s-62.834 30.5 -111.501 30.5h-77v-246h77c48 0 85 10.333 111 31s39 49.667 39 87v10z" />
    <glyph glyph-name="chi" unicode="&#x3c7;" horiz-adv-x="656" 
d="M636 -150v-20h-159l-150 235l-149 -235h-159v20l211 317l-207 313v21h158l146 -231l145 231h159v-21l-207 -313z" />
    <glyph glyph-name="psi" unicode="&#x3c8;" horiz-adv-x="898" 
d="M832 501l-0.000976562 -252c0 -78.667 -26.5 -139.834 -79.5 -183.501s-127.5 -65.5 -223.5 -65.5h-8v-170h-144v170h-8c-96 0 -170.5 21.833 -223.5 65.5s-79.5 104.834 -79.5 183.501v252h145v-241c0 -44 12.5 -76.667 37.5 -98s62.5 -32 112.5 -32h16v566h144v-566h16
c50.667 0 88.334 10.667 113.001 32s37 54 37 98v241h145z" />
    <glyph glyph-name="omega" unicode="&#x3c9;" horiz-adv-x="968" 
d="M852.5 436c51.667 -43.333 77.502 -105.666 77.502 -186.999v-13c0 -49.333 -11 -92.666 -33 -129.999s-52.833 -66.333 -92.5 -87s-85.834 -31 -138.501 -31c-39.333 0 -74.5 6.16699 -105.5 18.5s-56.5 30.5 -76.5 54.5c-20 -24 -45.5 -42.167 -76.5 -54.5
s-66.167 -18.5 -105.5 -18.5c-52.667 0 -98.834 10.333 -138.501 31s-70.5 49.667 -92.5 87s-33 80.666 -33 129.999v13c0 81.333 25.833 143.666 77.5 186.999s125.167 65 220.5 65h23v-128h-30c-95.333 0 -143 -40.333 -143 -121v-12c0 -38.667 11.5 -68.834 34.5 -90.501
s54.5 -32.5 94.5 -32.5c22 0 41.333 3.83301 58 11.5s29.667 18.834 39 33.501v205h144v-205c9.33301 -14.667 22.333 -25.834 39 -33.501s36 -11.5 58 -11.5c40 0 71.5 10.833 94.5 32.5s34.5 51.834 34.5 90.501v12c0 80.667 -47.667 121 -143 121h-30v128h23
c95.333 0 168.833 -21.667 220.5 -65z" />
    <glyph glyph-name="iotadieresis" unicode="&#x3ca;" horiz-adv-x="329" 
d="M115 40c-29.333 26.667 -44.001 64.333 -44.001 113v348h144v-328c0 -16 4 -27.667 12 -35s21 -11 39 -11h53v-127h-80c-53.333 -0 -94.666 13.333 -123.999 40zM-47.001 585.499c-16 15 -24 34.167 -24 57.5c0 24 8 43.333 24 58s36.667 22 62 22
c24 0 43.833 -7.33301 59.5 -22s23.5 -34 23.5 -58c0 -23.333 -7.83301 -42.5 -23.5 -57.5s-35.5 -22.5 -59.5 -22.5c-25.333 0 -46 7.5 -62 22.5zM212.999 585.499c-16 15 -23.998 34.167 -23.998 57.5c0 24 7.83301 43.333 23.5 58s36.167 22 61.5 22
s45.666 -7.33301 60.999 -22s23 -34 23 -58c0 -23.333 -7.83301 -42.5 -23.5 -57.5s-35.834 -22.5 -60.501 -22.5s-45 7.5 -61 22.5z" />
    <glyph glyph-name="upsilondieresis" unicode="&#x3cb;" horiz-adv-x="704" 
d="M142.5 56.5c-51 45.667 -76.502 108.5 -76.502 188.5v256h145v-257c0 -41.333 12.333 -73 37 -95s60.334 -33 107.001 -33c44.667 0 78.834 11 102.501 33s35.5 53.667 35.5 95v257h145v-256c0 -81.333 -24.833 -144.5 -74.5 -189.5s-119.167 -67.5 -208.5 -67.5
c-90.667 0 -161.5 22.833 -212.5 68.5zM163.998 585.5c-16 15 -24 34.167 -24 57.5c0 24 8 43.333 24 58s36.667 22 62 22c24 0 43.833 -7.33301 59.5 -22s23.5 -34 23.5 -58c0 -23.333 -7.83301 -42.5 -23.5 -57.5s-35.5 -22.5 -59.5 -22.5c-25.333 0 -46 7.5 -62 22.5z
M423.998 585.5c-16 15 -23.998 34.167 -23.998 57.5c0 24 7.83301 43.333 23.5 58s36.167 22 61.5 22s45.666 -7.33301 60.999 -22s23 -34 23 -58c0 -23.333 -7.83301 -42.5 -23.5 -57.5s-35.834 -22.5 -60.501 -22.5s-45 7.5 -61 22.5z" />
    <glyph glyph-name="omicrontonos" unicode="&#x3cc;" horiz-adv-x="685" 
d="M181 18.5c-46 20.333 -81.333 49.666 -106 87.999s-37 83.5 -37 135.5v13c0 53.333 12.167 99.333 36.5 138s59.5 68.334 105.5 89.001s100.667 31 164 31c62.667 0 116.667 -10.333 162 -31s80.166 -50.334 104.499 -89.001s36.5 -84.667 36.5 -138v-13
c0 -52 -12.167 -97.167 -36.5 -135.5s-59.166 -67.666 -104.499 -87.999s-99.333 -30.5 -162 -30.5s-117 10.167 -163 30.5zM456.5 152c27 21.333 40.5 51.666 40.5 90.999v11c0 40.667 -13.333 72 -40 94s-64.667 33 -114 33c-50 0 -88.333 -10.833 -115 -32.5
s-40 -53.167 -40 -94.5v-11c0 -39.333 13.5 -69.666 40.5 -90.999s65.167 -32 114.5 -32c48.667 0 86.5 10.667 113.5 32zM426 817l-20 -262h-130l20 262h130z" />
    <glyph glyph-name="upsilontonos" unicode="&#x3cd;" horiz-adv-x="704" 
d="M142.5 56.5c-51 45.667 -76.502 108.5 -76.502 188.5v256h145v-257c0 -41.333 12.333 -73 37 -95s60.334 -33 107.001 -33c44.667 0 78.834 11 102.501 33s35.5 53.667 35.5 95v257h145v-256c0 -81.333 -24.833 -144.5 -74.5 -189.5s-119.167 -67.5 -208.5 -67.5
c-90.667 0 -161.5 22.833 -212.5 68.5zM436.998 817l-20 -262h-130l20 262h130z" />
    <glyph glyph-name="omegatonos" unicode="&#x3ce;" horiz-adv-x="968" 
d="M852.5 436c51.667 -43.333 77.502 -105.666 77.502 -186.999v-13c0 -49.333 -11 -92.666 -33 -129.999s-52.833 -66.333 -92.5 -87s-85.834 -31 -138.501 -31c-39.333 0 -74.5 6.16699 -105.5 18.5s-56.5 30.5 -76.5 54.5c-20 -24 -45.5 -42.167 -76.5 -54.5
s-66.167 -18.5 -105.5 -18.5c-52.667 0 -98.834 10.333 -138.501 31s-70.5 49.667 -92.5 87s-33 80.666 -33 129.999v13c0 81.333 25.833 143.666 77.5 186.999s125.167 65 220.5 65h23v-128h-30c-95.333 0 -143 -40.333 -143 -121v-12c0 -38.667 11.5 -68.834 34.5 -90.501
s54.5 -32.5 94.5 -32.5c22 0 41.333 3.83301 58 11.5s29.667 18.834 39 33.501v205h144v-205c9.33301 -14.667 22.333 -25.834 39 -33.501s36 -11.5 58 -11.5c40 0 71.5 10.833 94.5 32.5s34.5 51.834 34.5 90.501v12c0 80.667 -47.667 121 -143 121h-30v128h23
c95.333 0 168.833 -21.667 220.5 -65zM567.002 817l-20 -262h-130l20 262h130z" />
    <glyph glyph-name="uni0400" unicode="&#x400;" horiz-adv-x="723" 
d="M661 656v-132h-433v-130h413v-131h-413v-131h433v-132h-583v656h583zM149 895l441 -67v-120l-441 68v119z" />
    <glyph glyph-name="uni0401" unicode="&#x401;" horiz-adv-x="723" 
d="M661 656v-132h-433v-130h413v-131h-413v-131h433v-132h-583v656h583zM178 740.5c-16 15 -24 34.167 -24 57.5c0 24 8 43.333 24 58s36.667 22 62 22c24 0 43.833 -7.33301 59.5 -22s23.5 -34 23.5 -58c0 -23.333 -7.83301 -42.5 -23.5 -57.5s-35.5 -22.5 -59.5 -22.5
c-25.333 0 -46 7.5 -62 22.5zM438 740.5c-16 15 -23.998 34.167 -23.998 57.5c0 24 7.83301 43.333 23.5 58s36.167 22 61.5 22s45.666 -7.33301 60.999 -22s23 -34 23 -58c0 -23.333 -7.83301 -42.5 -23.5 -57.5s-35.834 -22.5 -60.501 -22.5s-45 7.5 -61 22.5z" />
    <glyph glyph-name="uni0402" unicode="&#x402;" horiz-adv-x="944" 
d="M900 216l-0.000976562 -12.999c0 -65.333 -24.333 -115.5 -73 -150.5s-118.334 -52.5 -209.001 -52.5h-107v129h94c52.667 0 89.834 5.66699 111.501 17s32.5 30.666 32.5 57.999v11c0 50 -57 75 -171 75c-44 0 -107 -3.66699 -189 -11v-279h-150v521h-225v135h651v-135
h-276v-117c74.667 9.33301 142.334 14 203.001 14c205.333 0 308 -67.333 308 -202z" />
    <glyph glyph-name="uni0403" unicode="&#x403;" horiz-adv-x="627" 
d="M613 656v-135h-385v-521h-150v656h535zM578 894v-119l-441 -67v119z" />
    </font>
</defs>
</svg>
